<svg width="266" height="476" viewBox="0 0 266 476" fill="none" xmlns="http://www.w3.org/2000/svg">
<g clip-path="url(#clip0_1531_3646)">
<path d="M210.149 93.5873C150.515 77.9727 165.84 24.6897 180.957 0H427V536H-63C-29.6383 534.499 241.947 448.418 283.128 402.375C324.309 356.332 284.691 113.106 210.149 93.5873Z" fill="#51A3DA"/>
<path d="M101.279 475.39V510.468C101.279 526.256 108.622 534.15 123.309 534.15C137.877 534.15 145.161 526.256 145.161 510.468V504.058C145.161 487.201 129.468 467.495 98.0807 444.941C66.6935 422.505 51 395.202 51 363.032V296.793C51 247.885 75.0437 223.432 123.131 223.432C171.337 223.432 195.44 247.885 195.44 296.793V318.606C195.44 325.288 192.791 331.697 188.077 336.422C183.362 341.147 176.968 343.802 170.301 343.802C163.633 343.802 157.239 341.147 152.524 336.422C147.81 331.697 145.161 325.288 145.161 318.606V296.793C145.161 281.124 137.877 273.23 123.309 273.111H122.953C108.504 273.111 101.279 281.005 101.279 296.793V361.964C101.279 377.515 116.972 396.567 148.359 419.122C179.746 441.558 195.44 468.445 195.44 499.784V510.468C195.44 559.494 171.396 584.008 123.309 584.008C75.103 583.889 51 559.376 51.0001 510.468V475.39L101.279 475.39Z" fill="#613393"/>
<path d="M215.092 534.15C200.581 534.15 193.325 526.256 193.325 510.468V504.058C193.325 487.201 208.957 467.495 240.22 444.941C271.483 422.505 287.114 395.202 287.114 363.032V296.793C287.114 247.885 263.166 223.432 215.269 223.432C167.253 223.432 143.246 247.885 143.246 296.793V319.369C143.383 325.89 146.097 332.089 150.792 336.604C155.488 341.12 161.78 343.582 168.286 343.45C174.791 343.582 181.083 341.12 185.779 336.604C190.474 332.089 193.188 325.89 193.325 319.369V296.793C193.325 281.124 200.581 273.23 215.092 273.111H215.446C229.838 273.111 237.035 281.005 237.035 296.793V361.964C237.035 377.515 221.403 396.567 190.14 419.122C158.877 441.558 143.246 468.445 143.246 499.784V510.468C143.246 559.494 167.194 584.008 215.091 584.008" fill="#51A3DA"/>
<path d="M225.845 199.779C242.591 199.779 256.166 186.173 256.166 169.389C256.166 152.606 242.591 139 225.845 139C209.099 139 195.524 152.606 195.524 169.389C195.524 186.173 209.099 199.779 225.845 199.779Z" fill="#51A3DA"/>
<path d="M122.954 199.779C139.7 199.779 153.275 186.173 153.275 169.389C153.275 152.606 139.7 139 122.954 139C106.208 139 92.6332 152.606 92.6332 169.389C92.6332 186.173 106.208 199.779 122.954 199.779Z" fill="#613393"/>
<path d="M224.149 93.5873C164.515 77.9727 179.84 24.6897 194.957 0H441V536H-49C-15.6383 534.499 255.947 448.418 297.128 402.375C338.309 356.332 298.691 113.106 224.149 93.5873Z" fill="#60269E"/>
</g>
<defs>
<clipPath id="clip0_1531_3646">
<rect width="266" height="476" fill="white"/>
</clipPath>
</defs>
</svg>
