<svg width="398" height="59" viewBox="0 0 398 59" fill="none" xmlns="http://www.w3.org/2000/svg">
<path d="M38.2344 26.3047C37.5 27.4922 36.5078 28.6719 35.2578 29.8438C34.0078 31 32.5781 32.0469 30.9688 32.9844C29.375 33.9062 27.6328 34.6484 25.7422 35.2109C23.8516 35.7891 21.8984 36.0781 19.8828 36.0781C18.3047 36.0781 16.7266 35.9375 15.1484 35.6562C13.5859 35.375 12.0781 34.9453 10.625 34.3672C9.1875 33.7891 7.84375 33.0625 6.59375 32.1875C5.35938 31.2969 4.28125 30.25 3.35938 29.0469C2.4375 27.8438 1.71094 26.4766 1.17969 24.9453C0.664062 23.4141 0.40625 21.7109 0.40625 19.8359C0.40625 18.0078 0.671875 16.2734 1.20312 14.6328C1.75 12.9922 2.50781 11.4766 3.47656 10.0859C4.44531 8.67969 5.59375 7.41406 6.92188 6.28906C8.25 5.16406 9.70312 4.21094 11.2812 3.42969C12.8594 2.63281 14.5234 2.02344 16.2734 1.60156C18.0234 1.17969 19.8125 0.96875 21.6406 0.96875C23.6562 0.96875 25.5469 1.21094 27.3125 1.69531C29.0938 2.16406 30.6484 2.83594 31.9766 3.71094C33.3047 4.57031 34.3516 5.60938 35.1172 6.82812C35.8984 8.03125 36.2891 9.375 36.2891 10.8594C36.2891 12.2344 35.9688 13.5469 35.3281 14.7969C34.6875 16.0312 33.8047 17.1172 32.6797 18.0547C31.5703 18.9922 30.2656 19.7344 28.7656 20.2812C27.2812 20.8281 25.6953 21.1016 24.0078 21.1016C22.6484 21.1016 21.4453 20.9375 20.3984 20.6094C19.3516 20.2656 18.4766 19.7969 17.7734 19.2031C17.0703 18.6094 16.5391 17.9141 16.1797 17.1172C15.8203 16.3203 15.6406 15.4609 15.6406 14.5391C15.6406 13.7734 15.7578 13.0781 15.9922 12.4531C16.2422 11.8125 16.5078 11.2656 16.7891 10.8125C17.0859 10.3594 17.3594 10.0078 17.6094 9.75781C17.875 9.49219 18.0234 9.34375 18.0547 9.3125C18.1328 9.23438 18.2188 9.1875 18.3125 9.17188C18.4219 9.14062 18.5234 9.125 18.6172 9.125C18.8672 9.125 19.0781 9.20312 19.25 9.35938C19.4219 9.51562 19.5078 9.71875 19.5078 9.96875C19.5078 10.25 19.4062 10.4844 19.2031 10.6719C19.1719 10.6875 19.0625 10.7969 18.875 11C18.6875 11.1875 18.4844 11.4531 18.2656 11.7969C18.0469 12.125 17.8438 12.5234 17.6562 12.9922C17.4844 13.4609 17.3984 13.9766 17.3984 14.5391C17.3984 15.4297 17.5938 16.1797 17.9844 16.7891C18.3906 17.3984 18.9141 17.8984 19.5547 18.2891C20.1953 18.6641 20.9062 18.9375 21.6875 19.1094C22.4688 19.2656 23.25 19.3438 24.0312 19.3438C25.4844 19.3438 26.8438 19.1094 28.1094 18.6406C29.3906 18.1719 30.5078 17.5469 31.4609 16.7656C32.4141 15.9844 33.1641 15.0859 33.7109 14.0703C34.2578 13.0547 34.5312 11.9922 34.5312 10.8828C34.5312 9.66406 34.1875 8.55469 33.5 7.55469C32.8125 6.53906 31.8828 5.67969 30.7109 4.97656C29.5391 4.25781 28.1641 3.70313 26.5859 3.3125C25.0234 2.92187 23.3516 2.72656 21.5703 2.72656C20.2266 2.72656 18.8125 2.89062 17.3281 3.21875C15.8594 3.53125 14.4062 4.00781 12.9688 4.64844C11.5312 5.28906 10.1562 6.08594 8.84375 7.03906C7.54688 7.99219 6.40625 9.10938 5.42188 10.3906C4.4375 11.6562 3.64844 13.0781 3.05469 14.6562C2.47656 16.2344 2.1875 17.9609 2.1875 19.8359C2.1875 21.5391 2.42188 23.0781 2.89062 24.4531C3.375 25.8281 4.03906 27.0547 4.88281 28.1328C5.72656 29.1953 6.71094 30.1172 7.83594 30.8984C8.97656 31.6797 10.1953 32.3281 11.4922 32.8438C12.8047 33.3438 14.1719 33.7188 15.5938 33.9688C17.0156 34.2031 18.4297 34.3203 19.8359 34.3203C21.7109 34.3203 23.5156 34.0625 25.25 33.5469C26.9844 33.0156 28.5859 32.3281 30.0547 31.4844C31.5391 30.625 32.8516 29.6641 33.9922 28.6016C35.1328 27.5391 36.0391 26.4688 36.7109 25.3906C36.7891 25.25 36.8984 25.1484 37.0391 25.0859C37.1797 25.0078 37.3281 24.9688 37.4844 24.9688C37.75 24.9688 37.9609 25.0625 38.1172 25.25C38.2734 25.4219 38.3516 25.6172 38.3516 25.8359C38.3516 25.9141 38.3438 25.9922 38.3281 26.0703C38.3125 26.1484 38.2812 26.2266 38.2344 26.3047ZM43.4844 32.4219C43.8125 32.875 44.2344 33.2422 44.75 33.5234C45.2656 33.7891 45.8984 33.9219 46.6484 33.9219C47.4141 33.9219 48.1094 33.7422 48.7344 33.3828C49.3594 33.0078 49.9297 32.5234 50.4453 31.9297C50.9609 31.3359 51.4219 30.6719 51.8281 29.9375C52.2344 29.2031 52.6016 28.4688 52.9297 27.7344C53.0078 27.5625 53.1172 27.4375 53.2578 27.3594C53.3984 27.2656 53.5547 27.2188 53.7266 27.2188C53.9922 27.2188 54.2031 27.3125 54.3594 27.5C54.5312 27.6875 54.6172 27.8906 54.6172 28.1094C54.6172 28.1875 54.6094 28.2578 54.5938 28.3203C54.5781 28.3672 54.5547 28.4219 54.5234 28.4844C53.4453 30.8594 52.2656 32.6484 50.9844 33.8516C49.7188 35.0547 48.2812 35.6719 46.6719 35.7031C45.6406 35.7031 44.75 35.5 44 35.0938C43.25 34.7031 42.6328 34.1953 42.1484 33.5703C41.6641 32.9297 41.3047 32.2109 41.0703 31.4141C40.8359 30.6172 40.7188 29.8203 40.7188 29.0234C40.7188 28.2266 40.8125 27.4922 41 26.8203C41.2031 26.1484 41.4844 25.5625 41.8438 25.0625C42.2188 24.5625 42.6562 24.1719 43.1562 23.8906C43.6719 23.6094 44.2344 23.4688 44.8438 23.4688C45.2031 23.4688 45.5547 23.5469 45.8984 23.7031C46.2578 23.8438 46.5781 24.0547 46.8594 24.3359C47.1406 24.6016 47.3672 24.9297 47.5391 25.3203C47.7109 25.7109 47.7969 26.1562 47.7969 26.6562C47.7969 27.2969 47.6875 27.8984 47.4688 28.4609C47.25 29.0234 46.9453 29.5469 46.5547 30.0312C46.1797 30.5156 45.7266 30.9609 45.1953 31.3672C44.6641 31.7734 44.0938 32.125 43.4844 32.4219ZM42.7812 30.8984C43.2656 30.6953 43.7031 30.4375 44.0938 30.125C44.5 29.8125 44.8438 29.4688 45.125 29.0938C45.4062 28.7188 45.625 28.3281 45.7812 27.9219C45.9375 27.5 46.0156 27.0781 46.0156 26.6562C46.0156 26.1875 45.8984 25.8359 45.6641 25.6016C45.4297 25.3516 45.1562 25.2266 44.8438 25.2266C44.4219 25.2266 44.0625 25.3438 43.7656 25.5781C43.4688 25.8125 43.2266 26.1172 43.0391 26.4922C42.8516 26.8672 42.7109 27.2891 42.6172 27.7578C42.5391 28.2109 42.5 28.6641 42.5 29.1172C42.5 29.3984 42.5234 29.6953 42.5703 30.0078C42.6328 30.3203 42.7031 30.6172 42.7812 30.8984ZM55.4141 25.3672C55.3516 25.7891 55.2734 26.1875 55.1797 26.5625C55.0859 26.9219 54.9922 27.2422 54.8984 27.5234C54.8203 27.7891 54.75 28.0078 54.6875 28.1797C54.625 28.3516 54.5859 28.4453 54.5703 28.4609C54.4141 28.8203 54.1406 29 53.75 29C53.5312 29 53.3281 28.9219 53.1406 28.7656C52.9531 28.5938 52.8594 28.3828 52.8594 28.1328C52.8594 28.0391 52.875 27.9688 52.9062 27.9219C52.9375 27.875 52.9844 27.7812 53.0469 27.6406C53.1094 27.5 53.1875 27.2656 53.2812 26.9375C53.375 26.6094 53.4922 26.1016 53.6328 25.4141C53.3672 25.4141 53.0938 25.4062 52.8125 25.3906C52.5312 25.375 52.2734 25.3203 52.0391 25.2266C51.7891 25.1328 51.5859 24.9844 51.4297 24.7812C51.2734 24.5781 51.1953 24.2969 51.1953 23.9375C51.1953 23.6719 51.2734 23.3125 51.4297 22.8594C51.5703 22.4062 51.7656 21.9609 52.0156 21.5234C52.2656 21.0859 52.5469 20.7109 52.8594 20.3984C53.1719 20.0703 53.4844 19.9062 53.7969 19.9062C54.1562 19.9062 54.4453 20.0391 54.6641 20.3047C54.8984 20.5703 55.0781 20.8984 55.2031 21.2891C55.3281 21.6641 55.4141 22.0625 55.4609 22.4844C55.5234 22.9062 55.5547 23.2734 55.5547 23.5859C55.8203 23.5859 56.0781 23.5859 56.3281 23.5859C56.5938 23.5703 56.8438 23.5625 57.0781 23.5625C57.9688 23.5625 58.6484 23.7578 59.1172 24.1484C59.5859 24.5391 59.8203 25.1797 59.8203 26.0703C59.8203 26.4297 59.7969 26.8047 59.75 27.1953C59.7031 27.5859 59.6484 27.9922 59.5859 28.4141C59.5234 28.8203 59.4688 29.2266 59.4219 29.6328C59.375 30.0391 59.3516 30.4375 59.3516 30.8281C59.3516 31.3906 59.4297 31.8594 59.5859 32.2344C59.7422 32.5938 59.9375 32.8828 60.1719 33.1016C60.4062 33.3203 60.6562 33.4766 60.9219 33.5703C61.1875 33.6484 61.4297 33.6875 61.6484 33.6875C62.3203 33.6875 62.9531 33.4688 63.5469 33.0312C64.1406 32.5938 64.6875 32.0703 65.1875 31.4609C65.6875 30.8359 66.1328 30.1797 66.5234 29.4922C66.9297 28.8047 67.2656 28.2031 67.5312 27.6875C67.6094 27.5469 67.7188 27.4375 67.8594 27.3594C68 27.2812 68.1484 27.2422 68.3047 27.2422C68.5859 27.2422 68.8047 27.3359 68.9609 27.5234C69.1172 27.6953 69.1953 27.8906 69.1953 28.1094C69.1953 28.2656 69.1641 28.4062 69.1016 28.5312C68.7422 29.1719 68.3203 29.8984 67.8359 30.7109C67.3672 31.5078 66.8281 32.2578 66.2188 32.9609C65.6094 33.6641 64.9219 34.2578 64.1562 34.7422C63.4062 35.2266 62.5781 35.4688 61.6719 35.4688C61.1094 35.4688 60.5781 35.3594 60.0781 35.1406C59.5781 34.9375 59.1406 34.6406 58.7656 34.25C58.4062 33.8438 58.1172 33.3516 57.8984 32.7734C57.6797 32.1797 57.5703 31.5156 57.5703 30.7812C57.5703 30 57.6484 29.2266 57.8047 28.4609C57.9609 27.6797 58.0391 26.9375 58.0391 26.2344C58.0391 25.9375 57.9688 25.7188 57.8281 25.5781C57.7031 25.4219 57.4141 25.3438 56.9609 25.3438C56.7422 25.3438 56.5 25.3438 56.2344 25.3438C55.9844 25.3438 55.7109 25.3516 55.4141 25.3672ZM53.8438 23.6328C53.8438 23.5234 53.8359 23.3828 53.8203 23.2109C53.8203 23.0234 53.8047 22.8438 53.7734 22.6719C53.7578 22.5 53.7266 22.3516 53.6797 22.2266C53.6484 22.1016 53.6094 22.0391 53.5625 22.0391C53.5156 22.0391 53.4531 22.1016 53.375 22.2266C53.3125 22.3359 53.2422 22.4766 53.1641 22.6484C53.0859 22.8047 53.0156 22.9766 52.9531 23.1641C52.8906 23.3516 52.8438 23.5078 52.8125 23.6328H53.8438ZM86.5156 11.5391C86.5156 11.7891 86.4297 11.9922 86.2578 12.1484C86.0859 12.2891 85.875 12.3594 85.625 12.3594H73.7422V12.6172C73.7422 13.5703 73.6719 14.5859 73.5312 15.6641C73.3906 16.7422 73.1953 17.8203 72.9453 18.8984C72.7109 19.9609 72.4375 21 72.125 22.0156C71.8281 23.0312 71.5156 23.9688 71.1875 24.8281C70.875 25.6875 70.5625 26.4375 70.25 27.0781C69.9375 27.7031 69.6562 28.1719 69.4062 28.4844C69.6094 29.2031 69.8516 29.875 70.1328 30.5C70.4141 31.1094 70.7266 31.6484 71.0703 32.1172C71.4297 32.5703 71.8125 32.9297 72.2188 33.1953C72.625 33.4609 73.0625 33.5938 73.5312 33.5938C74.0781 33.5938 74.6172 33.3672 75.1484 32.9141C75.6953 32.4453 76.1953 31.8984 76.6484 31.2734C77.1172 30.6328 77.5234 29.9922 77.8672 29.3516C78.2266 28.6953 78.4844 28.1719 78.6406 27.7812C78.7969 27.4062 79.0703 27.2188 79.4609 27.2188C79.7266 27.2188 79.9375 27.3125 80.0938 27.5C80.2656 27.6875 80.3516 27.8906 80.3516 28.1094C80.3516 28.2188 80.3281 28.3281 80.2812 28.4375C80.2344 28.5469 80.1172 28.7969 79.9297 29.1875C79.7578 29.5781 79.5234 30.0312 79.2266 30.5469C78.9453 31.0625 78.6094 31.6094 78.2188 32.1875C77.8438 32.75 77.4141 33.2656 76.9297 33.7344C76.4609 34.2031 75.9531 34.5938 75.4062 34.9062C74.8594 35.2188 74.2812 35.375 73.6719 35.375C72.5938 35.375 71.625 35.0234 70.7656 34.3203C69.9062 33.6172 69.1719 32.6328 68.5625 31.3672C67.9688 30.1016 67.5156 28.6016 67.2031 26.8672C66.8906 25.1328 66.7344 23.2344 66.7344 21.1719C66.7344 20.6562 66.7422 20.0547 66.7578 19.3672C66.7734 18.6641 66.8047 17.9297 66.8516 17.1641C66.8984 16.3828 66.9688 15.5859 67.0625 14.7734C67.1562 13.9453 67.2812 13.1406 67.4375 12.3594H59.0234C58.7734 12.3594 58.5625 12.2891 58.3906 12.1484C58.2188 11.9922 58.1328 11.7891 58.1328 11.5391C58.1328 11.2891 58.2188 11.0938 58.3906 10.9531C58.5625 10.7969 58.7734 10.7188 59.0234 10.7188H67.8359C67.9922 10.1562 68.1719 9.64062 68.375 9.17188C68.5938 8.70312 68.8359 8.29688 69.1016 7.95312C69.3828 7.60938 69.6875 7.34375 70.0156 7.15625C70.3594 6.95312 70.7344 6.85156 71.1406 6.85156C71.5312 6.85156 71.8672 6.95312 72.1484 7.15625C72.4453 7.34375 72.6953 7.60938 72.8984 7.95312C73.1016 8.29688 73.2578 8.70312 73.3672 9.17188C73.4922 9.64062 73.5859 10.1562 73.6484 10.7188H85.625C85.875 10.7188 86.0859 10.7969 86.2578 10.9531C86.4297 11.0938 86.5156 11.2891 86.5156 11.5391ZM68.8672 26.1406C69.3359 25.1094 69.7578 24 70.1328 22.8125C70.5234 21.6094 70.8516 20.3984 71.1172 19.1797C71.3984 17.9609 71.6094 16.7656 71.75 15.5938C71.9062 14.4219 71.9844 13.3438 71.9844 12.3594H69.2188C69 13.3281 68.8203 14.5312 68.6797 15.9688C68.5547 17.3906 68.4922 19.125 68.4922 21.1719C68.4922 22.3125 68.5234 23.2734 68.5859 24.0547C68.6484 24.8203 68.7422 25.5156 68.8672 26.1406ZM71.0469 8.60938C70.9062 8.60938 70.7031 8.76562 70.4375 9.07812C70.1719 9.375 69.9062 9.92188 69.6406 10.7188H71.8906C71.8125 10.0625 71.6953 9.54688 71.5391 9.17188C71.3984 8.79688 71.2344 8.60938 71.0469 8.60938ZM69.2422 27.8281V27.8516V27.8281ZM82.5547 16.6016C82.5547 17.1953 82.3438 17.7031 81.9219 18.125C81.5156 18.5312 81.0156 18.7344 80.4219 18.7344C79.8281 18.7344 79.3203 18.5312 78.8984 18.125C78.4922 17.7031 78.2891 17.1953 78.2891 16.6016C78.2891 16.3047 78.3438 16.0312 78.4531 15.7812C78.5625 15.5156 78.7109 15.2891 78.8984 15.1016C79.1016 14.8984 79.3281 14.7422 79.5781 14.6328C79.8438 14.5234 80.125 14.4688 80.4219 14.4688C80.7188 14.4688 80.9922 14.5234 81.2422 14.6328C81.5078 14.7422 81.7344 14.8984 81.9219 15.1016C82.125 15.2891 82.2812 15.5156 82.3906 15.7812C82.5 16.0312 82.5547 16.3047 82.5547 16.6016ZM78.7578 30.3359C78.7578 28.0859 78.8984 25.8438 79.1797 23.6094C79.2109 23.3906 79.3047 23.2031 79.4609 23.0469C79.6328 22.875 79.8516 22.7891 80.1172 22.7891C80.3516 22.7891 80.5469 22.8828 80.7031 23.0703C80.8594 23.2422 80.9375 23.4453 80.9375 23.6797C80.9375 23.7734 80.9141 24.0547 80.8672 24.5234C80.8359 24.9922 80.7891 25.5547 80.7266 26.2109C80.6797 26.8516 80.6328 27.5391 80.5859 28.2734C80.5547 28.9922 80.5391 29.6562 80.5391 30.2656C80.5391 31.0938 80.6172 31.7656 80.7734 32.2812C80.9453 32.7812 81.1562 33.1719 81.4062 33.4531C81.6719 33.7344 81.9453 33.9219 82.2266 34.0156C82.5234 34.1094 82.8047 34.1562 83.0703 34.1562C83.5078 34.1562 83.9609 34 84.4297 33.6875C84.8984 33.375 85.375 32.9375 85.8594 32.375C86.3594 31.8125 86.8594 31.1406 87.3594 30.3594C87.8594 29.5625 88.3516 28.6797 88.8359 27.7109C88.9141 27.5547 89.0234 27.4375 89.1641 27.3594C89.3047 27.2656 89.4609 27.2188 89.6328 27.2188C89.8828 27.2188 90.0859 27.3125 90.2422 27.5C90.4141 27.6875 90.5 27.8906 90.5 28.1094C90.5 28.2656 90.4688 28.3984 90.4062 28.5078C90.2188 28.8672 89.9844 29.3047 89.7031 29.8203C89.4219 30.3359 89.1016 30.8672 88.7422 31.4141C88.3828 31.9609 87.9844 32.5078 87.5469 33.0547C87.125 33.5859 86.6719 34.0703 86.1875 34.5078C85.7031 34.9297 85.1953 35.2734 84.6641 35.5391C84.1328 35.8047 83.5938 35.9375 83.0469 35.9375C82.3438 35.9375 81.7266 35.7891 81.1953 35.4922C80.6641 35.1953 80.2109 34.7969 79.8359 34.2969C79.4766 33.7969 79.2031 33.2109 79.0156 32.5391C78.8438 31.8516 78.7578 31.1172 78.7578 30.3359ZM81.2422 16.6016C81.2422 16.3828 81.1562 16.1953 80.9844 16.0391C80.8281 15.8672 80.6406 15.7812 80.4219 15.7812C80.2031 15.7812 80.0156 15.8672 79.8594 16.0391C79.7031 16.1953 79.625 16.3828 79.625 16.6016C79.625 16.8203 79.7031 17.0078 79.8594 17.1641C80.0156 17.3203 80.2031 17.3984 80.4219 17.3984C80.6406 17.3984 80.8281 17.3203 80.9844 17.1641C81.1562 17.0078 81.2422 16.8203 81.2422 16.6016ZM90.6406 36.1484C91.7969 35.6328 92.8438 35.0391 93.7812 34.3672C94.7344 33.6953 95.5781 32.9922 96.3125 32.2578C97.0625 31.5078 97.6953 30.75 98.2109 29.9844C98.7422 29.2031 99.1641 28.4609 99.4766 27.7578C99.4922 27.7266 99.5 27.7031 99.5 27.6875C99.5156 27.6562 99.5391 27.625 99.5703 27.5938C99.6328 26.2812 99.75 24.9531 99.9219 23.6094C99.9531 23.3906 100.047 23.2031 100.203 23.0469C100.375 22.875 100.594 22.7891 100.859 22.7891C101.094 22.7891 101.289 22.8828 101.445 23.0703C101.602 23.2422 101.68 23.4453 101.68 23.6797C101.68 23.7734 101.656 24.0547 101.609 24.5234C101.578 24.9922 101.531 25.5547 101.469 26.2109C101.422 26.8516 101.375 27.5391 101.328 28.2734C101.297 28.9922 101.281 29.6562 101.281 30.2656C101.281 31.0938 101.359 31.7656 101.516 32.2812C101.688 32.7812 101.898 33.1719 102.148 33.4531C102.414 33.7344 102.688 33.9219 102.969 34.0156C103.266 34.1094 103.547 34.1562 103.812 34.1562C104.25 34.1562 104.703 34 105.172 33.6875C105.641 33.375 106.117 32.9375 106.602 32.375C107.102 31.8125 107.602 31.1406 108.102 30.3594C108.602 29.5625 109.094 28.6797 109.578 27.7109C109.656 27.5547 109.766 27.4375 109.906 27.3594C110.047 27.2656 110.203 27.2188 110.375 27.2188C110.625 27.2188 110.828 27.3125 110.984 27.5C111.156 27.6875 111.242 27.8906 111.242 28.1094C111.242 28.2656 111.211 28.3984 111.148 28.5078C110.961 28.8672 110.727 29.3047 110.445 29.8203C110.164 30.3359 109.844 30.8672 109.484 31.4141C109.125 31.9609 108.727 32.5078 108.289 33.0547C107.867 33.5859 107.414 34.0703 106.93 34.5078C106.445 34.9297 105.938 35.2734 105.406 35.5391C104.875 35.8047 104.336 35.9375 103.789 35.9375C103.148 35.9375 102.578 35.8125 102.078 35.5625C101.578 35.3281 101.148 35 100.789 34.5781C100.445 34.1562 100.164 33.6562 99.9453 33.0781C99.7422 32.5 99.6094 31.875 99.5469 31.2031C98.7344 32.375 97.6875 33.5078 96.4062 34.6016C95.1406 35.6953 93.5703 36.6797 91.6953 37.5547C92.5391 38.4297 93.2734 39.3984 93.8984 40.4609C94.5234 41.5391 95.0391 42.6562 95.4453 43.8125C95.8672 44.9688 96.1797 46.1328 96.3828 47.3047C96.6016 48.4922 96.7109 49.625 96.7109 50.7031C96.7109 51.6875 96.6172 52.6094 96.4297 53.4688C96.2578 54.3438 95.9922 55.1016 95.6328 55.7422C95.2891 56.3828 94.8672 56.8828 94.3672 57.2422C93.8672 57.6172 93.2969 57.8047 92.6562 57.8047C91.7188 57.8047 90.9922 57.4531 90.4766 56.75C89.9609 56.0625 89.5781 55.1016 89.3281 53.8672C89.0938 52.6484 88.9531 51.2031 88.9062 49.5312C88.875 47.875 88.8594 46.0703 88.8594 44.1172C88.8594 43.1484 88.8594 42.0156 88.8594 40.7188C88.8594 39.4375 88.8594 38.0547 88.8594 36.5703C88.875 35.1016 88.8828 33.5625 88.8828 31.9531C88.8984 30.3281 88.9141 28.7031 88.9297 27.0781C88.9453 25.4531 88.9609 23.8594 88.9766 22.2969C88.9922 20.7188 89.0156 19.2266 89.0469 17.8203C89.0938 15.1328 89.1875 12.7344 89.3281 10.625C89.4688 8.51562 89.6953 6.73438 90.0078 5.28125C90.3203 3.82812 90.7422 2.72656 91.2734 1.97656C91.8203 1.21094 92.5078 0.828125 93.3359 0.828125C93.9922 0.828125 94.5469 1.01562 95 1.39062C95.4531 1.75 95.8203 2.24219 96.1016 2.86719C96.3828 3.47656 96.5859 4.19531 96.7109 5.02344C96.8359 5.85156 96.8984 6.71875 96.8984 7.625C96.8984 9.53125 96.7344 11.375 96.4062 13.1562C96.0781 14.9375 95.6328 16.6641 95.0703 18.3359C94.5078 20.0078 93.8438 21.6406 93.0781 23.2344C92.3281 24.8281 91.5234 26.3984 90.6641 27.9453C90.6641 28.5859 90.6641 29.2812 90.6641 30.0312C90.6641 30.7656 90.6641 31.5078 90.6641 32.2578C90.6641 32.9922 90.6562 33.7031 90.6406 34.3906C90.6406 35.0625 90.6406 35.6484 90.6406 36.1484ZM90.7109 24.3359C91.3516 23.1328 91.9375 21.8672 92.4688 20.5391C93.0156 19.1953 93.4844 17.8125 93.875 16.3906C94.2656 14.9688 94.5703 13.5156 94.7891 12.0312C95.0078 10.5469 95.1172 9.05469 95.1172 7.55469C95.1172 6.80469 95.0781 6.125 95 5.51562C94.9375 4.90625 94.8281 4.39062 94.6719 3.96875C94.5312 3.53125 94.3438 3.19531 94.1094 2.96094C93.8906 2.71094 93.6328 2.58594 93.3359 2.58594C93.0234 2.58594 92.75 2.77344 92.5156 3.14844C92.2812 3.52344 92.0781 4.02344 91.9062 4.64844C91.7344 5.27344 91.5859 5.99219 91.4609 6.80469C91.3516 7.61719 91.2578 8.46875 91.1797 9.35938C91.1016 10.2344 91.0391 11.1172 90.9922 12.0078C90.9453 12.8828 90.9062 13.7109 90.875 14.4922C90.8594 15.2578 90.8438 15.9375 90.8281 16.5312C90.8281 17.125 90.8281 17.5703 90.8281 17.8672C90.8125 18.4922 90.7969 19.0469 90.7812 19.5312C90.7812 20.0156 90.7734 20.4922 90.7578 20.9609C90.7422 21.4297 90.7266 21.9297 90.7109 22.4609C90.7109 22.9922 90.7109 23.6172 90.7109 24.3359ZM90.6406 39.0312C90.6406 40.0156 90.6328 40.9297 90.6172 41.7734C90.6172 42.6328 90.6172 43.4141 90.6172 44.1172C90.6172 45.5703 90.625 47.0078 90.6406 48.4297C90.6562 49.8516 90.7266 51.125 90.8516 52.25C90.9922 53.3906 91.1953 54.3047 91.4609 54.9922C91.7422 55.6953 92.1406 56.0469 92.6562 56.0469C93.125 56.0469 93.5078 55.8359 93.8047 55.4141C94.1016 54.9922 94.3281 54.4922 94.4844 53.9141C94.6562 53.3359 94.7734 52.7422 94.8359 52.1328C94.8984 51.5391 94.9297 51.0547 94.9297 50.6797C94.9297 49.7266 94.8359 48.7266 94.6484 47.6797C94.4766 46.6328 94.2031 45.5938 93.8281 44.5625C93.4688 43.5469 93.0234 42.5625 92.4922 41.6094C91.9609 40.6562 91.3438 39.7969 90.6406 39.0312ZM103.297 16.6016C103.297 17.1953 103.086 17.7031 102.664 18.125C102.258 18.5312 101.758 18.7344 101.164 18.7344C100.57 18.7344 100.062 18.5312 99.6406 18.125C99.2344 17.7031 99.0312 17.1953 99.0312 16.6016C99.0312 16.3047 99.0859 16.0312 99.1953 15.7812C99.3047 15.5156 99.4531 15.2891 99.6406 15.1016C99.8438 14.8984 100.07 14.7422 100.32 14.6328C100.586 14.5234 100.867 14.4688 101.164 14.4688C101.461 14.4688 101.734 14.5234 101.984 14.6328C102.25 14.7422 102.477 14.8984 102.664 15.1016C102.867 15.2891 103.023 15.5156 103.133 15.7812C103.242 16.0312 103.297 16.3047 103.297 16.6016ZM101.984 16.6016C101.984 16.3828 101.898 16.1953 101.727 16.0391C101.57 15.8672 101.383 15.7812 101.164 15.7812C100.945 15.7812 100.758 15.8672 100.602 16.0391C100.445 16.1953 100.367 16.3828 100.367 16.6016C100.367 16.8203 100.445 17.0078 100.602 17.1641C100.758 17.3203 100.945 17.3984 101.164 17.3984C101.383 17.3984 101.57 17.3203 101.727 17.1641C101.898 17.0078 101.984 16.8203 101.984 16.6016ZM124.906 28.5078C124.812 28.6797 124.648 28.9922 124.414 29.4453C124.195 29.8984 123.891 30.4141 123.5 30.9922C123.125 31.5547 122.672 32.1406 122.141 32.75C121.609 33.3594 121 33.9219 120.312 34.4375C119.625 34.9375 118.852 35.3516 117.992 35.6797C117.148 36.0078 116.227 36.1719 115.227 36.1719C114.336 36.1719 113.547 36.0078 112.859 35.6797C112.172 35.3672 111.586 34.9219 111.102 34.3438C110.617 33.75 110.25 33.0547 110 32.2578C109.75 31.4609 109.625 30.5781 109.625 29.6094C109.625 28.6719 109.758 27.7969 110.023 26.9844C110.289 26.1562 110.648 25.4375 111.102 24.8281C111.57 24.2188 112.109 23.7422 112.719 23.3984C113.328 23.0391 113.977 22.8594 114.664 22.8594C115.18 22.8594 115.648 22.9531 116.07 23.1406C116.492 23.3125 116.844 23.5469 117.125 23.8438C117.422 24.1406 117.648 24.4688 117.805 24.8281C117.977 25.1875 118.062 25.5469 118.062 25.9062C118.062 26.25 118.016 26.5703 117.922 26.8672C117.844 27.1641 117.734 27.4297 117.594 27.6641C117.469 27.8828 117.32 28.0625 117.148 28.2031C116.977 28.3281 116.805 28.3906 116.633 28.3906C116.367 28.3906 116.148 28.3047 115.977 28.1328C115.82 27.9609 115.742 27.75 115.742 27.5C115.742 27.375 115.766 27.2656 115.812 27.1719C115.875 27.0781 115.938 26.9844 116 26.8906C116.078 26.7812 116.141 26.6562 116.188 26.5156C116.25 26.3594 116.281 26.1641 116.281 25.9297C116.281 25.6016 116.125 25.3047 115.812 25.0391C115.516 24.7734 115.133 24.6406 114.664 24.6406C114.227 24.6406 113.805 24.7734 113.398 25.0391C113.008 25.3047 112.664 25.6641 112.367 26.1172C112.07 26.5547 111.828 27.0781 111.641 27.6875C111.469 28.2812 111.383 28.9141 111.383 29.5859C111.383 30.2266 111.461 30.8359 111.617 31.4141C111.773 31.9922 112.008 32.5078 112.32 32.9609C112.633 33.3984 113.023 33.75 113.492 34.0156C113.977 34.2812 114.547 34.4141 115.203 34.4141C116.047 34.4141 116.828 34.2656 117.547 33.9688C118.266 33.6562 118.922 33.2656 119.516 32.7969C120.109 32.3281 120.633 31.8203 121.086 31.2734C121.539 30.7109 121.922 30.1875 122.234 29.7031C122.562 29.2031 122.812 28.7734 122.984 28.4141C123.172 28.0391 123.281 27.8047 123.312 27.7109C123.375 27.5547 123.477 27.4375 123.617 27.3594C123.773 27.2656 123.938 27.2188 124.109 27.2188C124.375 27.2188 124.586 27.3125 124.742 27.5C124.914 27.6875 125 27.8984 125 28.1328C125 28.2266 124.969 28.3516 124.906 28.5078ZM141.43 28.4609C141.367 28.5859 141.234 28.8516 141.031 29.2578C140.844 29.6484 140.594 30.1016 140.281 30.6172C139.984 31.1328 139.633 31.6719 139.227 32.2344C138.82 32.7969 138.367 33.3125 137.867 33.7812C137.367 34.25 136.828 34.6406 136.25 34.9531C135.672 35.25 135.062 35.3984 134.422 35.3984C133.516 35.3984 132.75 35.1094 132.125 34.5312C131.516 33.9531 131.07 33.2266 130.789 32.3516C130.258 33.2422 129.625 33.9531 128.891 34.4844C128.156 35 127.422 35.2578 126.688 35.2578C126.109 35.2578 125.586 35.1562 125.117 34.9531C124.648 34.7344 124.25 34.4375 123.922 34.0625C123.594 33.6719 123.336 33.2188 123.148 32.7031C122.977 32.1875 122.891 31.625 122.891 31.0156C122.891 29.7969 123.094 28.7266 123.5 27.8047C123.922 26.8672 124.453 26.0859 125.094 25.4609C125.734 24.8359 126.438 24.3672 127.203 24.0547C127.984 23.7422 128.734 23.5859 129.453 23.5859C129.938 23.5859 130.383 23.6562 130.789 23.7969C131.195 23.9219 131.539 24.0625 131.82 24.2188C132.117 24.375 132.344 24.5234 132.5 24.6641C132.656 24.7891 132.742 24.8594 132.758 24.875C132.93 25.0781 133.016 25.2891 133.016 25.5078C133.016 25.7422 132.93 25.9531 132.758 26.1406C132.586 26.3125 132.383 26.3984 132.148 26.3984C131.898 26.3984 131.688 26.3125 131.516 26.1406C131.484 26.1094 131.414 26.0547 131.305 25.9766C131.195 25.8828 131.047 25.7891 130.859 25.6953C130.672 25.6016 130.445 25.5234 130.18 25.4609C129.93 25.3828 129.641 25.3438 129.312 25.3438C128.828 25.3438 128.312 25.4531 127.766 25.6719C127.219 25.8906 126.719 26.2344 126.266 26.7031C125.812 27.1562 125.43 27.7344 125.117 28.4375C124.82 29.125 124.672 29.9453 124.672 30.8984C124.672 31.1953 124.703 31.5 124.766 31.8125C124.828 32.1094 124.938 32.3828 125.094 32.6328C125.25 32.8828 125.461 33.0859 125.727 33.2422C125.992 33.3984 126.32 33.4766 126.711 33.4766C126.992 33.4766 127.312 33.3828 127.672 33.1953C128.047 33.0078 128.398 32.7188 128.727 32.3281C129.07 31.9375 129.375 31.4453 129.641 30.8516C129.922 30.2578 130.117 29.5547 130.227 28.7422C130.258 28.5234 130.359 28.3438 130.531 28.2031C130.703 28.0469 130.906 27.9688 131.141 27.9688C131.359 27.9688 131.547 28.0547 131.703 28.2266C131.875 28.3984 131.969 28.5938 131.984 28.8125C132 29.1094 132.031 29.5312 132.078 30.0781C132.125 30.6094 132.227 31.1406 132.383 31.6719C132.555 32.2031 132.805 32.6641 133.133 33.0547C133.461 33.4453 133.914 33.6406 134.492 33.6406C134.867 33.6406 135.234 33.5391 135.594 33.3359C135.969 33.1328 136.328 32.8672 136.672 32.5391C137.031 32.1953 137.367 31.8125 137.68 31.3906C138.008 30.9531 138.305 30.5156 138.57 30.0781C138.836 29.6406 139.07 29.2188 139.273 28.8125C139.477 28.4062 139.648 28.0547 139.789 27.7578C139.867 27.5859 139.977 27.4531 140.117 27.3594C140.273 27.2656 140.438 27.2188 140.609 27.2188C140.875 27.2188 141.086 27.3203 141.242 27.5234C141.414 27.7109 141.5 27.9141 141.5 28.1328C141.5 28.2422 141.477 28.3516 141.43 28.4609ZM158.797 11.5391C158.797 11.7891 158.711 11.9922 158.539 12.1484C158.367 12.2891 158.156 12.3594 157.906 12.3594H146.023V12.6172C146.023 13.5703 145.953 14.5859 145.812 15.6641C145.672 16.7422 145.477 17.8203 145.227 18.8984C144.992 19.9609 144.719 21 144.406 22.0156C144.109 23.0312 143.797 23.9688 143.469 24.8281C143.156 25.6875 142.844 26.4375 142.531 27.0781C142.219 27.7031 141.938 28.1719 141.688 28.4844C141.891 29.2031 142.133 29.875 142.414 30.5C142.695 31.1094 143.008 31.6484 143.352 32.1172C143.711 32.5703 144.094 32.9297 144.5 33.1953C144.906 33.4609 145.344 33.5938 145.812 33.5938C146.359 33.5938 146.898 33.3672 147.43 32.9141C147.977 32.4453 148.477 31.8984 148.93 31.2734C149.398 30.6328 149.805 29.9922 150.148 29.3516C150.508 28.6953 150.766 28.1719 150.922 27.7812C151.078 27.4062 151.352 27.2188 151.742 27.2188C152.008 27.2188 152.219 27.3125 152.375 27.5C152.547 27.6875 152.633 27.8906 152.633 28.1094C152.633 28.2188 152.609 28.3281 152.562 28.4375C152.516 28.5469 152.398 28.7969 152.211 29.1875C152.039 29.5781 151.805 30.0312 151.508 30.5469C151.227 31.0625 150.891 31.6094 150.5 32.1875C150.125 32.75 149.695 33.2656 149.211 33.7344C148.742 34.2031 148.234 34.5938 147.688 34.9062C147.141 35.2188 146.562 35.375 145.953 35.375C144.875 35.375 143.906 35.0234 143.047 34.3203C142.188 33.6172 141.453 32.6328 140.844 31.3672C140.25 30.1016 139.797 28.6016 139.484 26.8672C139.172 25.1328 139.016 23.2344 139.016 21.1719C139.016 20.6562 139.023 20.0547 139.039 19.3672C139.055 18.6641 139.086 17.9297 139.133 17.1641C139.18 16.3828 139.25 15.5859 139.344 14.7734C139.438 13.9453 139.562 13.1406 139.719 12.3594H131.305C131.055 12.3594 130.844 12.2891 130.672 12.1484C130.5 11.9922 130.414 11.7891 130.414 11.5391C130.414 11.2891 130.5 11.0938 130.672 10.9531C130.844 10.7969 131.055 10.7188 131.305 10.7188H140.117C140.273 10.1562 140.453 9.64062 140.656 9.17188C140.875 8.70312 141.117 8.29688 141.383 7.95312C141.664 7.60938 141.969 7.34375 142.297 7.15625C142.641 6.95312 143.016 6.85156 143.422 6.85156C143.812 6.85156 144.148 6.95312 144.43 7.15625C144.727 7.34375 144.977 7.60938 145.18 7.95312C145.383 8.29688 145.539 8.70312 145.648 9.17188C145.773 9.64062 145.867 10.1562 145.93 10.7188H157.906C158.156 10.7188 158.367 10.7969 158.539 10.9531C158.711 11.0938 158.797 11.2891 158.797 11.5391ZM141.148 26.1406C141.617 25.1094 142.039 24 142.414 22.8125C142.805 21.6094 143.133 20.3984 143.398 19.1797C143.68 17.9609 143.891 16.7656 144.031 15.5938C144.188 14.4219 144.266 13.3438 144.266 12.3594H141.5C141.281 13.3281 141.102 14.5312 140.961 15.9688C140.836 17.3906 140.773 19.125 140.773 21.1719C140.773 22.3125 140.805 23.2734 140.867 24.0547C140.93 24.8203 141.023 25.5156 141.148 26.1406ZM143.328 8.60938C143.188 8.60938 142.984 8.76562 142.719 9.07812C142.453 9.375 142.188 9.92188 141.922 10.7188H144.172C144.094 10.0625 143.977 9.54688 143.82 9.17188C143.68 8.79688 143.516 8.60938 143.328 8.60938ZM141.523 27.8281V27.8516V27.8281ZM153.828 32.4219C154.156 32.875 154.578 33.2422 155.094 33.5234C155.609 33.7891 156.242 33.9219 156.992 33.9219C157.758 33.9219 158.453 33.7422 159.078 33.3828C159.703 33.0078 160.273 32.5234 160.789 31.9297C161.305 31.3359 161.766 30.6719 162.172 29.9375C162.578 29.2031 162.945 28.4688 163.273 27.7344C163.352 27.5625 163.461 27.4375 163.602 27.3594C163.742 27.2656 163.898 27.2188 164.07 27.2188C164.336 27.2188 164.547 27.3125 164.703 27.5C164.875 27.6875 164.961 27.8906 164.961 28.1094C164.961 28.1875 164.953 28.2578 164.938 28.3203C164.922 28.3672 164.898 28.4219 164.867 28.4844C163.789 30.8594 162.609 32.6484 161.328 33.8516C160.062 35.0547 158.625 35.6719 157.016 35.7031C155.984 35.7031 155.094 35.5 154.344 35.0938C153.594 34.7031 152.977 34.1953 152.492 33.5703C152.008 32.9297 151.648 32.2109 151.414 31.4141C151.18 30.6172 151.062 29.8203 151.062 29.0234C151.062 28.2266 151.156 27.4922 151.344 26.8203C151.547 26.1484 151.828 25.5625 152.188 25.0625C152.562 24.5625 153 24.1719 153.5 23.8906C154.016 23.6094 154.578 23.4688 155.188 23.4688C155.547 23.4688 155.898 23.5469 156.242 23.7031C156.602 23.8438 156.922 24.0547 157.203 24.3359C157.484 24.6016 157.711 24.9297 157.883 25.3203C158.055 25.7109 158.141 26.1562 158.141 26.6562C158.141 27.2969 158.031 27.8984 157.812 28.4609C157.594 29.0234 157.289 29.5469 156.898 30.0312C156.523 30.5156 156.07 30.9609 155.539 31.3672C155.008 31.7734 154.438 32.125 153.828 32.4219ZM153.125 30.8984C153.609 30.6953 154.047 30.4375 154.438 30.125C154.844 29.8125 155.188 29.4688 155.469 29.0938C155.75 28.7188 155.969 28.3281 156.125 27.9219C156.281 27.5 156.359 27.0781 156.359 26.6562C156.359 26.1875 156.242 25.8359 156.008 25.6016C155.773 25.3516 155.5 25.2266 155.188 25.2266C154.766 25.2266 154.406 25.3438 154.109 25.5781C153.812 25.8125 153.57 26.1172 153.383 26.4922C153.195 26.8672 153.055 27.2891 152.961 27.7578C152.883 28.2109 152.844 28.6641 152.844 29.1172C152.844 29.3984 152.867 29.6953 152.914 30.0078C152.977 30.3203 153.047 30.6172 153.125 30.8984ZM184.648 32.4219C184.258 32.4219 183.914 32.3906 183.617 32.3281C183.383 32.7969 183.102 33.2344 182.773 33.6406C182.445 34.0312 182.062 34.375 181.625 34.6719C181.203 34.9688 180.727 35.2031 180.195 35.375C179.664 35.5469 179.086 35.6328 178.461 35.6328C177.727 35.6328 177.055 35.5 176.445 35.2344C175.836 34.9844 175.305 34.6328 174.852 34.1797C174.398 33.7109 174.047 33.1562 173.797 32.5156C173.547 31.8594 173.422 31.1406 173.422 30.3594C173.422 29.3594 173.602 28.4922 173.961 27.7578C174.32 27.0078 174.734 26.3906 175.203 25.9062C175.672 25.4062 176.141 25.0391 176.609 24.8047C177.078 24.5547 177.43 24.4297 177.664 24.4297C177.93 24.4297 178.125 24.5 178.25 24.6406C178.391 24.7812 178.461 24.9688 178.461 25.2031C178.461 25.4688 178.375 25.6719 178.203 25.8125C178.047 25.9375 177.844 26.0625 177.594 26.1875C177.344 26.3125 177.078 26.4922 176.797 26.7266C176.516 26.9453 176.25 27.2266 176 27.5703C175.766 27.9141 175.57 28.3203 175.414 28.7891C175.258 29.2578 175.18 29.7812 175.18 30.3594C175.18 30.875 175.258 31.3594 175.414 31.8125C175.57 32.25 175.797 32.6328 176.094 32.9609C176.391 33.2734 176.742 33.5234 177.148 33.7109C177.555 33.8828 178.008 33.9688 178.508 33.9688C179.398 33.9688 180.133 33.7656 180.711 33.3594C181.305 32.9375 181.758 32.4062 182.07 31.7656C181.148 31.2812 180.391 30.5938 179.797 29.7031C179.203 28.8125 178.906 27.8125 178.906 26.7031C178.906 25.8125 179.117 25.0859 179.539 24.5234C179.977 23.9609 180.547 23.6797 181.25 23.6797C181.672 23.6797 182.07 23.7812 182.445 23.9844C182.82 24.1875 183.148 24.5078 183.43 24.9453C183.727 25.3828 183.961 25.9453 184.133 26.6328C184.305 27.3203 184.391 28.1406 184.391 29.0938C184.391 29.5938 184.328 30.1172 184.203 30.6641C184.297 30.6797 184.391 30.6875 184.484 30.6875C184.578 30.6875 184.68 30.6875 184.789 30.6875C185.32 30.6875 185.797 30.625 186.219 30.5C186.641 30.375 187.023 30.1875 187.367 29.9375C187.711 29.6875 188.016 29.3672 188.281 28.9766C188.562 28.5859 188.828 28.1328 189.078 27.6172C189.125 27.5234 189.227 27.4375 189.383 27.3594C189.539 27.2656 189.695 27.2188 189.852 27.2188C190.055 27.2188 190.242 27.3047 190.414 27.4766C190.602 27.6328 190.695 27.8438 190.695 28.1094C190.695 28.2344 190.664 28.375 190.602 28.5312C190.539 28.6719 190.477 28.8047 190.414 28.9297C190.148 29.3984 189.836 29.8516 189.477 30.2891C189.133 30.7109 188.719 31.0859 188.234 31.4141C187.766 31.7266 187.234 31.9766 186.641 32.1641C186.047 32.3516 185.383 32.4375 184.648 32.4219ZM180.641 26.5156C180.641 26.8125 180.68 27.125 180.758 27.4531C180.836 27.7812 180.953 28.1094 181.109 28.4375C181.281 28.75 181.484 29.0547 181.719 29.3516C181.969 29.6328 182.258 29.875 182.586 30.0781C182.633 29.75 182.656 29.4297 182.656 29.1172C182.656 28.6953 182.625 28.2656 182.562 27.8281C182.5 27.3906 182.406 26.9922 182.281 26.6328C182.172 26.2578 182.031 25.9609 181.859 25.7422C181.688 25.5078 181.484 25.3906 181.25 25.3906C181.156 25.3906 181.031 25.4609 180.875 25.6016C180.719 25.7422 180.641 26.0469 180.641 26.5156ZM190.859 36.1484C192.016 35.6328 193.062 35.0391 194 34.3672C194.953 33.6953 195.797 32.9922 196.531 32.2578C197.281 31.5078 197.914 30.75 198.43 29.9844C198.961 29.2031 199.383 28.4609 199.695 27.7578C199.836 27.4141 200.102 27.2422 200.492 27.2422C200.758 27.2422 200.969 27.3359 201.125 27.5234C201.297 27.6953 201.383 27.8906 201.383 28.1094C201.383 28.2344 201.359 28.3516 201.312 28.4609C200.969 29.2266 200.531 30.0234 200 30.8516C199.469 31.6641 198.82 32.4688 198.055 33.2656C197.305 34.0469 196.422 34.8047 195.406 35.5391C194.391 36.2734 193.227 36.9453 191.914 37.5547C192.758 38.4297 193.492 39.3984 194.117 40.4609C194.742 41.5391 195.258 42.6562 195.664 43.8125C196.086 44.9688 196.398 46.1328 196.602 47.3047C196.82 48.4922 196.93 49.625 196.93 50.7031C196.93 51.6875 196.836 52.6094 196.648 53.4688C196.477 54.3438 196.211 55.1016 195.852 55.7422C195.508 56.3828 195.086 56.8828 194.586 57.2422C194.086 57.6172 193.516 57.8047 192.875 57.8047C191.938 57.8047 191.211 57.4531 190.695 56.75C190.18 56.0625 189.797 55.1016 189.547 53.8672C189.312 52.6484 189.172 51.2031 189.125 49.5312C189.094 47.875 189.078 46.0703 189.078 44.1172C189.078 43.1484 189.078 42.0156 189.078 40.7188C189.078 39.4375 189.078 38.0547 189.078 36.5703C189.094 35.1016 189.102 33.5625 189.102 31.9531C189.117 30.3281 189.133 28.7031 189.148 27.0781C189.164 25.4531 189.18 23.8594 189.195 22.2969C189.211 20.7188 189.234 19.2266 189.266 17.8203C189.312 15.1328 189.406 12.7344 189.547 10.625C189.688 8.51562 189.914 6.73438 190.227 5.28125C190.539 3.82812 190.961 2.72656 191.492 1.97656C192.039 1.21094 192.727 0.828125 193.555 0.828125C194.211 0.828125 194.766 1.01562 195.219 1.39062C195.672 1.75 196.039 2.24219 196.32 2.86719C196.602 3.47656 196.805 4.19531 196.93 5.02344C197.055 5.85156 197.117 6.71875 197.117 7.625C197.117 9.53125 196.953 11.375 196.625 13.1562C196.297 14.9375 195.852 16.6641 195.289 18.3359C194.727 20.0078 194.062 21.6406 193.297 23.2344C192.547 24.8281 191.742 26.3984 190.883 27.9453C190.883 28.5859 190.883 29.2812 190.883 30.0312C190.883 30.7656 190.883 31.5078 190.883 32.2578C190.883 32.9922 190.875 33.7031 190.859 34.3906C190.859 35.0625 190.859 35.6484 190.859 36.1484ZM190.93 24.3359C191.57 23.1328 192.156 21.8672 192.688 20.5391C193.234 19.1953 193.703 17.8125 194.094 16.3906C194.484 14.9688 194.789 13.5156 195.008 12.0312C195.227 10.5469 195.336 9.05469 195.336 7.55469C195.336 6.80469 195.297 6.125 195.219 5.51562C195.156 4.90625 195.047 4.39062 194.891 3.96875C194.75 3.53125 194.562 3.19531 194.328 2.96094C194.109 2.71094 193.852 2.58594 193.555 2.58594C193.242 2.58594 192.969 2.77344 192.734 3.14844C192.5 3.52344 192.297 4.02344 192.125 4.64844C191.953 5.27344 191.805 5.99219 191.68 6.80469C191.57 7.61719 191.477 8.46875 191.398 9.35938C191.32 10.2344 191.258 11.1172 191.211 12.0078C191.164 12.8828 191.125 13.7109 191.094 14.4922C191.078 15.2578 191.062 15.9375 191.047 16.5312C191.047 17.125 191.047 17.5703 191.047 17.8672C191.031 18.4922 191.016 19.0469 191 19.5312C191 20.0156 190.992 20.4922 190.977 20.9609C190.961 21.4297 190.945 21.9297 190.93 22.4609C190.93 22.9922 190.93 23.6172 190.93 24.3359ZM190.859 39.0312C190.859 40.0156 190.852 40.9297 190.836 41.7734C190.836 42.6328 190.836 43.4141 190.836 44.1172C190.836 45.5703 190.844 47.0078 190.859 48.4297C190.875 49.8516 190.945 51.125 191.07 52.25C191.211 53.3906 191.414 54.3047 191.68 54.9922C191.961 55.6953 192.359 56.0469 192.875 56.0469C193.344 56.0469 193.727 55.8359 194.023 55.4141C194.32 54.9922 194.547 54.4922 194.703 53.9141C194.875 53.3359 194.992 52.7422 195.055 52.1328C195.117 51.5391 195.148 51.0547 195.148 50.6797C195.148 49.7266 195.055 48.7266 194.867 47.6797C194.695 46.6328 194.422 45.5938 194.047 44.5625C193.688 43.5469 193.242 42.5625 192.711 41.6094C192.18 40.6562 191.562 39.7969 190.859 39.0312ZM248.609 26.3047C247.875 27.4922 246.883 28.6719 245.633 29.8438C244.383 31 242.953 32.0469 241.344 32.9844C239.75 33.9062 238.008 34.6484 236.117 35.2109C234.227 35.7891 232.273 36.0781 230.258 36.0781C228.68 36.0781 227.102 35.9375 225.523 35.6562C223.961 35.375 222.453 34.9453 221 34.3672C219.562 33.7891 218.219 33.0625 216.969 32.1875C215.734 31.2969 214.656 30.25 213.734 29.0469C212.812 27.8438 212.086 26.4766 211.555 24.9453C211.039 23.4141 210.781 21.7109 210.781 19.8359C210.781 18.0078 211.047 16.2734 211.578 14.6328C212.125 12.9922 212.883 11.4766 213.852 10.0859C214.82 8.67969 215.969 7.41406 217.297 6.28906C218.625 5.16406 220.078 4.21094 221.656 3.42969C223.234 2.63281 224.898 2.02344 226.648 1.60156C228.398 1.17969 230.188 0.96875 232.016 0.96875C234.031 0.96875 235.922 1.21094 237.688 1.69531C239.469 2.16406 241.023 2.83594 242.352 3.71094C243.68 4.57031 244.727 5.60938 245.492 6.82812C246.273 8.03125 246.664 9.375 246.664 10.8594C246.664 12.2344 246.344 13.5469 245.703 14.7969C245.062 16.0312 244.18 17.1172 243.055 18.0547C241.945 18.9922 240.641 19.7344 239.141 20.2812C237.656 20.8281 236.07 21.1016 234.383 21.1016C233.023 21.1016 231.82 20.9375 230.773 20.6094C229.727 20.2656 228.852 19.7969 228.148 19.2031C227.445 18.6094 226.914 17.9141 226.555 17.1172C226.195 16.3203 226.016 15.4609 226.016 14.5391C226.016 13.7734 226.133 13.0781 226.367 12.4531C226.617 11.8125 226.883 11.2656 227.164 10.8125C227.461 10.3594 227.734 10.0078 227.984 9.75781C228.25 9.49219 228.398 9.34375 228.43 9.3125C228.508 9.23438 228.594 9.1875 228.688 9.17188C228.797 9.14062 228.898 9.125 228.992 9.125C229.242 9.125 229.453 9.20312 229.625 9.35938C229.797 9.51562 229.883 9.71875 229.883 9.96875C229.883 10.25 229.781 10.4844 229.578 10.6719C229.547 10.6875 229.438 10.7969 229.25 11C229.062 11.1875 228.859 11.4531 228.641 11.7969C228.422 12.125 228.219 12.5234 228.031 12.9922C227.859 13.4609 227.773 13.9766 227.773 14.5391C227.773 15.4297 227.969 16.1797 228.359 16.7891C228.766 17.3984 229.289 17.8984 229.93 18.2891C230.57 18.6641 231.281 18.9375 232.062 19.1094C232.844 19.2656 233.625 19.3438 234.406 19.3438C235.859 19.3438 237.219 19.1094 238.484 18.6406C239.766 18.1719 240.883 17.5469 241.836 16.7656C242.789 15.9844 243.539 15.0859 244.086 14.0703C244.633 13.0547 244.906 11.9922 244.906 10.8828C244.906 9.66406 244.562 8.55469 243.875 7.55469C243.188 6.53906 242.258 5.67969 241.086 4.97656C239.914 4.25781 238.539 3.70313 236.961 3.3125C235.398 2.92187 233.727 2.72656 231.945 2.72656C230.602 2.72656 229.188 2.89062 227.703 3.21875C226.234 3.53125 224.781 4.00781 223.344 4.64844C221.906 5.28906 220.531 6.08594 219.219 7.03906C217.922 7.99219 216.781 9.10938 215.797 10.3906C214.812 11.6562 214.023 13.0781 213.43 14.6562C212.852 16.2344 212.562 17.9609 212.562 19.8359C212.562 21.5391 212.797 23.0781 213.266 24.4531C213.75 25.8281 214.414 27.0547 215.258 28.1328C216.102 29.1953 217.086 30.1172 218.211 30.8984C219.352 31.6797 220.57 32.3281 221.867 32.8438C223.18 33.3438 224.547 33.7188 225.969 33.9688C227.391 34.2031 228.805 34.3203 230.211 34.3203C232.086 34.3203 233.891 34.0625 235.625 33.5469C237.359 33.0156 238.961 32.3281 240.43 31.4844C241.914 30.625 243.227 29.6641 244.367 28.6016C245.508 27.5391 246.414 26.4688 247.086 25.3906C247.164 25.25 247.273 25.1484 247.414 25.0859C247.555 25.0078 247.703 24.9688 247.859 24.9688C248.125 24.9688 248.336 25.0625 248.492 25.25C248.648 25.4219 248.727 25.6172 248.727 25.8359C248.727 25.9141 248.719 25.9922 248.703 26.0703C248.688 26.1484 248.656 26.2266 248.609 26.3047ZM261.852 32.4219C261.461 32.4219 261.117 32.3906 260.82 32.3281C260.586 32.7969 260.305 33.2344 259.977 33.6406C259.648 34.0312 259.266 34.375 258.828 34.6719C258.406 34.9688 257.93 35.2031 257.398 35.375C256.867 35.5469 256.289 35.6328 255.664 35.6328C254.93 35.6328 254.258 35.5 253.648 35.2344C253.039 34.9844 252.508 34.6328 252.055 34.1797C251.602 33.7109 251.25 33.1562 251 32.5156C250.75 31.8594 250.625 31.1406 250.625 30.3594C250.625 29.3594 250.805 28.4922 251.164 27.7578C251.523 27.0078 251.938 26.3906 252.406 25.9062C252.875 25.4062 253.344 25.0391 253.812 24.8047C254.281 24.5547 254.633 24.4297 254.867 24.4297C255.133 24.4297 255.328 24.5 255.453 24.6406C255.594 24.7812 255.664 24.9688 255.664 25.2031C255.664 25.4688 255.578 25.6719 255.406 25.8125C255.25 25.9375 255.047 26.0625 254.797 26.1875C254.547 26.3125 254.281 26.4922 254 26.7266C253.719 26.9453 253.453 27.2266 253.203 27.5703C252.969 27.9141 252.773 28.3203 252.617 28.7891C252.461 29.2578 252.383 29.7812 252.383 30.3594C252.383 30.875 252.461 31.3594 252.617 31.8125C252.773 32.25 253 32.6328 253.297 32.9609C253.594 33.2734 253.945 33.5234 254.352 33.7109C254.758 33.8828 255.211 33.9688 255.711 33.9688C256.602 33.9688 257.336 33.7656 257.914 33.3594C258.508 32.9375 258.961 32.4062 259.273 31.7656C258.352 31.2812 257.594 30.5938 257 29.7031C256.406 28.8125 256.109 27.8125 256.109 26.7031C256.109 25.8125 256.32 25.0859 256.742 24.5234C257.18 23.9609 257.75 23.6797 258.453 23.6797C258.875 23.6797 259.273 23.7812 259.648 23.9844C260.023 24.1875 260.352 24.5078 260.633 24.9453C260.93 25.3828 261.164 25.9453 261.336 26.6328C261.508 27.3203 261.594 28.1406 261.594 29.0938C261.594 29.5938 261.531 30.1172 261.406 30.6641C261.5 30.6797 261.594 30.6875 261.688 30.6875C261.781 30.6875 261.883 30.6875 261.992 30.6875C262.523 30.6875 263 30.625 263.422 30.5C263.844 30.375 264.227 30.1875 264.57 29.9375C264.914 29.6875 265.219 29.3672 265.484 28.9766C265.766 28.5859 266.031 28.1328 266.281 27.6172C266.328 27.5234 266.43 27.4375 266.586 27.3594C266.742 27.2656 266.898 27.2188 267.055 27.2188C267.258 27.2188 267.445 27.3047 267.617 27.4766C267.805 27.6328 267.898 27.8438 267.898 28.1094C267.898 28.2344 267.867 28.375 267.805 28.5312C267.742 28.6719 267.68 28.8047 267.617 28.9297C267.352 29.3984 267.039 29.8516 266.68 30.2891C266.336 30.7109 265.922 31.0859 265.438 31.4141C264.969 31.7266 264.438 31.9766 263.844 32.1641C263.25 32.3516 262.586 32.4375 261.852 32.4219ZM257.844 26.5156C257.844 26.8125 257.883 27.125 257.961 27.4531C258.039 27.7812 258.156 28.1094 258.312 28.4375C258.484 28.75 258.688 29.0547 258.922 29.3516C259.172 29.6328 259.461 29.875 259.789 30.0781C259.836 29.75 259.859 29.4297 259.859 29.1172C259.859 28.6953 259.828 28.2656 259.766 27.8281C259.703 27.3906 259.609 26.9922 259.484 26.6328C259.375 26.2578 259.234 25.9609 259.062 25.7422C258.891 25.5078 258.688 25.3906 258.453 25.3906C258.359 25.3906 258.234 25.4609 258.078 25.6016C257.922 25.7422 257.844 26.0469 257.844 26.5156ZM271.648 32.9141C271.883 32.4453 272.18 31.8672 272.539 31.1797C272.914 30.4766 273.297 29.7734 273.688 29.0703C274.094 28.3672 274.484 27.7031 274.859 27.0781C275.25 26.4531 275.578 25.9766 275.844 25.6484C276.297 25.1016 276.766 24.7109 277.25 24.4766C277.734 24.2422 278.18 24.125 278.586 24.125C278.992 24.125 279.336 24.2109 279.617 24.3828C279.914 24.5547 280.156 24.7891 280.344 25.0859C280.531 25.3672 280.672 25.7031 280.766 26.0938C280.859 26.4688 280.906 26.875 280.906 27.3125C280.906 27.5625 280.891 27.8906 280.859 28.2969C280.844 28.7031 280.82 29.1406 280.789 29.6094C280.773 30.0781 280.75 30.5625 280.719 31.0625C280.703 31.5625 280.688 32.0312 280.672 32.4688C280.906 32 281.172 31.4844 281.469 30.9219C281.766 30.3438 282.062 29.7734 282.359 29.2109C282.672 28.6484 282.969 28.125 283.25 27.6406C283.531 27.1406 283.789 26.7344 284.023 26.4219C284.695 25.5 285.32 24.8828 285.898 24.5703C286.492 24.2578 287.016 24.1016 287.469 24.1016C288 24.1016 288.438 24.2031 288.781 24.4062C289.125 24.5938 289.391 24.8438 289.578 25.1562C289.781 25.4531 289.922 25.7891 290 26.1641C290.078 26.5391 290.117 26.8984 290.117 27.2422C290.117 27.7734 290.078 28.3281 290 28.9062C289.922 29.4844 289.883 30.1719 289.883 30.9688C289.883 31.2969 289.898 31.625 289.93 31.9531C289.961 32.2812 290.023 32.5703 290.117 32.8203C290.227 33.0703 290.391 33.2734 290.609 33.4297C290.828 33.5859 291.125 33.6641 291.5 33.6641C291.906 33.6641 292.305 33.5625 292.695 33.3594C293.086 33.1406 293.461 32.8594 293.82 32.5156C294.18 32.1719 294.516 31.7812 294.828 31.3438C295.156 30.9062 295.453 30.4688 295.719 30.0312C295.984 29.5938 296.219 29.1797 296.422 28.7891C296.625 28.3828 296.789 28.0391 296.914 27.7578C296.992 27.5859 297.102 27.4531 297.242 27.3594C297.383 27.2656 297.539 27.2188 297.711 27.2188C297.977 27.2188 298.188 27.3203 298.344 27.5234C298.516 27.7109 298.602 27.9141 298.602 28.1328C298.602 28.2422 298.578 28.3516 298.531 28.4609C298.469 28.5859 298.344 28.8516 298.156 29.2578C297.969 29.6484 297.719 30.1016 297.406 30.6172C297.094 31.1172 296.727 31.6484 296.305 32.2109C295.898 32.7734 295.445 33.2969 294.945 33.7812C294.445 34.25 293.906 34.6406 293.328 34.9531C292.75 35.25 292.141 35.3984 291.5 35.3984C290.812 35.3984 290.25 35.2734 289.812 35.0234C289.391 34.7891 289.047 34.4688 288.781 34.0625C288.531 33.6562 288.359 33.1875 288.266 32.6562C288.172 32.125 288.125 31.5703 288.125 30.9922C288.125 30.2266 288.164 29.5234 288.242 28.8828C288.32 28.2266 288.359 27.7188 288.359 27.3594C288.359 26.9688 288.32 26.6719 288.242 26.4688C288.18 26.2656 288.094 26.125 287.984 26.0469C287.891 25.9531 287.797 25.9062 287.703 25.9062C287.609 25.8906 287.539 25.8828 287.492 25.8828C287.117 25.8828 286.719 26.0938 286.297 26.5156C285.891 26.9219 285.469 27.4688 285.031 28.1562C284.594 28.8438 284.141 29.625 283.672 30.5C283.219 31.375 282.758 32.2656 282.289 33.1719C282.023 33.6719 281.797 34.0859 281.609 34.4141C281.438 34.7422 281.266 35 281.094 35.1875C280.938 35.375 280.781 35.5078 280.625 35.5859C280.469 35.6641 280.297 35.7031 280.109 35.7031C279.703 35.7031 279.391 35.5625 279.172 35.2812C278.969 35 278.867 34.6328 278.867 34.1797C278.867 33.9453 278.875 33.6328 278.891 33.2422C278.906 32.8516 278.922 32.4219 278.938 31.9531C278.953 31.4844 278.977 31 279.008 30.5C279.039 30 279.062 29.5234 279.078 29.0703C279.094 28.6016 279.109 28.1875 279.125 27.8281C279.141 27.4688 279.148 27.1953 279.148 27.0078C279.148 26.6016 279.078 26.3125 278.938 26.1406C278.797 25.9531 278.633 25.8594 278.445 25.8594C278.273 25.8594 278.078 25.9219 277.859 26.0469C277.656 26.1719 277.414 26.4141 277.133 26.7734C276.914 27.0547 276.633 27.4688 276.289 28.0156C275.961 28.5469 275.609 29.1406 275.234 29.7969C274.859 30.4531 274.484 31.125 274.109 31.8125C273.75 32.5 273.438 33.1172 273.172 33.6641C272.844 34.3203 272.516 34.7656 272.188 35C271.859 35.25 271.539 35.375 271.227 35.375C270.773 35.375 270.438 35.2422 270.219 34.9766C270 34.6953 269.891 34.3281 269.891 33.875C269.891 33.8281 269.898 33.5469 269.914 33.0312C269.945 32.5156 269.977 31.8906 270.008 31.1562C270.039 30.4062 270.07 29.6094 270.102 28.7656C270.148 27.9219 270.188 27.1328 270.219 26.3984C270.234 26.0078 270.219 25.6484 270.172 25.3203C270.125 24.9922 270.062 24.7969 269.984 24.7344C269.859 24.7656 269.609 25.0547 269.234 25.6016C268.875 26.1484 268.414 27.1016 267.852 28.4609C267.773 28.6328 267.656 28.7656 267.5 28.8594C267.344 28.9531 267.18 29 267.008 29C266.742 29 266.531 28.9141 266.375 28.7422C266.219 28.5547 266.141 28.3438 266.141 28.1094C266.141 28 266.164 27.8828 266.211 27.7578C266.914 26.0859 267.586 24.8594 268.227 24.0781C268.867 23.2812 269.492 22.8828 270.102 22.8828C270.461 22.8828 270.758 22.9688 270.992 23.1406C271.242 23.2969 271.438 23.5078 271.578 23.7734C271.719 24.0234 271.82 24.3125 271.883 24.6406C271.945 24.9688 271.977 25.2891 271.977 25.6016C271.977 26.9922 271.938 28.2656 271.859 29.4219C271.797 30.5781 271.727 31.7422 271.648 32.9141ZM308.961 28.4609C308.961 29.8984 308.703 31.125 308.188 32.1406C307.672 33.1562 307.039 33.9297 306.289 34.4609H306.383C307.305 34.4609 308.141 34.2578 308.891 33.8516C309.656 33.4297 310.344 32.8984 310.953 32.2578C311.562 31.6016 312.109 30.875 312.594 30.0781C313.078 29.2812 313.508 28.5078 313.883 27.7578C313.961 27.5859 314.07 27.4531 314.211 27.3594C314.367 27.2656 314.531 27.2188 314.703 27.2188C314.969 27.2188 315.18 27.3125 315.336 27.5C315.492 27.6875 315.57 27.8906 315.57 28.1094C315.57 28.2344 315.547 28.3516 315.5 28.4609C315.094 29.3672 314.609 30.2812 314.047 31.2031C313.484 32.1094 312.828 32.9297 312.078 33.6641C311.328 34.3984 310.484 34.9922 309.547 35.4453C308.609 35.9141 307.57 36.1484 306.43 36.1484C305.602 36.1484 304.797 36.0156 304.016 35.75C303.234 35.5 302.547 35.1016 301.953 34.5547C301.734 34.3828 301.547 34.2031 301.391 34.0156C301.234 33.8125 301.109 33.625 301.016 33.4531C300.984 33.4219 300.969 33.3906 300.969 33.3594C300.875 33.2188 300.828 33.0703 300.828 32.9141C300.828 32.7109 300.898 32.5234 301.039 32.3516C301.055 32.3203 301.07 32.3047 301.086 32.3047C301.102 32.2891 301.117 32.2734 301.133 32.2578C301.289 32.1172 301.461 32.0391 301.648 32.0234H301.719C301.797 32.0234 301.852 32.0312 301.883 32.0469C301.898 32.0469 301.906 32.0547 301.906 32.0703C301.922 32.0703 301.938 32.0703 301.953 32.0703C302 32.0703 302.055 32.0859 302.117 32.1172C302.133 32.1328 302.148 32.1406 302.164 32.1406C302.305 32.2344 302.422 32.3516 302.516 32.4922C302.625 32.6797 302.75 32.8516 302.891 33.0078C303.016 33.1328 303.164 33.25 303.336 33.3594C303.508 33.4531 303.703 33.5 303.922 33.5C304.312 33.5 304.703 33.3828 305.094 33.1484C305.484 32.9141 305.836 32.5781 306.148 32.1406C306.461 31.7031 306.711 31.1719 306.898 30.5469C307.102 29.9219 307.203 29.2266 307.203 28.4609C307.203 27.8984 307.141 27.4219 307.016 27.0312C306.906 26.625 306.758 26.2969 306.57 26.0469C306.398 25.7969 306.211 25.6172 306.008 25.5078C305.805 25.3828 305.609 25.3203 305.422 25.3203C305 25.3203 304.57 25.5391 304.133 25.9766C303.711 26.4141 303.289 26.9688 302.867 27.6406C302.445 28.3125 302.023 29.0547 301.602 29.8672C301.195 30.6797 300.781 31.4688 300.359 32.2344C300.328 34.7656 300.281 37.1797 300.219 39.4766C300.172 41.7734 300.078 43.9062 299.938 45.875C299.812 47.8438 299.633 49.625 299.398 51.2188C299.164 52.8125 298.844 54.1719 298.438 55.2969C298.031 56.4375 297.531 57.3125 296.938 57.9219C296.344 58.5312 295.617 58.8359 294.758 58.8359C294.492 58.8359 294.188 58.7812 293.844 58.6719C293.5 58.5625 293.18 58.3359 292.883 57.9922C292.586 57.6641 292.336 57.1875 292.133 56.5625C291.93 55.9375 291.828 55.1016 291.828 54.0547C291.828 52.7266 291.992 51.1875 292.32 49.4375C292.648 47.6875 293.117 45.8281 293.727 43.8594C294.32 41.9062 295.031 39.8984 295.859 37.8359C296.688 35.7734 297.602 33.7656 298.602 31.8125C298.602 31.2656 298.602 30.7266 298.602 30.1953C298.617 29.6641 298.625 29.1484 298.625 28.6484C298.422 28.8828 298.18 29 297.898 29C297.633 29 297.422 28.9062 297.266 28.7188C297.109 28.5312 297.031 28.3281 297.031 28.1094C297.031 28 297.055 27.8828 297.102 27.7578C297.477 26.8984 297.766 26.0859 297.969 25.3203C298.172 24.5391 298.32 23.8594 298.414 23.2812C298.523 22.6875 298.586 22.2188 298.602 21.875C298.617 21.5312 298.625 21.3516 298.625 21.3359C298.625 21.1016 298.711 20.8984 298.883 20.7266C299.055 20.5547 299.266 20.4688 299.516 20.4688C299.75 20.4688 299.953 20.5547 300.125 20.7266C300.297 20.8828 300.383 21.0859 300.383 21.3359V28.5312C300.742 27.9219 301.102 27.3203 301.461 26.7266C301.82 26.1328 302.195 25.6016 302.586 25.1328C302.992 24.6641 303.422 24.2891 303.875 24.0078C304.344 23.7109 304.859 23.5625 305.422 23.5625C305.953 23.5625 306.438 23.6875 306.875 23.9375C307.312 24.1875 307.688 24.5312 308 24.9688C308.312 25.4062 308.547 25.9297 308.703 26.5391C308.875 27.1328 308.961 27.7734 308.961 28.4609ZM298.555 35.9844C297.789 37.7031 297.094 39.4297 296.469 41.1641C295.859 42.8984 295.344 44.5703 294.922 46.1797C294.484 47.7891 294.148 49.2969 293.914 50.7031C293.68 52.1094 293.562 53.3438 293.562 54.4062C293.562 54.6719 293.578 54.9609 293.609 55.2734C293.641 55.5859 293.703 55.875 293.797 56.1406C293.891 56.4062 294.023 56.625 294.195 56.7969C294.367 56.9844 294.594 57.0781 294.875 57.0781C295.391 57.0781 295.836 56.75 296.211 56.0938C296.586 55.4531 296.898 54.5781 297.148 53.4688C297.414 52.375 297.633 51.1094 297.805 49.6719C297.977 48.25 298.109 46.7578 298.203 45.1953C298.312 43.6328 298.391 42.0547 298.438 40.4609C298.484 38.8828 298.523 37.3906 298.555 35.9844ZM327.242 28.5078C327.07 28.8672 326.852 29.2969 326.586 29.7969C326.336 30.2812 326.047 30.7891 325.719 31.3203C325.391 31.8516 325.023 32.3828 324.617 32.9141C324.211 33.4297 323.766 33.8984 323.281 34.3203C322.812 34.7266 322.305 35.0547 321.758 35.3047C321.227 35.5703 320.656 35.7031 320.047 35.7031C319.109 35.7031 318.305 35.4141 317.633 34.8359C316.961 34.2578 316.391 33.5 315.922 32.5625C315.453 31.625 315.07 30.5625 314.773 29.375C314.492 28.1719 314.273 26.9531 314.117 25.7188C313.961 24.4688 313.852 23.2578 313.789 22.0859C313.742 20.9141 313.719 19.875 313.719 18.9688C313.719 17.6562 313.758 16.2969 313.836 14.8906C313.93 13.4844 314.07 12.1094 314.258 10.7656C314.445 9.42188 314.68 8.14844 314.961 6.94531C315.258 5.74219 315.602 4.6875 315.992 3.78125C316.398 2.875 316.859 2.15625 317.375 1.625C317.891 1.09375 318.477 0.828125 319.133 0.828125C319.648 0.828125 320.109 0.953125 320.516 1.20312C320.938 1.4375 321.289 1.82813 321.57 2.375C321.852 2.92187 322.07 3.63281 322.227 4.50781C322.383 5.38281 322.461 6.45312 322.461 7.71875C322.461 9.28125 322.297 10.8984 321.969 12.5703C321.641 14.2266 321.195 15.8984 320.633 17.5859C320.07 19.2734 319.406 20.9609 318.641 22.6484C317.875 24.3203 317.055 25.9531 316.18 27.5469C316.57 29.5312 317.094 31.0938 317.75 32.2344C318.406 33.3594 319.195 33.9219 320.117 33.9219C320.742 33.9219 321.344 33.6797 321.922 33.1953C322.5 32.6953 323.031 32.1094 323.516 31.4375C324 30.7656 324.422 30.0859 324.781 29.3984C325.156 28.6953 325.445 28.1328 325.648 27.7109C325.727 27.5547 325.836 27.4375 325.977 27.3594C326.117 27.2656 326.273 27.2188 326.445 27.2188C326.711 27.2188 326.922 27.3125 327.078 27.5C327.25 27.6875 327.336 27.8984 327.336 28.1328C327.336 28.2266 327.305 28.3516 327.242 28.5078ZM315.5 19.0859C315.5 20.0859 315.523 21.0469 315.57 21.9688C315.617 22.8906 315.68 23.7734 315.758 24.6172C316.414 23.3516 317.039 22.0078 317.633 20.5859C318.227 19.1484 318.75 17.7031 319.203 16.25C319.656 14.7812 320.016 13.3281 320.281 11.8906C320.562 10.4375 320.703 9.05469 320.703 7.74219C320.703 5.89844 320.555 4.57812 320.258 3.78125C319.961 2.98438 319.562 2.58594 319.062 2.58594C318.734 2.58594 318.414 2.8125 318.102 3.26562C317.805 3.71875 317.523 4.33594 317.258 5.11719C316.992 5.89844 316.75 6.82031 316.531 7.88281C316.312 8.94531 316.125 10.0859 315.969 11.3047C315.828 12.5234 315.711 13.7969 315.617 15.125C315.539 16.4531 315.5 17.7734 315.5 19.0859ZM328.484 32.4219C328.812 32.875 329.234 33.2422 329.75 33.5234C330.266 33.7891 330.898 33.9219 331.648 33.9219C332.414 33.9219 333.109 33.7422 333.734 33.3828C334.359 33.0078 334.93 32.5234 335.445 31.9297C335.961 31.3359 336.422 30.6719 336.828 29.9375C337.234 29.2031 337.602 28.4688 337.93 27.7344C338.008 27.5625 338.117 27.4375 338.258 27.3594C338.398 27.2656 338.555 27.2188 338.727 27.2188C338.992 27.2188 339.203 27.3125 339.359 27.5C339.531 27.6875 339.617 27.8906 339.617 28.1094C339.617 28.1875 339.609 28.2578 339.594 28.3203C339.578 28.3672 339.555 28.4219 339.523 28.4844C338.445 30.8594 337.266 32.6484 335.984 33.8516C334.719 35.0547 333.281 35.6719 331.672 35.7031C330.641 35.7031 329.75 35.5 329 35.0938C328.25 34.7031 327.633 34.1953 327.148 33.5703C326.664 32.9297 326.305 32.2109 326.07 31.4141C325.836 30.6172 325.719 29.8203 325.719 29.0234C325.719 28.2266 325.812 27.4922 326 26.8203C326.203 26.1484 326.484 25.5625 326.844 25.0625C327.219 24.5625 327.656 24.1719 328.156 23.8906C328.672 23.6094 329.234 23.4688 329.844 23.4688C330.203 23.4688 330.555 23.5469 330.898 23.7031C331.258 23.8438 331.578 24.0547 331.859 24.3359C332.141 24.6016 332.367 24.9297 332.539 25.3203C332.711 25.7109 332.797 26.1562 332.797 26.6562C332.797 27.2969 332.688 27.8984 332.469 28.4609C332.25 29.0234 331.945 29.5469 331.555 30.0312C331.18 30.5156 330.727 30.9609 330.195 31.3672C329.664 31.7734 329.094 32.125 328.484 32.4219ZM327.781 30.8984C328.266 30.6953 328.703 30.4375 329.094 30.125C329.5 29.8125 329.844 29.4688 330.125 29.0938C330.406 28.7188 330.625 28.3281 330.781 27.9219C330.938 27.5 331.016 27.0781 331.016 26.6562C331.016 26.1875 330.898 25.8359 330.664 25.6016C330.43 25.3516 330.156 25.2266 329.844 25.2266C329.422 25.2266 329.062 25.3438 328.766 25.5781C328.469 25.8125 328.227 26.1172 328.039 26.4922C327.852 26.8672 327.711 27.2891 327.617 27.7578C327.539 28.2109 327.5 28.6641 327.5 29.1172C327.5 29.3984 327.523 29.6953 327.57 30.0078C327.633 30.3203 327.703 30.6172 327.781 30.8984ZM356.938 11.5391C356.938 11.7891 356.852 11.9922 356.68 12.1484C356.508 12.2891 356.297 12.3594 356.047 12.3594H344.164V12.6172C344.164 13.5703 344.094 14.5859 343.953 15.6641C343.812 16.7422 343.617 17.8203 343.367 18.8984C343.133 19.9609 342.859 21 342.547 22.0156C342.25 23.0312 341.938 23.9688 341.609 24.8281C341.297 25.6875 340.984 26.4375 340.672 27.0781C340.359 27.7031 340.078 28.1719 339.828 28.4844C340.031 29.2031 340.273 29.875 340.555 30.5C340.836 31.1094 341.148 31.6484 341.492 32.1172C341.852 32.5703 342.234 32.9297 342.641 33.1953C343.047 33.4609 343.484 33.5938 343.953 33.5938C344.5 33.5938 345.039 33.3672 345.57 32.9141C346.117 32.4453 346.617 31.8984 347.07 31.2734C347.539 30.6328 347.945 29.9922 348.289 29.3516C348.648 28.6953 348.906 28.1719 349.062 27.7812C349.219 27.4062 349.492 27.2188 349.883 27.2188C350.148 27.2188 350.359 27.3125 350.516 27.5C350.688 27.6875 350.773 27.8906 350.773 28.1094C350.773 28.2188 350.75 28.3281 350.703 28.4375C350.656 28.5469 350.539 28.7969 350.352 29.1875C350.18 29.5781 349.945 30.0312 349.648 30.5469C349.367 31.0625 349.031 31.6094 348.641 32.1875C348.266 32.75 347.836 33.2656 347.352 33.7344C346.883 34.2031 346.375 34.5938 345.828 34.9062C345.281 35.2188 344.703 35.375 344.094 35.375C343.016 35.375 342.047 35.0234 341.188 34.3203C340.328 33.6172 339.594 32.6328 338.984 31.3672C338.391 30.1016 337.938 28.6016 337.625 26.8672C337.312 25.1328 337.156 23.2344 337.156 21.1719C337.156 20.6562 337.164 20.0547 337.18 19.3672C337.195 18.6641 337.227 17.9297 337.273 17.1641C337.32 16.3828 337.391 15.5859 337.484 14.7734C337.578 13.9453 337.703 13.1406 337.859 12.3594H329.445C329.195 12.3594 328.984 12.2891 328.812 12.1484C328.641 11.9922 328.555 11.7891 328.555 11.5391C328.555 11.2891 328.641 11.0938 328.812 10.9531C328.984 10.7969 329.195 10.7188 329.445 10.7188H338.258C338.414 10.1562 338.594 9.64062 338.797 9.17188C339.016 8.70312 339.258 8.29688 339.523 7.95312C339.805 7.60938 340.109 7.34375 340.438 7.15625C340.781 6.95312 341.156 6.85156 341.562 6.85156C341.953 6.85156 342.289 6.95312 342.57 7.15625C342.867 7.34375 343.117 7.60938 343.32 7.95312C343.523 8.29688 343.68 8.70312 343.789 9.17188C343.914 9.64062 344.008 10.1562 344.07 10.7188H356.047C356.297 10.7188 356.508 10.7969 356.68 10.9531C356.852 11.0938 356.938 11.2891 356.938 11.5391ZM339.289 26.1406C339.758 25.1094 340.18 24 340.555 22.8125C340.945 21.6094 341.273 20.3984 341.539 19.1797C341.82 17.9609 342.031 16.7656 342.172 15.5938C342.328 14.4219 342.406 13.3438 342.406 12.3594H339.641C339.422 13.3281 339.242 14.5312 339.102 15.9688C338.977 17.3906 338.914 19.125 338.914 21.1719C338.914 22.3125 338.945 23.2734 339.008 24.0547C339.07 24.8203 339.164 25.5156 339.289 26.1406ZM341.469 8.60938C341.328 8.60938 341.125 8.76562 340.859 9.07812C340.594 9.375 340.328 9.92188 340.062 10.7188H342.312C342.234 10.0625 342.117 9.54688 341.961 9.17188C341.82 8.79688 341.656 8.60938 341.469 8.60938ZM339.664 27.8281V27.8516V27.8281ZM352.977 16.6016C352.977 17.1953 352.766 17.7031 352.344 18.125C351.938 18.5312 351.438 18.7344 350.844 18.7344C350.25 18.7344 349.742 18.5312 349.32 18.125C348.914 17.7031 348.711 17.1953 348.711 16.6016C348.711 16.3047 348.766 16.0312 348.875 15.7812C348.984 15.5156 349.133 15.2891 349.32 15.1016C349.523 14.8984 349.75 14.7422 350 14.6328C350.266 14.5234 350.547 14.4688 350.844 14.4688C351.141 14.4688 351.414 14.5234 351.664 14.6328C351.93 14.7422 352.156 14.8984 352.344 15.1016C352.547 15.2891 352.703 15.5156 352.812 15.7812C352.922 16.0312 352.977 16.3047 352.977 16.6016ZM349.18 30.3359C349.18 28.0859 349.32 25.8438 349.602 23.6094C349.633 23.3906 349.727 23.2031 349.883 23.0469C350.055 22.875 350.273 22.7891 350.539 22.7891C350.773 22.7891 350.969 22.8828 351.125 23.0703C351.281 23.2422 351.359 23.4453 351.359 23.6797C351.359 23.7734 351.336 24.0547 351.289 24.5234C351.258 24.9922 351.211 25.5547 351.148 26.2109C351.102 26.8516 351.055 27.5391 351.008 28.2734C350.977 28.9922 350.961 29.6562 350.961 30.2656C350.961 31.0938 351.039 31.7656 351.195 32.2812C351.367 32.7812 351.578 33.1719 351.828 33.4531C352.094 33.7344 352.367 33.9219 352.648 34.0156C352.945 34.1094 353.227 34.1562 353.492 34.1562C353.93 34.1562 354.383 34 354.852 33.6875C355.32 33.375 355.797 32.9375 356.281 32.375C356.781 31.8125 357.281 31.1406 357.781 30.3594C358.281 29.5625 358.773 28.6797 359.258 27.7109C359.336 27.5547 359.445 27.4375 359.586 27.3594C359.727 27.2656 359.883 27.2188 360.055 27.2188C360.305 27.2188 360.508 27.3125 360.664 27.5C360.836 27.6875 360.922 27.8906 360.922 28.1094C360.922 28.2656 360.891 28.3984 360.828 28.5078C360.641 28.8672 360.406 29.3047 360.125 29.8203C359.844 30.3359 359.523 30.8672 359.164 31.4141C358.805 31.9609 358.406 32.5078 357.969 33.0547C357.547 33.5859 357.094 34.0703 356.609 34.5078C356.125 34.9297 355.617 35.2734 355.086 35.5391C354.555 35.8047 354.016 35.9375 353.469 35.9375C352.766 35.9375 352.148 35.7891 351.617 35.4922C351.086 35.1953 350.633 34.7969 350.258 34.2969C349.898 33.7969 349.625 33.2109 349.438 32.5391C349.266 31.8516 349.18 31.1172 349.18 30.3359ZM351.664 16.6016C351.664 16.3828 351.578 16.1953 351.406 16.0391C351.25 15.8672 351.062 15.7812 350.844 15.7812C350.625 15.7812 350.438 15.8672 350.281 16.0391C350.125 16.1953 350.047 16.3828 350.047 16.6016C350.047 16.8203 350.125 17.0078 350.281 17.1641C350.438 17.3203 350.625 17.3984 350.844 17.3984C351.062 17.3984 351.25 17.3203 351.406 17.1641C351.578 17.0078 351.664 16.8203 351.664 16.6016ZM370.039 32.4219C369.648 32.4219 369.305 32.3906 369.008 32.3281C368.773 32.7969 368.492 33.2344 368.164 33.6406C367.836 34.0312 367.453 34.375 367.016 34.6719C366.594 34.9688 366.117 35.2031 365.586 35.375C365.055 35.5469 364.477 35.6328 363.852 35.6328C363.117 35.6328 362.445 35.5 361.836 35.2344C361.227 34.9844 360.695 34.6328 360.242 34.1797C359.789 33.7109 359.438 33.1562 359.188 32.5156C358.938 31.8594 358.812 31.1406 358.812 30.3594C358.812 29.3594 358.992 28.4922 359.352 27.7578C359.711 27.0078 360.125 26.3906 360.594 25.9062C361.062 25.4062 361.531 25.0391 362 24.8047C362.469 24.5547 362.82 24.4297 363.055 24.4297C363.32 24.4297 363.516 24.5 363.641 24.6406C363.781 24.7812 363.852 24.9688 363.852 25.2031C363.852 25.4688 363.766 25.6719 363.594 25.8125C363.438 25.9375 363.234 26.0625 362.984 26.1875C362.734 26.3125 362.469 26.4922 362.188 26.7266C361.906 26.9453 361.641 27.2266 361.391 27.5703C361.156 27.9141 360.961 28.3203 360.805 28.7891C360.648 29.2578 360.57 29.7812 360.57 30.3594C360.57 30.875 360.648 31.3594 360.805 31.8125C360.961 32.25 361.188 32.6328 361.484 32.9609C361.781 33.2734 362.133 33.5234 362.539 33.7109C362.945 33.8828 363.398 33.9688 363.898 33.9688C364.789 33.9688 365.523 33.7656 366.102 33.3594C366.695 32.9375 367.148 32.4062 367.461 31.7656C366.539 31.2812 365.781 30.5938 365.188 29.7031C364.594 28.8125 364.297 27.8125 364.297 26.7031C364.297 25.8125 364.508 25.0859 364.93 24.5234C365.367 23.9609 365.938 23.6797 366.641 23.6797C367.062 23.6797 367.461 23.7812 367.836 23.9844C368.211 24.1875 368.539 24.5078 368.82 24.9453C369.117 25.3828 369.352 25.9453 369.523 26.6328C369.695 27.3203 369.781 28.1406 369.781 29.0938C369.781 29.5938 369.719 30.1172 369.594 30.6641C369.688 30.6797 369.781 30.6875 369.875 30.6875C369.969 30.6875 370.07 30.6875 370.18 30.6875C370.711 30.6875 371.188 30.625 371.609 30.5C372.031 30.375 372.414 30.1875 372.758 29.9375C373.102 29.6875 373.406 29.3672 373.672 28.9766C373.953 28.5859 374.219 28.1328 374.469 27.6172C374.516 27.5234 374.617 27.4375 374.773 27.3594C374.93 27.2656 375.086 27.2188 375.242 27.2188C375.445 27.2188 375.633 27.3047 375.805 27.4766C375.992 27.6328 376.086 27.8438 376.086 28.1094C376.086 28.2344 376.055 28.375 375.992 28.5312C375.93 28.6719 375.867 28.8047 375.805 28.9297C375.539 29.3984 375.227 29.8516 374.867 30.2891C374.523 30.7109 374.109 31.0859 373.625 31.4141C373.156 31.7266 372.625 31.9766 372.031 32.1641C371.438 32.3516 370.773 32.4375 370.039 32.4219ZM366.031 26.5156C366.031 26.8125 366.07 27.125 366.148 27.4531C366.227 27.7812 366.344 28.1094 366.5 28.4375C366.672 28.75 366.875 29.0547 367.109 29.3516C367.359 29.6328 367.648 29.875 367.977 30.0781C368.023 29.75 368.047 29.4297 368.047 29.1172C368.047 28.6953 368.016 28.2656 367.953 27.8281C367.891 27.3906 367.797 26.9922 367.672 26.6328C367.562 26.2578 367.422 25.9609 367.25 25.7422C367.078 25.5078 366.875 25.3906 366.641 25.3906C366.547 25.3906 366.422 25.4609 366.266 25.6016C366.109 25.7422 366.031 26.0469 366.031 26.5156ZM379.625 32.8906C379.875 32.375 380.164 31.8125 380.492 31.2031C380.82 30.5781 381.172 29.9531 381.547 29.3281C381.922 28.6875 382.312 28.0547 382.719 27.4297C383.141 26.8047 383.578 26.2109 384.031 25.6484C384.484 25.1016 384.938 24.7109 385.391 24.4766C385.859 24.2266 386.297 24.1016 386.703 24.1016C387.516 24.1016 388.117 24.3984 388.508 24.9922C388.898 25.5859 389.094 26.3203 389.094 27.1953C389.094 27.3984 389.078 27.6484 389.047 27.9453C389.031 28.2266 389.008 28.5312 388.977 28.8594C388.961 29.1875 388.938 29.5234 388.906 29.8672C388.891 30.1953 388.883 30.5078 388.883 30.8047C388.883 31.1797 388.898 31.5391 388.93 31.8828C388.977 32.2266 389.055 32.5312 389.164 32.7969C389.273 33.0469 389.43 33.25 389.633 33.4062C389.836 33.5469 390.102 33.6172 390.43 33.6172C391.023 33.6172 391.602 33.3906 392.164 32.9375C392.727 32.4688 393.242 31.9219 393.711 31.2969C394.195 30.6562 394.609 30.0078 394.953 29.3516C395.312 28.6953 395.578 28.1641 395.75 27.7578C395.828 27.5859 395.938 27.4531 396.078 27.3594C396.234 27.2656 396.398 27.2188 396.57 27.2188C396.836 27.2188 397.047 27.3203 397.203 27.5234C397.375 27.7109 397.461 27.9141 397.461 28.1328C397.461 28.2422 397.438 28.3516 397.391 28.4609C397.328 28.5859 397.203 28.8438 397.016 29.2344C396.828 29.625 396.578 30.0781 396.266 30.5938C395.969 31.0938 395.617 31.6328 395.211 32.2109C394.805 32.7734 394.352 33.2891 393.852 33.7578C393.367 34.2266 392.836 34.6172 392.258 34.9297C391.695 35.2422 391.102 35.3984 390.477 35.3984C389.773 35.3984 389.203 35.2656 388.766 35C388.328 34.7188 387.984 34.3594 387.734 33.9219C387.484 33.4688 387.312 32.9766 387.219 32.4453C387.141 31.8984 387.102 31.3516 387.102 30.8047C387.102 30.5703 387.109 30.3047 387.125 30.0078C387.156 29.7109 387.188 29.3984 387.219 29.0703C387.266 28.7422 387.297 28.4141 387.312 28.0859C387.344 27.7578 387.359 27.4453 387.359 27.1484C387.359 26.6484 387.281 26.3125 387.125 26.1406C386.969 25.9531 386.828 25.8594 386.703 25.8594C386.453 25.8594 386.164 26.0078 385.836 26.3047C385.523 26.5859 385.188 26.9609 384.828 27.4297C384.484 27.8984 384.125 28.4297 383.75 29.0234C383.391 29.6016 383.047 30.1797 382.719 30.7578C382.406 31.3359 382.109 31.8906 381.828 32.4219C381.562 32.9375 381.352 33.3672 381.195 33.7109C380.883 34.3672 380.57 34.8047 380.258 35.0234C379.945 35.2578 379.625 35.375 379.297 35.375C378.844 35.375 378.477 35.2422 378.195 34.9766C377.93 34.6953 377.797 34.3047 377.797 33.8047C377.797 33.6953 377.812 33.4844 377.844 33.1719C377.875 32.8438 377.914 32.4609 377.961 32.0234C378.008 31.5703 378.055 31.0859 378.102 30.5703C378.148 30.0547 378.195 29.5469 378.242 29.0469C378.289 28.5312 378.328 28.0547 378.359 27.6172C378.391 27.1797 378.406 26.8125 378.406 26.5156C378.406 26.125 378.391 25.75 378.359 25.3906C378.328 25.0312 378.266 24.8125 378.172 24.7344C378.031 24.7812 377.781 25.0781 377.422 25.625C377.062 26.1562 376.602 27.1016 376.039 28.4609C375.961 28.6328 375.844 28.7656 375.688 28.8594C375.531 28.9531 375.367 29 375.195 29C374.93 29 374.719 28.9141 374.562 28.7422C374.406 28.5547 374.328 28.3438 374.328 28.1094C374.328 28 374.352 27.8828 374.398 27.7578C375.102 26.0859 375.758 24.8594 376.367 24.0781C376.992 23.2812 377.609 22.8828 378.219 22.8828C378.578 22.8828 378.883 22.9766 379.133 23.1641C379.383 23.3359 379.578 23.5703 379.719 23.8672C379.875 24.1641 379.984 24.4922 380.047 24.8516C380.125 25.2109 380.164 25.5781 380.164 25.9531C380.164 26.2344 380.141 26.6719 380.094 27.2656C380.062 27.8594 380.016 28.5 379.953 29.1875C379.891 29.8594 379.828 30.5312 379.766 31.2031C379.719 31.875 379.672 32.4375 379.625 32.8906Z" fill="#60269E"/>
</svg>
