<svg width="14" height="17" viewBox="0 0 14 17" fill="none" xmlns="http://www.w3.org/2000/svg">
<path d="M12.296 2.26119L6.99998 0.505859L1.70398 2.26119C1.30496 2.39347 0.957768 2.64811 0.711714 2.98895C0.46566 3.32979 0.333258 3.73949 0.333313 4.15986V8.49986C0.333313 13.5159 6.46665 16.2859 6.72931 16.4012L6.96531 16.5059L7.21065 16.4245C7.47465 16.3365 13.6666 14.2179 13.6666 8.49986V4.15986C13.6667 3.73949 13.5343 3.32979 13.2882 2.98895C13.0422 2.64811 12.695 2.39347 12.296 2.26119ZM7.29598 9.82586C7.17943 9.94318 7.04075 10.0362 6.88796 10.0995C6.73518 10.1628 6.57135 10.1951 6.40598 10.1945H6.38398C6.21524 10.1919 6.04878 10.1552 5.89466 10.0864C5.74054 10.0177 5.60196 9.91836 5.48731 9.79453L3.94998 8.19453L4.91198 7.27319L6.40798 8.83319L9.86198 5.37919L10.8046 6.32186L7.29598 9.82586Z" fill="#60269E"/>
</svg>
