<svg width="221" height="333" viewBox="0 0 221 333" fill="none" xmlns="http://www.w3.org/2000/svg">
<path d="M50.2786 336.39V371.468C50.2786 387.256 57.622 395.15 72.3088 395.15C86.8771 395.15 94.1613 387.256 94.1613 371.468V365.058C94.1613 348.201 78.4678 328.495 47.0807 305.941C15.6935 283.505 -3.70492e-05 256.202 0 224.032V157.793C0 108.885 24.0437 84.4316 72.1311 84.4316C120.337 84.4316 144.44 108.885 144.44 157.793V179.606C144.44 186.288 141.791 192.697 137.077 197.422C132.362 202.147 125.968 204.802 119.301 204.802C112.633 204.802 106.239 202.147 101.524 197.422C96.81 192.697 94.1614 186.288 94.1614 179.606V157.793C94.1614 142.124 86.8772 134.23 72.3089 134.111H71.9535C57.5035 134.111 50.2786 142.005 50.2786 157.793V222.964C50.2786 238.515 65.9722 257.567 97.3593 280.122C128.746 302.558 144.44 329.445 144.44 360.784V371.468C144.44 420.494 120.396 445.008 72.3089 445.008C24.103 444.889 4.77498e-05 420.376 8.4799e-05 371.468V336.39L50.2786 336.39Z" fill="#613393"/>
<path d="M164.092 395.15C149.581 395.15 142.325 387.256 142.325 371.468V365.058C142.325 348.201 157.957 328.495 189.22 305.941C220.483 283.505 236.114 256.202 236.114 224.032V157.793C236.114 108.885 212.166 84.4316 164.269 84.4316C116.253 84.4316 92.2457 108.885 92.2457 157.793V180.369C92.3828 186.89 95.0972 193.089 99.7925 197.604C104.488 202.12 110.78 204.582 117.286 204.45C123.791 204.582 130.083 202.12 134.779 197.604C139.474 193.089 142.188 186.89 142.325 180.369V157.793C142.325 142.124 149.581 134.23 164.092 134.111H164.446C178.838 134.111 186.035 142.005 186.035 157.793V222.964C186.035 238.515 170.403 257.567 139.14 280.122C107.877 302.558 92.2456 329.445 92.2456 360.784V371.468C92.2456 420.494 116.194 445.008 164.091 445.008" fill="#51A3DA"/>
<path d="M174.845 60.7786C191.591 60.7786 205.166 47.1729 205.166 30.3893C205.166 13.6058 191.591 0 174.845 0C158.099 0 144.524 13.6058 144.524 30.3893C144.524 47.1729 158.099 60.7786 174.845 60.7786Z" fill="#51A3DA"/>
<path d="M71.9543 60.7786C88.7002 60.7786 102.275 47.1729 102.275 30.3893C102.275 13.6058 88.7002 0 71.9543 0C55.2084 0 41.6332 13.6058 41.6332 30.3893C41.6332 47.1729 55.2084 60.7786 71.9543 60.7786Z" fill="#613393"/>
</svg>
