<svg width="54" height="59" viewBox="0 0 54 59" fill="none" xmlns="http://www.w3.org/2000/svg">
<path fill-rule="evenodd" clip-rule="evenodd" d="M5.14024 24.3172C7.99305 18.1236 10.0195 11.4691 11.9372 5.00519C12.3455 3.61214 11.6084 2.12113 10.2771 1.78072C8.96164 1.33846 7.55841 2.13729 7.167 3.42867C5.31372 9.69461 3.37153 16.1535 0.635498 22.0538C0.0459791 23.3101 0.569902 24.8689 1.81109 25.5073C3.0513 26.1456 4.54973 25.5734 5.14024 24.3172Z" fill="#60269E"/>
<path fill-rule="evenodd" clip-rule="evenodd" d="M16.3088 38.2877C28.4108 29.6498 39.3992 19.454 51.7453 11.0686C52.891 10.3295 53.2149 8.71214 52.4566 7.5312C51.6974 6.35007 50.153 5.97236 48.9904 6.81318C36.6138 15.1931 25.5958 25.3837 13.4633 34.0162C12.3243 34.8612 12.0399 36.4852 12.8248 37.6708C13.6256 38.7546 15.1698 39.1327 16.3088 38.2877Z" fill="#60269E"/>
<path fill-rule="evenodd" clip-rule="evenodd" d="M40.0052 52.2227C34.0251 51.4778 28.0452 50.7324 22.0642 49.9873C20.706 49.7468 19.4543 50.7818 19.2834 52.2169C19.1136 53.6522 20.1006 54.873 21.4598 55.1137C27.4497 55.8603 33.4385 56.6074 39.4274 57.3538C40.8024 57.4926 42.0472 56.4568 42.2102 55.0203C42.3562 53.6855 41.3792 52.3614 40.0052 52.2227Z" fill="#60269E"/>
</svg>
