<svg width="177" height="176" viewBox="0 0 177 176" fill="none" xmlns="http://www.w3.org/2000/svg">
<path d="M38.76 93.515L39.6647 90.1339L38.76 93.515ZM12.8865 84.0299C11.2128 84.9969 10.6399 87.1377 11.607 88.8114L27.3665 116.086C28.3336 117.759 30.4743 118.332 32.148 117.365C33.8217 116.398 34.3945 114.257 33.4275 112.584L19.419 88.3398L43.6629 74.3314C45.3366 73.3643 45.9094 71.2235 44.9423 69.5498C43.9752 67.8761 41.8345 67.3033 40.1608 68.2704L12.8865 84.0299ZM39.6647 90.1339L15.5422 83.6793L13.7328 90.4414L37.8553 96.896L39.6647 90.1339ZM129.909 35.2313C120.974 75.9081 79.896 100.899 39.6647 90.1339L37.8553 96.896C81.9412 108.692 126.954 81.3072 136.746 36.7331L129.909 35.2313Z" fill="#51A3DA"/>
</svg>
