<svg width="177" height="162" viewBox="0 0 177 162" fill="none" xmlns="http://www.w3.org/2000/svg">
<path d="M107.616 126.603L104.118 126.705L107.616 126.603ZM105.943 154.11C107.349 155.436 109.564 155.371 110.89 153.965L132.505 131.052C133.832 129.645 133.767 127.43 132.361 126.104C130.955 124.777 128.74 124.842 127.413 126.248L108.2 146.616L87.8321 127.403C86.426 126.076 84.2108 126.141 82.8844 127.547C81.558 128.953 81.6227 131.168 83.0288 132.495L105.943 154.11ZM104.118 126.705L104.846 151.666L111.843 151.462L111.115 126.501L104.118 126.705ZM25.6588 55.9769C67.1903 52.8819 102.903 85.0763 104.118 126.705L111.115 126.501C109.784 80.8836 70.6492 45.6048 25.1386 48.9963L25.6588 55.9769Z" fill="#51A3DA"/>
</svg>
