<svg width="109" height="144" viewBox="0 0 109 144" fill="none" xmlns="http://www.w3.org/2000/svg">
<path d="M25.4929 111.083L23.7111 108.07L25.4929 111.083ZM0.609909 122.925C0.129309 124.798 1.2575 126.705 3.12979 127.186L33.6407 135.018C35.513 135.498 37.4204 134.37 37.901 132.498C38.3816 130.625 37.2534 128.718 35.3811 128.237L8.2603 121.276L15.2219 94.155C15.7025 92.2827 14.5743 90.3753 12.702 89.8947C10.8297 89.4141 8.92233 90.5423 8.44173 92.4146L0.609909 122.925ZM23.7111 108.07L2.21817 120.783L5.78184 126.808L27.2747 114.095L23.7111 108.07ZM47.6543 5.18707C70.4553 40.0375 59.5567 86.8684 23.7111 108.07L27.2747 114.095C66.5548 90.862 78.4976 39.5442 53.512 1.35466L47.6543 5.18707Z" fill="#51A3DA"/>
</svg>
