<svg width="71" height="78" viewBox="0 0 71 78" fill="none" xmlns="http://www.w3.org/2000/svg">
<path fill-rule="evenodd" clip-rule="evenodd" d="M34.185 70.4557C27.6952 69.0179 20.9546 68.4855 14.4185 68.0178C13.011 67.9218 11.7672 68.9635 11.7433 70.3349C11.6196 71.7129 12.6882 72.9074 13.9959 73.0089C20.3305 73.4568 26.8674 73.9495 33.054 75.337C34.3728 75.6392 35.7284 74.7907 36.054 73.4425C36.3797 72.0953 35.5039 70.7589 34.185 70.4557Z" fill="#51A3DA"/>
<path fill-rule="evenodd" clip-rule="evenodd" d="M44.1524 44.398C33.2846 34.4753 21.1938 25.9757 10.51 15.7603C9.55536 14.8039 7.95483 14.8388 7.00864 15.8339C6.0625 16.83 6.05102 18.4171 7.10546 19.368C17.791 29.6143 29.8834 38.1439 40.7531 48.0975C41.8062 49.0245 43.4041 48.9496 44.3488 47.9276C45.1937 46.9121 45.2055 45.325 44.1524 44.398Z" fill="#51A3DA"/>
<path fill-rule="evenodd" clip-rule="evenodd" d="M61.6219 10.947C62.2556 16.9371 62.8887 22.9271 63.5224 28.9182C63.599 30.2941 64.8568 31.2897 66.2509 31.1451C67.645 30.9994 68.5777 29.7727 68.5011 28.3959C67.8669 22.3958 67.2333 16.3968 66.5991 10.3977C66.4227 9.02741 65.1657 8.0387 63.772 8.19134C62.4782 8.33843 61.4456 9.57769 61.6219 10.947Z" fill="#51A3DA"/>
</svg>
