<svg width="20" height="24" viewBox="0 0 20 24" fill="none" xmlns="http://www.w3.org/2000/svg">
<path fill-rule="evenodd" clip-rule="evenodd" d="M1.83563 9.74488C2.85442 7.1961 3.57812 4.45763 4.26294 1.79762C4.40877 1.22436 4.14553 0.610781 3.67008 0.470694C3.20032 0.288696 2.6992 0.617428 2.55942 1.14885C1.89759 3.7274 1.204 6.38537 0.226916 8.81345C0.0163887 9.33044 0.20349 9.97189 0.64674 10.2346C1.08964 10.4973 1.62475 10.2618 1.83563 9.74488Z" fill="#51A3DA"/>
<path fill-rule="evenodd" clip-rule="evenodd" d="M5.82418 15.4941C10.146 11.9394 14.0701 7.74367 18.4791 4.29293C18.8883 3.98876 19.004 3.3232 18.7332 2.83722C18.462 2.35116 17.9105 2.19573 17.4953 2.54174C13.0754 5.99025 9.14072 10.1838 4.808 13.7363C4.40124 14.084 4.29968 14.7523 4.57997 15.2402C4.86595 15.6862 5.41743 15.8418 5.82418 15.4941Z" fill="#51A3DA"/>
<path fill-rule="evenodd" clip-rule="evenodd" d="M14.2865 21.2285C12.151 20.922 10.0154 20.6152 7.87951 20.3086C7.3945 20.2096 6.94747 20.6356 6.88647 21.2261C6.82583 21.8168 7.1783 22.3192 7.66367 22.4182C9.80276 22.7255 11.9415 23.0329 14.0802 23.3401C14.5713 23.3972 15.0158 22.9709 15.074 22.3798C15.1261 21.8305 14.7772 21.2856 14.2865 21.2285Z" fill="#51A3DA"/>
</svg>
