<svg width="54" height="67" viewBox="0 0 54 67" fill="none" xmlns="http://www.w3.org/2000/svg">
<path fill-rule="evenodd" clip-rule="evenodd" d="M5.14011 27.2853C7.99293 20.1482 10.0194 12.4799 11.9371 5.03136C12.3454 3.4261 11.6083 1.70796 10.2769 1.31569C8.96151 0.80606 7.55829 1.72658 7.16687 3.21468C5.3136 10.4352 3.37141 17.878 0.635375 24.6771C0.0458567 26.1248 0.569779 27.921 1.81097 28.6567C3.05117 29.3922 4.54961 28.7328 5.14011 27.2853Z" fill="#51A3DA"/>
<path fill-rule="evenodd" clip-rule="evenodd" d="M16.3088 43.3841C28.4108 33.4302 39.3992 21.6813 51.7453 12.0185C52.891 11.1668 53.2149 9.30304 52.4566 7.94219C51.6974 6.58114 50.153 6.14589 48.9904 7.11479C36.6138 16.7713 25.5958 28.5143 13.4633 38.4618C12.3243 39.4356 12.0399 41.3069 12.8248 42.6732C13.6256 43.9221 15.1698 44.3578 16.3088 43.3841Z" fill="#51A3DA"/>
<path fill-rule="evenodd" clip-rule="evenodd" d="M40.0053 59.4418C34.0252 58.5835 28.0453 57.7244 22.0643 56.8659C20.7061 56.5888 19.4544 57.7814 19.2836 59.4351C19.1137 61.0891 20.1008 62.4959 21.4599 62.7732C27.4498 63.6336 33.4386 64.4944 39.4275 65.3546C40.8026 65.5145 42.0474 64.3209 42.2103 62.6656C42.3563 61.1274 41.3794 59.6016 40.0053 59.4418Z" fill="#51A3DA"/>
</svg>
