<svg width="115" height="88" viewBox="0 0 115 88" fill="none" xmlns="http://www.w3.org/2000/svg">
<path d="M2.87737 10.6434C6.04699 6.44091 18.287 4.27687 23.5028 3.76257C27.4996 3.36847 32.8387 3.24535 37.092 4.40277C48.1598 7.41463 54.483 9.70781 62.7352 18.078C71.6978 29.8318 82.2682 35.4996 77.1617 50.6828C76.0922 53.8626 68.032 56.1141 65.6297 55.4604C60.5363 54.0743 55.1974 50.5279 56.1442 45.0368C56.9136 40.5739 62.7917 35.8317 67.2707 33.5891C71.4324 31.5053 79.6228 30.5164 84.0411 31.7187C93.2694 33.4837 98.1159 37.0375 102.154 42.5486C115.277 60.4597 113.659 65.0302 108.117 85.3965" stroke="#51A3DA" stroke-width="5.12268" stroke-linecap="round"/>
</svg>
