<svg width="44" height="44" viewBox="0 0 44 44" fill="none" xmlns="http://www.w3.org/2000/svg">
<rect x="0.5" y="0.5" width="43" height="43" rx="9.5" stroke="#60269E"/>
<path d="M31 19.75C30.59 19.75 30.25 19.41 30.25 19V13.75H25C24.59 13.75 24.25 13.41 24.25 13C24.25 12.59 24.59 12.25 25 12.25H31C31.41 12.25 31.75 12.59 31.75 13V19C31.75 19.41 31.41 19.75 31 19.75Z" fill="#292D32"/>
<path d="M19 31.75H13C12.59 31.75 12.25 31.41 12.25 31V25C12.25 24.59 12.59 24.25 13 24.25C13.41 24.25 13.75 24.59 13.75 25V30.25H19C19.41 30.25 19.75 30.59 19.75 31C19.75 31.41 19.41 31.75 19 31.75Z" fill="#292D32"/>
<path d="M23.4999 21.2495C23.3099 21.2495 23.1199 21.1795 22.9699 21.0295C22.6799 20.7395 22.6799 20.2595 22.9699 19.9695L30.4699 12.4695C30.7599 12.1795 31.2399 12.1795 31.5299 12.4695C31.8199 12.7595 31.8199 13.2395 31.5299 13.5295L24.0299 21.0295C23.8799 21.1795 23.6899 21.2495 23.4999 21.2495Z" fill="#292D32"/>
<path d="M12.9999 31.7495C12.8099 31.7495 12.6199 31.6795 12.4699 31.5295C12.1799 31.2395 12.1799 30.7595 12.4699 30.4695L19.9699 22.9695C20.2599 22.6795 20.7399 22.6795 21.0299 22.9695C21.3199 23.2595 21.3199 23.7395 21.0299 24.0295L13.5299 31.5295C13.3799 31.6795 13.1899 31.7495 12.9999 31.7495Z" fill="#292D32"/>
</svg>
