<svg width="64" height="32" viewBox="0 0 64 32" fill="none" xmlns="http://www.w3.org/2000/svg">
<rect x="0.333374" width="63" height="32" rx="4" fill="white"/>
<path d="M14.8234 22V9.13H24.0394V11.344H17.4334V14.44H23.0314V16.672H17.4334V22H14.8234ZM27.126 12.766V14.242H27.18C27.468 13.702 27.786 13.306 28.134 13.054C28.482 12.79 28.92 12.658 29.448 12.658C29.7 12.658 29.892 12.682 30.024 12.73V14.872H29.97C29.142 14.788 28.476 14.968 27.972 15.412C27.468 15.856 27.216 16.552 27.216 17.5V22H24.768V12.766H27.126ZM35.1528 22.27C33.6648 22.27 32.4948 21.814 31.6428 20.902C30.7908 19.978 30.3648 18.802 30.3648 17.374C30.3648 15.994 30.7908 14.842 31.6428 13.918C32.4948 12.982 33.5868 12.514 34.9188 12.514C36.3708 12.514 37.4928 13.018 38.2848 14.026C39.0768 15.034 39.4728 16.384 39.4728 18.076H32.7768C32.8728 18.808 33.1188 19.378 33.5148 19.786C33.9108 20.182 34.4508 20.38 35.1348 20.38C36.0348 20.38 36.6288 20.002 36.9168 19.246H39.3288C39.1488 20.11 38.6928 20.83 37.9608 21.406C37.2288 21.982 36.2928 22.27 35.1528 22.27ZM34.9548 14.404C33.7668 14.404 33.0528 15.064 32.8128 16.384H36.9168C36.8808 15.796 36.6828 15.322 36.3228 14.962C35.9628 14.59 35.5068 14.404 34.9548 14.404ZM44.9438 22.27C43.4558 22.27 42.2858 21.814 41.4338 20.902C40.5818 19.978 40.1558 18.802 40.1558 17.374C40.1558 15.994 40.5818 14.842 41.4338 13.918C42.2858 12.982 43.3778 12.514 44.7098 12.514C46.1618 12.514 47.2838 13.018 48.0758 14.026C48.8678 15.034 49.2638 16.384 49.2638 18.076H42.5678C42.6638 18.808 42.9098 19.378 43.3058 19.786C43.7018 20.182 44.2418 20.38 44.9258 20.38C45.8258 20.38 46.4198 20.002 46.7078 19.246H49.1198C48.9398 20.11 48.4838 20.83 47.7518 21.406C47.0198 21.982 46.0838 22.27 44.9438 22.27ZM44.7458 14.404C43.5578 14.404 42.8438 15.064 42.6038 16.384H46.7078C46.6718 15.796 46.4738 15.322 46.1138 14.962C45.7538 14.59 45.2978 14.404 44.7458 14.404Z" fill="#60269E"/>
</svg>
