<svg width="1440" height="1761" viewBox="0 0 1440 1761" fill="none" xmlns="http://www.w3.org/2000/svg">
<g filter="url(#filter0_f_161_806)">
<path d="M811.463 307.682C915.201 319.371 884.108 500.937 951.386 580.76C1016.18 657.638 1155.57 661.304 1189.33 756.01C1222.75 849.797 1163.66 952.288 1114.68 1038.97C1068.82 1120.14 1010.62 1208.94 920.321 1232.12C832.102 1254.77 753.559 1171.57 664.058 1154.67C597.825 1142.17 532.069 1160.29 466.118 1146.38C370.465 1126.19 228.561 1146.66 193.567 1055.38C157.443 961.154 279.818 879.544 330.335 792.183C361.255 738.712 390.12 687.035 432.532 642.131C472.945 599.343 526.43 576.795 570.556 537.848C655.546 462.836 698.818 294.989 811.463 307.682Z" fill="url(#paint0_linear_161_806)" fill-opacity="0.3"/>
</g>
<defs>
<filter id="filter0_f_161_806" x="-337.504" y="-217.504" width="2061.11" height="1978.01" filterUnits="userSpaceOnUse" color-interpolation-filters="sRGB">
<feFlood flood-opacity="0" result="BackgroundImageFix"/>
<feBlend mode="normal" in="SourceGraphic" in2="BackgroundImageFix" result="shape"/>
<feGaussianBlur stdDeviation="262.252" result="effect1_foregroundBlur_161_806"/>
</filter>
<linearGradient id="paint0_linear_161_806" x1="693.051" y1="307" x2="760.706" y2="1235.76" gradientUnits="userSpaceOnUse">
<stop stop-color="#60269E"/>
<stop offset="1" stop-color="#60269E" stop-opacity="0.3"/>
</linearGradient>
</defs>
</svg>
