<svg width="20" height="17" viewBox="0 0 20 17" fill="none" xmlns="http://www.w3.org/2000/svg">
<path fill-rule="evenodd" clip-rule="evenodd" d="M2.50016 3.83333C2.50016 2.91286 3.24635 2.16667 4.16683 2.16667H13.3335C13.7937 2.16667 14.1668 1.79357 14.1668 1.33333C14.1668 0.873096 13.7937 0.5 13.3335 0.5H4.16683C2.32588 0.5 0.833496 1.99238 0.833496 3.83333V13C0.833496 14.841 2.32588 16.3333 4.16683 16.3333H15.8335C17.6744 16.3333 19.1668 14.841 19.1668 13V6.33333C19.1668 5.8731 18.7937 5.5 18.3335 5.5C17.8733 5.5 17.5002 5.8731 17.5002 6.33333V10.2077L14.4534 6.39918C13.044 4.63752 10.3284 4.75537 9.07696 6.63249L8.12727 8.05702C6.9919 7.43387 5.5595 7.78186 4.83976 8.87138L2.50016 12.413V3.83333ZM13.1519 7.44033L17.5002 12.8757V13C17.5002 13.9205 16.754 14.6667 15.8335 14.6667H7.28102C6.61545 14.6667 6.21845 13.9249 6.58765 13.3711L10.4637 7.55699C11.0894 6.61843 12.4472 6.55951 13.1519 7.44033ZM5.2009 12.4466C4.72784 13.1562 4.67409 13.9686 4.92333 14.6667H4.5835C4.12326 14.6667 3.75016 14.2936 3.75016 13.8333V13.7949C3.75016 13.6316 3.79816 13.4719 3.88818 13.3356L6.23039 9.79004C6.4427 9.46864 6.84106 9.34083 7.1922 9.45963L5.2009 12.4466Z" fill="#60269E"/>
<path d="M4.31933 5.3319C4.72023 5.46553 5.03482 5.78012 5.16846 6.18102C5.30446 6.58903 5.88158 6.58903 6.01758 6.18102C6.15121 5.78012 6.4658 5.46553 6.8667 5.3319C7.27471 5.19589 7.27471 4.61878 6.8667 4.48277C6.4658 4.34914 6.15121 4.03455 6.01758 3.63365C5.88158 3.22564 5.30446 3.22564 5.16846 3.63365C5.03482 4.03455 4.72023 4.34914 4.31933 4.48277C3.91132 4.61878 3.91132 5.19589 4.31933 5.3319Z" fill="#60269E"/>
<path d="M17.5002 1.33333C17.5002 0.873096 17.1271 0.5 16.6668 0.5C16.2066 0.5 15.8335 0.873096 15.8335 1.33333V2.16667H15.0002C14.5399 2.16667 14.1668 2.53976 14.1668 3C14.1668 3.46024 14.5399 3.83333 15.0002 3.83333H15.8335V4.66667C15.8335 5.1269 16.2066 5.5 16.6668 5.5C17.1271 5.5 17.5002 5.1269 17.5002 4.66667V3.83333H18.3335C18.7937 3.83333 19.1668 3.46024 19.1668 3C19.1668 2.53976 18.7937 2.16667 18.3335 2.16667H17.5002V1.33333Z" fill="#60269E"/>
</svg>
