<svg width="389" height="255" viewBox="0 0 389 255" fill="none" xmlns="http://www.w3.org/2000/svg">
<path d="M23.7647 0.55957H1V21.6756M23.7647 0.55957V21.6756M23.7647 0.55957H46.5294M23.7647 21.6756H1M23.7647 21.6756H46.5294M23.7647 21.6756V42.7917M1 21.6756V42.7917M46.5294 0.55957V21.6756M46.5294 0.55957H69.2941M46.5294 21.6756H69.2941M46.5294 21.6756V42.7917M69.2941 0.55957V21.6756M69.2941 0.55957H92.0588M69.2941 21.6756H92.0588M69.2941 21.6756V42.7917M92.0588 0.55957V21.6756M92.0588 0.55957H114.824M92.0588 21.6756H114.824M92.0588 21.6756V42.7917M114.824 0.55957V21.6756M114.824 0.55957H137.588M114.824 21.6756H137.588M114.824 21.6756V42.7917M137.588 0.55957V21.6756M137.588 0.55957H160.353M137.588 21.6756H160.353M137.588 21.6756V42.7917M160.353 0.55957V21.6756M160.353 0.55957H183.118M160.353 21.6756H183.118M160.353 21.6756V42.7917M183.118 0.55957V21.6756M183.118 0.55957H205.882M183.118 21.6756H205.882M183.118 21.6756V42.7917M205.882 0.55957V21.6756M205.882 0.55957H228.647M205.882 21.6756H228.647M205.882 21.6756V42.7917M228.647 0.55957V21.6756M228.647 0.55957H251.412M228.647 21.6756H251.412M228.647 21.6756V42.7917M251.412 0.55957V21.6756M251.412 0.55957H274.176M251.412 21.6756H274.176M251.412 21.6756V42.7917M274.176 0.55957V21.6756M274.176 0.55957H296.941M274.176 21.6756H296.941M274.176 21.6756V42.7917M296.941 0.55957V21.6756M296.941 0.55957H319.706M296.941 21.6756H319.706M296.941 21.6756V42.7917M319.706 0.55957V21.6756M319.706 0.55957H342.471M319.706 21.6756H342.471M319.706 21.6756V42.7917M342.471 0.55957V21.6756M342.471 0.55957H365.235M342.471 21.6756H365.235M342.471 21.6756V42.7917M365.235 0.55957V21.6756M365.235 0.55957H388V21.6756M365.235 21.6756H388M365.235 21.6756V42.7917M388 21.6756V42.7917M23.7647 42.7917H1M23.7647 42.7917H46.5294M23.7647 42.7917V63.9078M1 42.7917V63.9078M46.5294 42.7917H69.2941M46.5294 42.7917V63.9078M69.2941 42.7917H92.0588M69.2941 42.7917V63.9078M92.0588 42.7917H114.824M92.0588 42.7917V63.9078M114.824 42.7917H137.588M114.824 42.7917V63.9078M137.588 42.7917H160.353M137.588 42.7917V63.9078M160.353 42.7917H183.118M160.353 42.7917V63.9078M183.118 42.7917H205.882M183.118 42.7917V63.9078M205.882 42.7917H228.647M205.882 42.7917V63.9078M228.647 42.7917H251.412M228.647 42.7917V63.9078M251.412 42.7917H274.176M251.412 42.7917V63.9078M274.176 42.7917H296.941M274.176 42.7917V63.9078M296.941 42.7917H319.706M296.941 42.7917V63.9078M319.706 42.7917H342.471M319.706 42.7917V63.9078M342.471 42.7917H365.235M342.471 42.7917V63.9078M365.235 42.7917H388M365.235 42.7917V63.9078M388 42.7917V63.9078M23.7647 63.9078H1M23.7647 63.9078H46.5294M23.7647 63.9078V85.0239M1 63.9078V85.0239M46.5294 63.9078H69.2941M46.5294 63.9078V85.0239M69.2941 63.9078H92.0588M69.2941 63.9078V85.0239M92.0588 63.9078H114.824M92.0588 63.9078V85.0239M114.824 63.9078H137.588M114.824 63.9078V85.0239M137.588 63.9078H160.353M137.588 63.9078V85.0239M160.353 63.9078H183.118M160.353 63.9078V85.0239M183.118 63.9078H205.882M183.118 63.9078V85.0239M205.882 63.9078H228.647M205.882 63.9078V85.0239M228.647 63.9078H251.412M228.647 63.9078V85.0239M251.412 63.9078H274.176M251.412 63.9078V85.0239M274.176 63.9078H296.941M274.176 63.9078V85.0239M296.941 63.9078H319.706M296.941 63.9078V85.0239M319.706 63.9078H342.471M319.706 63.9078V85.0239M342.471 63.9078H365.235M342.471 63.9078V85.0239M365.235 63.9078H388M365.235 63.9078V85.0239M388 63.9078V85.0239M23.7647 85.0239H1M23.7647 85.0239H46.5294M23.7647 85.0239V106.14M1 85.0239V106.14M46.5294 85.0239H69.2941M46.5294 85.0239V106.14M69.2941 85.0239H92.0588M69.2941 85.0239V106.14M92.0588 85.0239H114.824M92.0588 85.0239V106.14M114.824 85.0239H137.588M114.824 85.0239V106.14M137.588 85.0239H160.353M137.588 85.0239V106.14M160.353 85.0239H183.118M160.353 85.0239V106.14M183.118 85.0239H205.882M183.118 85.0239V106.14M205.882 85.0239H228.647M205.882 85.0239V106.14M228.647 85.0239H251.412M228.647 85.0239V106.14M251.412 85.0239H274.176M251.412 85.0239V106.14M274.176 85.0239H296.941M274.176 85.0239V106.14M296.941 85.0239H319.706M296.941 85.0239V106.14M319.706 85.0239H342.471M319.706 85.0239V106.14M342.471 85.0239H365.235M342.471 85.0239V106.14M365.235 85.0239H388M365.235 85.0239V106.14M388 85.0239V106.14M23.7647 106.14H1M23.7647 106.14H46.5294M23.7647 106.14V127.256M1 106.14V127.256M46.5294 106.14H69.2941M46.5294 106.14V127.256M69.2941 106.14H92.0588M69.2941 106.14V127.256M92.0588 106.14H114.824M92.0588 106.14V127.256M114.824 106.14H137.588M114.824 106.14V127.256M137.588 106.14H160.353M137.588 106.14V127.256M160.353 106.14H183.118M160.353 106.14V127.256M183.118 106.14H205.882M183.118 106.14V127.256M205.882 106.14H228.647M205.882 106.14V127.256M228.647 106.14H251.412M228.647 106.14V127.256M251.412 106.14H274.176M251.412 106.14V127.256M274.176 106.14H296.941M274.176 106.14V127.256M296.941 106.14H319.706M296.941 106.14V127.256M319.706 106.14H342.471M319.706 106.14V127.256M342.471 106.14H365.235M342.471 106.14V127.256M365.235 106.14H388M365.235 106.14V127.256M388 106.14V127.256M23.7647 127.256H1M23.7647 127.256H46.5294M23.7647 127.256V148.372M1 127.256V148.372M46.5294 127.256H69.2941M46.5294 127.256V148.372M69.2941 127.256H92.0588M69.2941 127.256V148.372M92.0588 127.256H114.824M92.0588 127.256V148.372M114.824 127.256H137.588M114.824 127.256V148.372M137.588 127.256H160.353M137.588 127.256V148.372M160.353 127.256H183.118M160.353 127.256V148.372M183.118 127.256H205.882M183.118 127.256V148.372M205.882 127.256H228.647M205.882 127.256V148.372M228.647 127.256H251.412M228.647 127.256V148.372M251.412 127.256H274.176M251.412 127.256V148.372M274.176 127.256H296.941M274.176 127.256V148.372M296.941 127.256H319.706M296.941 127.256V148.372M319.706 127.256H342.471M319.706 127.256V148.372M342.471 127.256H365.235M342.471 127.256V148.372M365.235 127.256H388M365.235 127.256V148.372M388 127.256V148.372M23.7647 148.372H1M23.7647 148.372H46.5294M23.7647 148.372V169.488M1 148.372V169.488M46.5294 148.372H69.2941M46.5294 148.372V169.488M69.2941 148.372H92.0588M69.2941 148.372V169.488M92.0588 148.372H114.824M92.0588 148.372V169.488M114.824 148.372H137.588M114.824 148.372V169.488M137.588 148.372H160.353M137.588 148.372V169.488M160.353 148.372H183.118M160.353 148.372V169.488M183.118 148.372H205.882M183.118 148.372V169.488M205.882 148.372H228.647M205.882 148.372V169.488M228.647 148.372H251.412M228.647 148.372V169.488M251.412 148.372H274.176M251.412 148.372V169.488M274.176 148.372H296.941M274.176 148.372V169.488M296.941 148.372H319.706M296.941 148.372V169.488M319.706 148.372H342.471M319.706 148.372V169.488M342.471 148.372H365.235M342.471 148.372V169.488M365.235 148.372H388M365.235 148.372V169.488M388 148.372V169.488M23.7647 169.488H1M23.7647 169.488H46.5294M23.7647 169.488V190.604M1 169.488V190.604M46.5294 169.488H69.2941M46.5294 169.488V190.604M69.2941 169.488H92.0588M69.2941 169.488V190.604M92.0588 169.488H114.824M92.0588 169.488V190.604M114.824 169.488H137.588M114.824 169.488V190.604M137.588 169.488H160.353M137.588 169.488V190.604M160.353 169.488H183.118M160.353 169.488V190.604M183.118 169.488H205.882M183.118 169.488V190.604M205.882 169.488H228.647M205.882 169.488V190.604M228.647 169.488H251.412M228.647 169.488V190.604M251.412 169.488H274.176M251.412 169.488V190.604M274.176 169.488H296.941M274.176 169.488V190.604M296.941 169.488H319.706M296.941 169.488V190.604M319.706 169.488H342.471M319.706 169.488V190.604M342.471 169.488H365.235M342.471 169.488V190.604M365.235 169.488H388M365.235 169.488V190.604M388 169.488V190.604M23.7647 190.604H1M23.7647 190.604H46.5294M23.7647 190.604V211.72M1 190.604V211.72M46.5294 190.604H69.2941M46.5294 190.604V211.72M69.2941 190.604H92.0588M69.2941 190.604V211.72M92.0588 190.604H114.824M92.0588 190.604V211.72M114.824 190.604H137.588M114.824 190.604V211.72M137.588 190.604H160.353M137.588 190.604V211.72M160.353 190.604H183.118M160.353 190.604V211.72M183.118 190.604H205.882M183.118 190.604V211.72M205.882 190.604H228.647M205.882 190.604V211.72M228.647 190.604H251.412M228.647 190.604V211.72M251.412 190.604H274.176M251.412 190.604V211.72M274.176 190.604H296.941M274.176 190.604V211.72M296.941 190.604H319.706M296.941 190.604V211.72M319.706 190.604H342.471M319.706 190.604V211.72M342.471 190.604H365.235M342.471 190.604V211.72M365.235 190.604H388M365.235 190.604V211.72M388 190.604V211.72M23.7647 211.72H1M23.7647 211.72H46.5294M23.7647 211.72V232.836M1 211.72V232.836M46.5294 211.72H69.2941M46.5294 211.72V232.836M69.2941 211.72H92.0588M69.2941 211.72V232.836M92.0588 211.72H114.824M92.0588 211.72V232.836M114.824 211.72H137.588M114.824 211.72V232.836M137.588 211.72H160.353M137.588 211.72V232.836M160.353 211.72H183.118M160.353 211.72V232.836M183.118 211.72H205.882M183.118 211.72V232.836M205.882 211.72H228.647M205.882 211.72V232.836M228.647 211.72H251.412M228.647 211.72V232.836M251.412 211.72H274.176M251.412 211.72V232.836M274.176 211.72H296.941M274.176 211.72V232.836M296.941 211.72H319.706M296.941 211.72V232.836M319.706 211.72H342.471M319.706 211.72V232.836M342.471 211.72H365.235M342.471 211.72V232.836M365.235 211.72H388M365.235 211.72V232.836M388 211.72V232.836M23.7647 232.836H1M23.7647 232.836H46.5294M23.7647 232.836V253.952M1 232.836V253.952H23.7647M46.5294 232.836H69.2941M46.5294 232.836V253.952M69.2941 232.836H92.0588M69.2941 232.836V253.952M92.0588 232.836H114.824M92.0588 232.836V253.952M114.824 232.836H137.588M114.824 232.836V253.952M137.588 232.836H160.353M137.588 232.836V253.952M160.353 232.836H183.118M160.353 232.836V253.952M183.118 232.836H205.882M183.118 232.836V253.952M205.882 232.836H228.647M205.882 232.836V253.952M228.647 232.836H251.412M228.647 232.836V253.952M251.412 232.836H274.176M251.412 232.836V253.952M274.176 232.836H296.941M274.176 232.836V253.952M296.941 232.836H319.706M296.941 232.836V253.952M319.706 232.836H342.471M319.706 232.836V253.952M342.471 232.836H365.235M342.471 232.836V253.952M365.235 232.836H388M365.235 232.836V253.952M388 232.836V253.952H365.235M23.7647 253.952H46.5294M46.5294 253.952H69.2941M69.2941 253.952H92.0588M92.0588 253.952H114.824M114.824 253.952H137.588M137.588 253.952H160.353M160.353 253.952H183.118M183.118 253.952H205.882M205.882 253.952H228.647M228.647 253.952H251.412M251.412 253.952H274.176M274.176 253.952H296.941M296.941 253.952H319.706M319.706 253.952H342.471M342.471 253.952H365.235" stroke="url(#paint0_radial_121_305)" stroke-opacity="0.08" stroke-width="0.645"/>
<defs>
<radialGradient id="paint0_radial_121_305" cx="0" cy="0" r="1" gradientUnits="userSpaceOnUse" gradientTransform="translate(194.5 134.024) rotate(90) scale(119.658 193.792)">
<stop offset="0.9999" stop-color="#60269E"/>
<stop offset="1" stop-color="white" stop-opacity="0"/>
</radialGradient>
</defs>
</svg>
