<svg width="370" height="243" viewBox="0 0 370 243" fill="none" xmlns="http://www.w3.org/2000/svg">
<path d="M22.6471 1H1V21.0794M22.6471 1V21.0794M22.6471 1H44.2941M22.6471 21.0794H1M22.6471 21.0794H44.2941M22.6471 21.0794V41.1587M1 21.0794V41.1587M44.2941 1V21.0794M44.2941 1H65.9412M44.2941 21.0794H65.9412M44.2941 21.0794V41.1587M65.9412 1V21.0794M65.9412 1H87.5882M65.9412 21.0794H87.5882M65.9412 21.0794V41.1587M87.5882 1V21.0794M87.5882 1H109.235M87.5882 21.0794H109.235M87.5882 21.0794V41.1587M109.235 1V21.0794M109.235 1H130.882M109.235 21.0794H130.882M109.235 21.0794V41.1587M130.882 1V21.0794M130.882 1H152.529M130.882 21.0794H152.529M130.882 21.0794V41.1587M152.529 1V21.0794M152.529 1H174.176M152.529 21.0794H174.176M152.529 21.0794V41.1587M174.176 1V21.0794M174.176 1H195.824M174.176 21.0794H195.824M174.176 21.0794V41.1587M195.824 1V21.0794M195.824 1H217.471M195.824 21.0794H217.471M195.824 21.0794V41.1587M217.471 1V21.0794M217.471 1H239.118M217.471 21.0794H239.118M217.471 21.0794V41.1587M239.118 1V21.0794M239.118 1H260.765M239.118 21.0794H260.765M239.118 21.0794V41.1587M260.765 1V21.0794M260.765 1H282.412M260.765 21.0794H282.412M260.765 21.0794V41.1587M282.412 1V21.0794M282.412 1H304.059M282.412 21.0794H304.059M282.412 21.0794V41.1587M304.059 1V21.0794M304.059 1H325.706M304.059 21.0794H325.706M304.059 21.0794V41.1587M325.706 1V21.0794M325.706 1H347.353M325.706 21.0794H347.353M325.706 21.0794V41.1587M347.353 1V21.0794M347.353 1H369V21.0794M347.353 21.0794H369M347.353 21.0794V41.1587M369 21.0794V41.1587M22.6471 41.1587H1M22.6471 41.1587H44.2941M22.6471 41.1587V61.2381M1 41.1587V61.2381M44.2941 41.1587H65.9412M44.2941 41.1587V61.2381M65.9412 41.1587H87.5882M65.9412 41.1587V61.2381M87.5882 41.1587H109.235M87.5882 41.1587V61.2381M109.235 41.1587H130.882M109.235 41.1587V61.2381M130.882 41.1587H152.529M130.882 41.1587V61.2381M152.529 41.1587H174.176M152.529 41.1587V61.2381M174.176 41.1587H195.824M174.176 41.1587V61.2381M195.824 41.1587H217.471M195.824 41.1587V61.2381M217.471 41.1587H239.118M217.471 41.1587V61.2381M239.118 41.1587H260.765M239.118 41.1587V61.2381M260.765 41.1587H282.412M260.765 41.1587V61.2381M282.412 41.1587H304.059M282.412 41.1587V61.2381M304.059 41.1587H325.706M304.059 41.1587V61.2381M325.706 41.1587H347.353M325.706 41.1587V61.2381M347.353 41.1587H369M347.353 41.1587V61.2381M369 41.1587V61.2381M22.6471 61.2381H1M22.6471 61.2381H44.2941M22.6471 61.2381V81.3175M1 61.2381V81.3175M44.2941 61.2381H65.9412M44.2941 61.2381V81.3175M65.9412 61.2381H87.5882M65.9412 61.2381V81.3175M87.5882 61.2381H109.235M87.5882 61.2381V81.3175M109.235 61.2381H130.882M109.235 61.2381V81.3175M130.882 61.2381H152.529M130.882 61.2381V81.3175M152.529 61.2381H174.176M152.529 61.2381V81.3175M174.176 61.2381H195.824M174.176 61.2381V81.3175M195.824 61.2381H217.471M195.824 61.2381V81.3175M217.471 61.2381H239.118M217.471 61.2381V81.3175M239.118 61.2381H260.765M239.118 61.2381V81.3175M260.765 61.2381H282.412M260.765 61.2381V81.3175M282.412 61.2381H304.059M282.412 61.2381V81.3175M304.059 61.2381H325.706M304.059 61.2381V81.3175M325.706 61.2381H347.353M325.706 61.2381V81.3175M347.353 61.2381H369M347.353 61.2381V81.3175M369 61.2381V81.3175M22.6471 81.3175H1M22.6471 81.3175H44.2941M22.6471 81.3175V101.397M1 81.3175V101.397M44.2941 81.3175H65.9412M44.2941 81.3175V101.397M65.9412 81.3175H87.5882M65.9412 81.3175V101.397M87.5882 81.3175H109.235M87.5882 81.3175V101.397M109.235 81.3175H130.882M109.235 81.3175V101.397M130.882 81.3175H152.529M130.882 81.3175V101.397M152.529 81.3175H174.176M152.529 81.3175V101.397M174.176 81.3175H195.824M174.176 81.3175V101.397M195.824 81.3175H217.471M195.824 81.3175V101.397M217.471 81.3175H239.118M217.471 81.3175V101.397M239.118 81.3175H260.765M239.118 81.3175V101.397M260.765 81.3175H282.412M260.765 81.3175V101.397M282.412 81.3175H304.059M282.412 81.3175V101.397M304.059 81.3175H325.706M304.059 81.3175V101.397M325.706 81.3175H347.353M325.706 81.3175V101.397M347.353 81.3175H369M347.353 81.3175V101.397M369 81.3175V101.397M22.6471 101.397H1M22.6471 101.397H44.2941M22.6471 101.397V121.476M1 101.397V121.476M44.2941 101.397H65.9412M44.2941 101.397V121.476M65.9412 101.397H87.5882M65.9412 101.397V121.476M87.5882 101.397H109.235M87.5882 101.397V121.476M109.235 101.397H130.882M109.235 101.397V121.476M130.882 101.397H152.529M130.882 101.397V121.476M152.529 101.397H174.176M152.529 101.397V121.476M174.176 101.397H195.824M174.176 101.397V121.476M195.824 101.397H217.471M195.824 101.397V121.476M217.471 101.397H239.118M217.471 101.397V121.476M239.118 101.397H260.765M239.118 101.397V121.476M260.765 101.397H282.412M260.765 101.397V121.476M282.412 101.397H304.059M282.412 101.397V121.476M304.059 101.397H325.706M304.059 101.397V121.476M325.706 101.397H347.353M325.706 101.397V121.476M347.353 101.397H369M347.353 101.397V121.476M369 101.397V121.476M22.6471 121.476H1M22.6471 121.476H44.2941M22.6471 121.476V141.556M1 121.476V141.556M44.2941 121.476H65.9412M44.2941 121.476V141.556M65.9412 121.476H87.5882M65.9412 121.476V141.556M87.5882 121.476H109.235M87.5882 121.476V141.556M109.235 121.476H130.882M109.235 121.476V141.556M130.882 121.476H152.529M130.882 121.476V141.556M152.529 121.476H174.176M152.529 121.476V141.556M174.176 121.476H195.824M174.176 121.476V141.556M195.824 121.476H217.471M195.824 121.476V141.556M217.471 121.476H239.118M217.471 121.476V141.556M239.118 121.476H260.765M239.118 121.476V141.556M260.765 121.476H282.412M260.765 121.476V141.556M282.412 121.476H304.059M282.412 121.476V141.556M304.059 121.476H325.706M304.059 121.476V141.556M325.706 121.476H347.353M325.706 121.476V141.556M347.353 121.476H369M347.353 121.476V141.556M369 121.476V141.556M22.6471 141.556H1M22.6471 141.556H44.2941M22.6471 141.556V161.635M1 141.556V161.635M44.2941 141.556H65.9412M44.2941 141.556V161.635M65.9412 141.556H87.5882M65.9412 141.556V161.635M87.5882 141.556H109.235M87.5882 141.556V161.635M109.235 141.556H130.882M109.235 141.556V161.635M130.882 141.556H152.529M130.882 141.556V161.635M152.529 141.556H174.176M152.529 141.556V161.635M174.176 141.556H195.824M174.176 141.556V161.635M195.824 141.556H217.471M195.824 141.556V161.635M217.471 141.556H239.118M217.471 141.556V161.635M239.118 141.556H260.765M239.118 141.556V161.635M260.765 141.556H282.412M260.765 141.556V161.635M282.412 141.556H304.059M282.412 141.556V161.635M304.059 141.556H325.706M304.059 141.556V161.635M325.706 141.556H347.353M325.706 141.556V161.635M347.353 141.556H369M347.353 141.556V161.635M369 141.556V161.635M22.6471 161.635H1M22.6471 161.635H44.2941M22.6471 161.635V181.714M1 161.635V181.714M44.2941 161.635H65.9412M44.2941 161.635V181.714M65.9412 161.635H87.5882M65.9412 161.635V181.714M87.5882 161.635H109.235M87.5882 161.635V181.714M109.235 161.635H130.882M109.235 161.635V181.714M130.882 161.635H152.529M130.882 161.635V181.714M152.529 161.635H174.176M152.529 161.635V181.714M174.176 161.635H195.824M174.176 161.635V181.714M195.824 161.635H217.471M195.824 161.635V181.714M217.471 161.635H239.118M217.471 161.635V181.714M239.118 161.635H260.765M239.118 161.635V181.714M260.765 161.635H282.412M260.765 161.635V181.714M282.412 161.635H304.059M282.412 161.635V181.714M304.059 161.635H325.706M304.059 161.635V181.714M325.706 161.635H347.353M325.706 161.635V181.714M347.353 161.635H369M347.353 161.635V181.714M369 161.635V181.714M22.6471 181.714H1M22.6471 181.714H44.2941M22.6471 181.714V201.794M1 181.714V201.794M44.2941 181.714H65.9412M44.2941 181.714V201.794M65.9412 181.714H87.5882M65.9412 181.714V201.794M87.5882 181.714H109.235M87.5882 181.714V201.794M109.235 181.714H130.882M109.235 181.714V201.794M130.882 181.714H152.529M130.882 181.714V201.794M152.529 181.714H174.176M152.529 181.714V201.794M174.176 181.714H195.824M174.176 181.714V201.794M195.824 181.714H217.471M195.824 181.714V201.794M217.471 181.714H239.118M217.471 181.714V201.794M239.118 181.714H260.765M239.118 181.714V201.794M260.765 181.714H282.412M260.765 181.714V201.794M282.412 181.714H304.059M282.412 181.714V201.794M304.059 181.714H325.706M304.059 181.714V201.794M325.706 181.714H347.353M325.706 181.714V201.794M347.353 181.714H369M347.353 181.714V201.794M369 181.714V201.794M22.6471 201.794H1M22.6471 201.794H44.2941M22.6471 201.794V221.873M1 201.794V221.873M44.2941 201.794H65.9412M44.2941 201.794V221.873M65.9412 201.794H87.5882M65.9412 201.794V221.873M87.5882 201.794H109.235M87.5882 201.794V221.873M109.235 201.794H130.882M109.235 201.794V221.873M130.882 201.794H152.529M130.882 201.794V221.873M152.529 201.794H174.176M152.529 201.794V221.873M174.176 201.794H195.824M174.176 201.794V221.873M195.824 201.794H217.471M195.824 201.794V221.873M217.471 201.794H239.118M217.471 201.794V221.873M239.118 201.794H260.765M239.118 201.794V221.873M260.765 201.794H282.412M260.765 201.794V221.873M282.412 201.794H304.059M282.412 201.794V221.873M304.059 201.794H325.706M304.059 201.794V221.873M325.706 201.794H347.353M325.706 201.794V221.873M347.353 201.794H369M347.353 201.794V221.873M369 201.794V221.873M22.6471 221.873H1M22.6471 221.873H44.2941M22.6471 221.873V241.952M1 221.873V241.952H22.6471M44.2941 221.873H65.9412M44.2941 221.873V241.952M65.9412 221.873H87.5882M65.9412 221.873V241.952M87.5882 221.873H109.235M87.5882 221.873V241.952M109.235 221.873H130.882M109.235 221.873V241.952M130.882 221.873H152.529M130.882 221.873V241.952M152.529 221.873H174.176M152.529 221.873V241.952M174.176 221.873H195.824M174.176 221.873V241.952M195.824 221.873H217.471M195.824 221.873V241.952M217.471 221.873H239.118M217.471 221.873V241.952M239.118 221.873H260.765M239.118 221.873V241.952M260.765 221.873H282.412M260.765 221.873V241.952M282.412 221.873H304.059M282.412 221.873V241.952M304.059 221.873H325.706M304.059 221.873V241.952M325.706 221.873H347.353M325.706 221.873V241.952M347.353 221.873H369M347.353 221.873V241.952M369 221.873V241.952H347.353M22.6471 241.952H44.2941M44.2941 241.952H65.9412M65.9412 241.952H87.5882M87.5882 241.952H109.235M109.235 241.952H130.882M130.882 241.952H152.529M152.529 241.952H174.176M174.176 241.952H195.824M195.824 241.952H217.471M217.471 241.952H239.118M239.118 241.952H260.765M260.765 241.952H282.412M282.412 241.952H304.059M304.059 241.952H325.706M325.706 241.952H347.353" stroke="url(#paint0_radial_116_300)" stroke-opacity="0.08" stroke-width="0.613333"/>
<defs>
<radialGradient id="paint0_radial_116_300" cx="0" cy="0" r="1" gradientUnits="userSpaceOnUse" gradientTransform="translate(185 127.912) rotate(90) scale(113.783 184.278)">
<stop offset="0.9999" stop-color="#60269E"/>
<stop offset="1" stop-color="white" stop-opacity="0"/>
</radialGradient>
</defs>
</svg>
