<svg width="30" height="31" viewBox="0 0 30 31" fill="none" xmlns="http://www.w3.org/2000/svg">
<path d="M0.5 14.5855C0.5 6.63265 6.9471 0.185547 14.9 0.185547C22.8529 0.185547 29.3 6.63265 29.3 14.5855V30.1855H15.5C7.21574 30.1855 0.5 23.4698 0.5 15.1855V14.5855Z" fill="#60269E"/>
<path d="M12.3385 17.0585C13.2345 16.3118 13.9485 15.6912 14.4805 15.1965C15.0125 14.6925 15.4558 14.1698 15.8105 13.6285C16.1651 13.0872 16.3425 12.5552 16.3425 12.0325C16.3425 11.5565 16.2305 11.1832 16.0065 10.9125C15.7825 10.6418 15.4371 10.5065 14.9705 10.5065C14.5038 10.5065 14.1445 10.6652 13.8925 10.9825C13.6405 11.2905 13.5098 11.7152 13.5005 12.2565H11.5965C11.6338 11.1365 11.9651 10.2872 12.5905 9.70851C13.2251 9.12984 14.0278 8.84051 14.9985 8.84051C16.0625 8.84051 16.8791 9.12517 17.4485 9.69451C18.0178 10.2545 18.3025 10.9965 18.3025 11.9205C18.3025 12.6485 18.1065 13.3438 17.7145 14.0065C17.3225 14.6692 16.8745 15.2478 16.3705 15.7425C15.8665 16.2278 15.2085 16.8158 14.3965 17.5065H18.5265V19.1305H11.6105V17.6745L12.3385 17.0585Z" fill="white"/>
</svg>
