<svg width="59" height="60" viewBox="0 0 59 60" fill="none" xmlns="http://www.w3.org/2000/svg">
<path d="M0.713867 28.8C0.713867 12.8942 13.6081 0 29.5139 0C45.4197 0 58.3139 12.8942 58.3139 28.8V60H30.7139C14.1453 60 0.713867 46.5685 0.713867 30V28.8Z" fill="#60269E"/>
<path d="M25.1137 26.26C25.1803 24.9267 25.647 23.9 26.5137 23.18C27.3937 22.4467 28.547 22.08 29.9737 22.08C30.947 22.08 31.7803 22.2533 32.4737 22.6C33.167 22.9333 33.687 23.3933 34.0337 23.98C34.3937 24.5533 34.5737 25.2067 34.5737 25.94C34.5737 26.78 34.3537 27.4933 33.9137 28.08C33.487 28.6533 32.9737 29.04 32.3737 29.24V29.32C33.147 29.56 33.747 29.9867 34.1737 30.6C34.6137 31.2133 34.8337 32 34.8337 32.96C34.8337 33.76 34.647 34.4733 34.2737 35.1C33.9137 35.7267 33.3737 36.22 32.6537 36.58C31.947 36.9267 31.0937 37.1 30.0937 37.1C28.587 37.1 27.3603 36.72 26.4137 35.96C25.467 35.2 24.967 34.08 24.9137 32.6H27.6337C27.6603 33.2533 27.8803 33.78 28.2937 34.18C28.7203 34.5667 29.3003 34.76 30.0337 34.76C30.7137 34.76 31.2337 34.5733 31.5937 34.2C31.967 33.8133 32.1537 33.32 32.1537 32.72C32.1537 31.92 31.9003 31.3467 31.3937 31C30.887 30.6533 30.1003 30.48 29.0337 30.48H28.4537V28.18H29.0337C30.927 28.18 31.8737 27.5467 31.8737 26.28C31.8737 25.7067 31.7003 25.26 31.3537 24.94C31.0203 24.62 30.5337 24.46 29.8937 24.46C29.267 24.46 28.7803 24.6333 28.4337 24.98C28.1003 25.3133 27.907 25.74 27.8537 26.26H25.1137Z" fill="white"/>
</svg>
