<svg width="30" height="31" viewBox="0 0 30 31" fill="none" xmlns="http://www.w3.org/2000/svg">
<path d="M0.5 14.5855C0.5 6.63265 6.9471 0.185547 14.9 0.185547C22.8529 0.185547 29.3 6.63265 29.3 14.5855V30.1855H15.5C7.21574 30.1855 0.5 23.4698 0.5 15.1855V14.5855Z" fill="#60269E"/>
<path d="M11.5796 11.7525C11.6262 10.8192 11.9529 10.1005 12.5596 9.59651C13.1756 9.08317 13.9829 8.82651 14.9816 8.82651C15.6629 8.82651 16.2462 8.94784 16.7316 9.19051C17.2169 9.42384 17.5809 9.74584 17.8236 10.1565C18.0756 10.5578 18.2016 11.0152 18.2016 11.5285C18.2016 12.1165 18.0476 12.6158 17.7396 13.0265C17.4409 13.4278 17.0816 13.6985 16.6616 13.8385V13.8945C17.2029 14.0625 17.6229 14.3612 17.9216 14.7905C18.2296 15.2198 18.3836 15.7705 18.3836 16.4425C18.3836 17.0025 18.2529 17.5018 17.9916 17.9405C17.7396 18.3792 17.3616 18.7245 16.8576 18.9765C16.3629 19.2192 15.7656 19.3405 15.0656 19.3405C14.0109 19.3405 13.1522 19.0745 12.4896 18.5425C11.8269 18.0105 11.4769 17.2265 11.4396 16.1905H13.3436C13.3622 16.6478 13.5162 17.0165 13.8056 17.2965C14.1042 17.5672 14.5102 17.7025 15.0236 17.7025C15.4996 17.7025 15.8636 17.5718 16.1156 17.3105C16.3769 17.0398 16.5076 16.6945 16.5076 16.2745C16.5076 15.7145 16.3302 15.3132 15.9756 15.0705C15.6209 14.8278 15.0702 14.7065 14.3236 14.7065H13.9176V13.0965H14.3236C15.6489 13.0965 16.3116 12.6532 16.3116 11.7665C16.3116 11.3652 16.1902 11.0525 15.9476 10.8285C15.7142 10.6045 15.3736 10.4925 14.9256 10.4925C14.4869 10.4925 14.1462 10.6138 13.9036 10.8565C13.6702 11.0898 13.5349 11.3885 13.4976 11.7525H11.5796Z" fill="white"/>
</svg>
