<svg version="1.1" id="Layer_1" xmlns="http://www.w3.org/2000/svg" xmlns:xlink="http://www.w3.org/1999/xlink" x="0px" y="0px"
	 width="100%" viewBox="0 0 592 240" enable-background="new 0 0 592 240" xml:space="preserve">
<path fill="#000000" opacity="1.000000" stroke="none" 
	d="
M243.444168,241.000000 
	C243.550995,236.562424 240.483154,232.958389 240.153885,228.639130 
	C240.012955,226.790588 237.395172,226.997513 235.853836,227.481186 
	C233.016235,228.371582 230.168076,229.381943 227.540497,230.755798 
	C222.177612,233.559814 217.118500,232.495407 211.296906,230.244217 
	C214.128616,228.025558 216.947586,228.197174 219.534851,227.659500 
	C224.906830,226.543121 230.127350,225.096008 234.855850,222.105026 
	C237.196869,220.624222 238.071945,218.996414 237.180908,216.319519 
	C234.840805,209.289276 235.312286,201.891281 234.810776,194.666443 
	C234.363098,188.216873 234.059174,181.786102 232.862915,175.422226 
	C232.710632,174.612213 232.527191,173.712540 232.722351,172.947266 
	C235.091995,163.655609 232.298325,155.013107 230.008194,146.138245 
	C228.608917,140.715744 226.807465,136.820389 220.770966,136.206558 
	C220.153976,136.143829 219.555664,135.701172 218.996140,135.357513 
	C218.737396,135.198593 218.592987,134.853516 218.384308,134.576294 
	C219.190262,132.698013 221.050430,132.939148 222.568466,132.426575 
	C227.132507,130.885513 228.954178,127.097229 226.355835,123.070183 
	C221.594955,115.691475 216.555923,108.459549 211.175781,101.520828 
	C203.322510,91.392532 198.039291,80.155060 194.710205,67.833618 
	C192.023712,57.890648 195.486099,49.759068 200.985703,41.785122 
	C211.626419,26.356977 227.836395,22.624996 244.798828,20.254225 
	C246.675751,12.784868 240.833359,6.811504 232.966934,7.995716 
	C222.283142,9.604053 212.702484,14.093205 203.288849,19.064098 
	C199.910950,20.847815 196.551453,22.666533 193.167206,24.438061 
	C191.654556,25.229879 190.092056,25.745985 188.406235,24.653072 
	C188.647598,22.479609 190.101837,21.327015 191.746460,20.066227 
	C202.152359,12.088901 213.938278,6.853432 226.143188,2.407473 
	C226.921310,2.124026 227.654617,1.717598 228.704376,1.184188 
	C233.689255,1.000000 238.378510,1.000000 243.682037,1.296676 
	C249.171417,5.073242 252.701370,9.545990 254.414719,15.348264 
	C254.986404,17.284344 256.050140,18.649372 258.248260,18.605047 
	C261.236877,18.544779 264.252747,18.641459 267.206909,18.271494 
	C281.870789,16.435076 295.672913,18.768650 307.991791,27.163616 
	C311.248962,29.383274 314.253448,32.128960 317.658875,34.131279 
	C321.273560,36.256653 324.759186,38.564648 329.724701,36.810417 
	C352.793121,28.660782 375.201416,33.453327 397.254700,41.250519 
	C405.183289,44.053741 411.022095,49.933086 416.651215,57.416191 
	C416.651215,53.896866 416.721893,51.417294 416.637482,48.943008 
	C416.415527,42.435814 418.483673,37.046574 423.376007,32.496967 
	C432.071899,24.410284 441.700989,17.676605 452.259064,12.396660 
	C455.565277,10.743267 459.943573,10.495656 463.208160,12.989268 
	C466.419769,15.442410 469.800385,15.760250 473.514191,15.672957 
	C477.676453,15.575125 481.864929,15.379203 486.003082,15.711013 
	C495.631104,16.483015 504.535797,19.080538 511.544189,26.375307 
	C522.101990,37.364506 524.915710,51.280170 526.188965,65.606293 
	C526.631958,70.590027 528.798401,72.408592 533.192505,72.685127 
	C535.016418,72.799896 536.855347,72.686424 538.687195,72.660164 
	C541.256836,72.623329 544.180969,72.533150 544.470154,75.879890 
	C544.747742,79.092537 541.511780,78.784508 539.528931,79.630127 
	C539.071167,79.825348 538.576233,80.183418 538.136414,80.133232 
	C530.333313,79.243004 528.292114,84.595039 527.572571,90.513031 
	C526.602234,98.493965 522.109802,103.413307 515.303711,106.789925 
	C504.667328,112.066826 492.973267,113.983009 481.741486,117.369598 
	C478.063995,118.478447 473.864075,117.955063 469.612061,121.460480 
	C479.598694,126.795876 490.158752,125.094177 499.857666,127.077217 
	C509.753632,129.100555 520.122803,126.810631 530.918701,128.975906 
	C529.011108,125.860832 527.184326,124.006653 527.446045,121.705269 
	C550.260864,113.042511 571.633606,119.985336 593.000000,127.000000 
	C593.000000,132.354935 593.000000,137.709854 592.758423,143.763336 
	C589.671631,149.472214 586.850586,154.503204 581.673950,157.624313 
	C580.207214,156.171143 580.703979,154.597992 580.698303,153.186890 
	C580.675049,147.419083 578.088013,144.655807 572.341492,144.349808 
	C571.023743,144.279648 569.050537,144.554260 568.508545,143.827621 
	C565.070740,139.219040 560.224426,140.628693 555.716675,140.315582 
	C551.788635,140.042740 548.720398,140.606125 548.937317,145.657883 
	C535.984741,137.434052 534.214355,138.592957 524.533997,138.104767 
	C518.642639,137.807678 512.648193,137.587067 506.719666,136.684311 
	C500.613129,135.754425 494.340637,135.914230 487.768768,135.578217 
	C488.014496,136.837112 488.041229,137.494202 488.278839,138.063248 
	C488.595276,138.821182 488.918274,139.694168 489.509613,140.201828 
	C498.173798,147.639526 501.788879,157.473846 502.006592,168.452301 
	C502.148987,175.633499 502.325073,183.151321 497.747803,189.476334 
	C490.372833,199.667343 480.480621,206.408737 468.416229,209.674911 
	C464.025696,210.863541 460.463623,211.683411 461.167969,217.477753 
	C461.471344,219.973450 459.431641,221.762344 457.154724,222.669128 
	C455.363953,223.382324 454.093933,221.814301 453.628235,220.603775 
	C450.405334,212.225525 444.594757,206.574997 436.315521,203.294174 
	C435.591766,203.007385 435.123505,202.133286 434.449890,201.653732 
	C428.633789,197.513000 424.552673,191.980835 421.214691,185.747665 
	C420.378113,184.185516 419.388092,182.080841 416.645752,182.817337 
	C409.217468,184.812271 406.297699,183.804031 401.936737,177.729111 
	C398.689331,173.205399 395.515289,168.624588 393.161621,163.138153 
	C392.129608,164.053635 391.522614,164.392059 391.200104,164.908218 
	C386.434204,172.535110 379.572235,175.900665 370.616089,175.451431 
	C367.574677,175.298889 367.206757,177.178650 367.953735,179.847214 
	C369.696899,186.074768 371.287048,192.348526 372.790039,198.639206 
	C375.503235,209.995361 369.978821,223.742569 360.687500,230.956177 
	C355.214478,235.205322 348.345856,236.707077 343.000000,241.000000 
	C339.307098,241.000000 335.614166,241.000000 331.211609,240.764893 
	C302.273163,228.384659 288.787537,205.230743 282.990509,175.728317 
	C282.929474,198.072632 285.235504,219.695374 280.000000,241.000000 
	C273.645599,241.000000 267.291199,241.000000 260.320984,240.670197 
	C257.210693,235.342300 254.590729,230.401199 252.281616,225.318878 
	C251.316757,223.195221 251.143356,220.590424 247.793930,221.492447 
	C244.851166,222.284958 244.602753,224.901535 244.878540,227.067780 
	C245.537460,232.243607 248.040771,236.756042 251.000000,241.000000 
	C248.629440,241.000000 246.258896,241.000000 243.444168,241.000000 
M314.437927,160.071014 
	C316.851135,167.113861 318.231628,174.504715 322.061310,181.067810 
	C325.699554,187.302811 328.901215,188.519531 335.506744,185.711533 
	C338.135132,184.594193 340.561279,182.545578 343.802155,183.409851 
	C342.750458,188.762817 334.288208,193.694641 328.252655,192.772858 
	C318.917084,191.347107 314.643341,184.640808 311.685913,176.749756 
	C307.050232,164.380844 305.099548,151.474533 304.695038,138.325043 
	C304.623260,135.992065 303.878235,134.267014 301.605743,133.902252 
	C297.537384,133.249207 293.421661,132.848221 289.311371,132.523499 
	C287.912689,132.413010 286.568481,133.262283 286.329681,134.718597 
	C285.740204,138.312805 284.050720,141.748611 284.396912,145.459671 
	C285.863373,161.179810 288.433350,176.751099 294.543915,191.359253 
	C301.374146,207.687912 310.700256,222.014847 327.743439,229.982208 
	C336.406982,234.032242 343.869537,233.638962 351.427216,228.113510 
	C353.818054,226.365555 354.827820,224.834869 353.919312,221.535538 
	C350.919556,210.641602 348.949127,199.535812 349.671387,188.141159 
	C349.870056,185.007294 350.365936,181.893295 350.621002,178.761688 
	C350.861664,175.807297 349.365448,174.167099 346.529480,173.417358 
	C336.014282,170.637466 329.134857,161.435883 330.915710,150.819946 
	C331.828827,145.376770 330.088989,141.484406 327.520355,137.402969 
	C324.674744,132.881393 320.152527,131.479797 314.393219,133.597763 
	C309.904449,135.248505 313.818054,138.458267 313.471191,140.900955 
	C312.961304,144.491348 313.406860,148.209854 313.323914,151.871033 
	C313.266724,154.393829 313.517395,156.843140 314.437927,160.071014 
M468.569550,27.215183 
	C467.293823,36.237984 465.878143,45.382122 465.720947,54.366898 
	C465.448334,69.951347 461.992493,84.536461 456.806274,99.020050 
	C453.924377,107.068306 458.981171,113.292053 467.288513,111.429230 
	C482.711304,107.970871 498.810120,106.184875 512.190002,96.461456 
	C515.160400,94.302773 517.281677,92.207642 516.073059,87.777748 
	C514.998901,83.840630 515.644409,79.569466 516.092102,75.396805 
	C516.613464,70.537544 516.942139,65.112617 514.373718,61.028538 
	C512.000061,57.254147 513.370850,52.332439 509.793915,49.239586 
	C509.568573,49.044750 510.033081,48.004143 510.233490,47.375099 
	C510.618042,46.167980 510.037384,45.338467 509.550262,44.231236 
	C506.819885,38.024860 501.438934,34.407021 496.390106,30.598297 
	C488.093811,24.339758 478.671570,24.061295 468.569550,27.215183 
M261.107697,25.342520 
	C256.674347,24.295094 255.206238,26.218952 255.295456,30.546528 
	C255.456680,38.367401 256.152374,46.325912 255.038055,53.996418 
	C251.757202,76.580490 248.211273,99.126442 245.429138,121.781143 
	C245.094971,124.502197 244.232254,127.459343 246.044907,129.070663 
	C254.825851,132.066101 258.503174,126.955650 261.993683,121.054268 
	C265.618134,114.926422 270.009735,109.292992 274.802399,104.034523 
	C279.700043,98.660896 282.011475,92.555061 282.804230,85.266907 
	C284.286774,71.637535 287.189484,58.462391 299.206390,49.360008 
	C303.016083,46.474319 306.918396,43.977692 312.576782,41.991989 
	C307.836243,39.183369 306.102600,34.153194 301.350616,33.553627 
	C297.645996,33.086205 294.113373,32.242584 290.836823,30.772104 
	C281.613708,26.632872 272.175842,24.093355 261.107697,25.342520 
M223.944748,106.590530 
	C226.017792,109.385040 228.192764,112.111015 230.131912,114.995537 
	C231.711716,117.345512 233.963928,116.579338 236.017212,116.547340 
	C238.234116,116.512802 239.131638,114.835861 239.531357,112.934639 
	C239.974167,110.828316 240.563553,108.693695 240.582291,106.566925 
	C240.702789,92.884628 245.512329,79.882423 246.257172,66.280647 
	C246.800415,56.360168 248.788544,46.429092 248.397461,36.571575 
	C247.978958,26.022850 246.757721,26.391668 238.096939,28.581751 
	C231.516647,30.245735 223.967972,30.628929 218.677597,34.251072 
	C210.641068,39.753418 203.105545,46.676750 200.021423,56.796722 
	C199.463989,58.625816 199.253006,60.329105 199.716888,62.162357 
	C201.679047,69.916733 204.248901,77.359070 208.940155,84.015991 
	C214.002945,91.200066 218.684891,98.652504 223.944748,106.590530 
M386.296844,46.836483 
	C384.879456,47.738434 384.407227,48.898453 384.745026,50.641533 
	C386.449432,59.436214 384.526459,68.113350 383.748016,76.828178 
	C382.698029,88.583244 378.766510,99.760010 376.809479,111.341629 
	C376.190002,115.007797 377.027557,116.675110 380.775909,117.068344 
	C382.008057,115.253067 382.012115,112.027527 385.381042,112.877701 
	C387.874451,113.506935 389.310699,114.923004 389.481537,117.757523 
	C389.659027,120.701736 391.451202,122.668930 394.475128,123.110062 
	C398.549805,123.704498 402.704407,124.679260 406.546326,122.250511 
	C407.639587,121.559395 407.603455,120.245552 407.618347,119.074570 
	C407.771179,107.061134 410.727234,95.498222 413.353851,83.893440 
	C415.026794,76.502029 415.535431,69.551132 409.304504,63.695637 
	C404.583374,59.258968 400.314850,54.337902 395.556244,49.945107 
	C393.273621,47.837971 390.335205,46.422028 386.296844,46.836483 
M375.666565,72.436394 
	C376.298218,67.853790 376.948883,63.273712 377.556854,58.687969 
	C378.364655,52.594830 374.971252,46.450340 370.149292,46.677658 
	C362.371490,47.044315 354.758514,48.898735 348.011780,53.075222 
	C344.942627,54.975140 341.193634,56.826832 339.555939,59.720703 
	C337.553375,63.259315 342.170288,66.028595 343.137268,69.431381 
	C346.532532,81.378830 350.036041,93.298409 353.188690,105.309875 
	C353.992798,108.373466 354.250732,111.376572 358.189484,111.540306 
	C365.327789,111.837036 368.220337,110.249184 369.441010,105.479492 
	C372.152039,94.886658 373.974121,84.119705 375.666565,72.436394 
M488.066071,162.337097 
	C482.967712,152.579742 475.732056,144.364120 468.800934,135.955261 
	C466.460052,133.115311 457.681976,132.044312 455.850525,134.297867 
	C452.459442,138.470398 449.754974,143.478592 450.726349,148.886444 
	C452.709167,159.925156 455.394867,170.844040 458.005157,181.761093 
	C459.425293,187.700424 463.316132,189.932877 469.119965,188.225754 
	C476.238281,186.131973 482.488739,182.566666 487.193176,176.602951 
	C490.593933,172.291916 491.969940,167.896042 488.066071,162.337097 
M264.391846,174.210846 
	C264.526642,176.354126 264.565765,178.508469 264.812469,180.638779 
	C265.993042,190.832657 264.907806,200.663071 258.286560,208.846085 
	C254.876953,213.059906 255.474274,216.494080 257.820312,220.526627 
	C261.410553,226.697739 265.591461,232.415909 270.347046,237.741409 
	C271.302155,238.810989 272.111450,239.721237 273.628876,239.457184 
	C275.304688,239.165573 275.379333,237.846817 275.678314,236.482941 
	C279.952515,216.984756 277.328400,197.532394 274.651703,178.229813 
	C272.942505,165.904205 267.994965,153.995804 270.625671,141.190765 
	C270.820496,140.242447 270.712891,139.176010 270.510468,138.214020 
	C270.122711,136.370941 269.455780,134.550247 267.206299,134.393265 
	C265.083771,134.245102 262.803497,133.947281 261.515778,136.383286 
	C260.978455,137.399765 260.494965,138.498413 259.740173,139.337769 
	C253.838196,145.901184 256.482300,152.537918 258.778442,159.670319 
	C260.717529,165.693665 264.790070,163.739548 268.576385,163.843964 
	C268.877014,163.852234 269.171021,164.102051 269.516907,164.262222 
	C270.390961,168.703949 265.641418,170.085236 264.391846,174.210846 
M319.355042,102.894203 
	C321.043732,110.190353 325.421234,116.183578 329.613647,122.036636 
	C331.786224,125.069847 336.011688,126.712280 340.392090,124.703995 
	C344.989471,122.596199 349.217285,118.923805 348.238586,114.245842 
	C346.203278,104.517570 346.389069,93.884315 339.385223,85.659340 
	C338.310547,84.397293 338.085327,83.284966 338.441772,81.615173 
	C339.701843,75.712250 335.697113,71.972092 332.933990,67.533264 
	C329.373932,69.524292 327.434174,72.094231 325.586304,74.931145 
	C320.177917,83.234322 318.261475,92.257172 319.355042,102.894203 
M435.370087,72.467514 
	C435.230469,74.229324 434.021973,75.833023 435.026245,77.774673 
	C438.369232,84.237831 441.644836,90.720634 447.928284,94.985054 
	C449.317383,93.738571 449.412292,92.272537 449.684174,90.798187 
	C450.854156,84.453682 452.037506,78.108658 453.394165,71.802162 
	C456.157898,58.954964 456.772400,45.884602 457.646393,32.837120 
	C457.910187,28.898829 456.138855,27.933369 452.435791,28.741076 
	C444.111176,30.556824 437.337372,33.887772 433.888916,42.579990 
	C432.661682,45.673420 431.803253,47.403893 434.746155,49.681923 
	C438.093750,52.273193 438.782715,56.128323 438.142944,60.057671 
	C437.505737,63.971371 436.388763,67.806961 435.370087,72.467514 
M296.902924,59.493713 
	C295.783539,61.721802 294.624969,63.931213 293.552704,66.181755 
	C291.107178,71.314560 290.025269,76.889908 288.505249,82.313484 
	C288.027374,84.018654 287.989502,86.141014 289.861755,87.271919 
	C291.428131,88.218056 292.544647,86.881989 293.834106,86.097145 
	C296.926392,84.214973 298.988983,81.545296 300.715759,78.450714 
	C302.693634,74.906143 305.128143,71.787476 309.516296,71.183517 
	C312.230927,73.437782 310.532623,77.450935 313.229553,80.612167 
	C315.342041,76.060455 318.211548,72.628159 320.395264,68.795937 
	C322.198608,65.631218 326.451904,63.485180 326.204559,59.871868 
	C325.965637,56.382000 321.756958,54.261864 320.179657,51.024746 
	C318.764587,48.120575 317.045685,48.234123 314.543823,49.154972 
	C308.261566,51.467262 302.432770,54.526848 296.902924,59.493713 
M371.570465,138.097931 
	C370.929016,139.978928 370.162506,141.827713 369.668427,143.746658 
	C367.837097,150.858978 363.758453,157.487915 365.292053,165.341690 
	C365.718262,167.524292 366.164520,169.314896 368.621826,169.532288 
	C374.158844,170.022171 379.086243,167.820587 383.688873,165.258255 
	C386.767609,163.544296 386.098450,159.650711 386.535187,156.685989 
	C387.101440,152.842407 388.202423,148.211151 385.160461,145.346161 
	C382.403076,142.749176 382.696930,141.077286 384.007965,138.160126 
	C386.098114,133.509354 384.356842,131.490402 379.298950,131.306061 
	C374.798950,131.142029 373.344360,134.158127 371.570465,138.097931 
M296.759430,90.321823 
	C286.506866,96.736320 283.688049,106.254044 285.338867,117.646492 
	C285.409515,118.134056 285.412201,118.649780 285.340515,119.136772 
	C284.765594,123.041443 286.936798,126.508247 289.973663,126.951172 
	C293.714752,127.496803 298.251007,127.665268 301.626526,124.595207 
	C302.713776,123.606354 302.797272,122.209564 302.274323,120.897423 
	C301.377411,118.646896 301.687378,116.313843 301.670013,114.009727 
	C301.616272,106.876831 301.696045,99.742180 301.568970,92.610970 
	C301.519806,89.852585 301.069855,87.077736 296.759430,90.321823 
M398.949921,147.690659 
	C402.468628,157.301498 404.451355,167.665237 411.977173,175.914841 
	C414.291595,173.122269 413.602661,170.939621 412.940674,168.708755 
	C409.828308,158.220383 406.801147,147.704498 406.676331,136.640732 
	C406.643799,133.754074 406.611115,131.197281 402.623566,131.359650 
	C399.004791,131.507004 396.446442,132.684219 396.357452,136.801880 
	C396.280273,140.373260 397.748108,143.599548 398.949921,147.690659 
M240.323334,172.934067 
	C240.753006,176.802002 239.375549,180.869003 241.479401,184.790863 
	C243.456116,184.227753 244.258331,181.416092 247.128296,182.531052 
	C246.588745,190.622467 251.040237,197.744537 251.779312,206.008179 
	C252.723694,205.471039 253.247742,205.318817 253.544724,204.972107 
	C254.074524,204.353622 254.520172,203.646255 254.908997,202.926361 
	C258.810211,195.703354 258.217926,187.918625 257.506287,180.194229 
	C257.209503,176.972839 254.047668,176.408081 251.615601,175.587601 
	C249.798294,174.974548 247.955353,175.341446 247.197342,177.618179 
	C246.821915,178.745850 245.994553,179.130463 244.480957,178.673981 
	C242.914169,175.585617 244.187119,171.232010 240.662872,168.047363 
	C240.533768,169.622833 240.431885,170.866119 240.323334,172.934067 
M353.685486,140.836975 
	C353.434937,138.440628 352.219116,136.429214 350.998169,134.458130 
	C350.273804,133.288742 349.278442,132.544922 347.641144,133.210022 
	C345.136719,134.227325 341.598297,140.092682 342.951874,142.295288 
	C346.408722,147.920410 350.382904,153.227615 354.669800,159.411697 
	C356.633728,152.558502 354.718323,147.130005 353.685486,140.836975 
M426.778839,150.522690 
	C427.849304,152.840225 427.869812,155.638565 430.637756,158.326385 
	C431.773254,152.303757 432.769440,146.939194 433.799286,141.581100 
	C434.789948,136.426773 434.366089,136.159210 429.447388,137.206680 
	C426.870178,137.755524 426.249451,139.048050 426.335999,141.309692 
	C426.443237,144.111969 426.460663,146.917664 426.778839,150.522690 
M335.511902,42.859768 
	C334.721039,43.109081 333.861420,43.235847 333.153656,43.633179 
	C331.671234,44.465359 329.093079,44.922729 330.361237,47.389084 
	C331.435852,49.479050 332.960876,52.335678 336.041748,50.735600 
	C341.337769,47.985088 346.399689,44.783733 352.802948,41.045994 
	C346.079285,39.929890 341.244720,42.134346 335.511902,42.859768 
M311.104767,101.933449 
	C311.013916,101.390427 310.923096,100.847412 310.832275,100.304398 
	C310.644989,107.871140 311.019287,115.361313 311.365509,122.852783 
	C311.452545,124.736710 312.245209,126.159676 314.143188,126.465065 
	C315.743469,126.722549 317.684113,127.226814 318.930725,125.957039 
	C320.551056,124.306541 319.310608,122.352211 318.363617,120.937874 
	C314.595306,115.309952 312.783386,108.970795 311.104767,101.933449 
M442.641632,168.888580 
	C442.804504,163.604462 442.661896,158.362045 440.783447,152.811646 
	C433.154480,169.986481 434.291626,171.647766 440.681763,173.979691 
	C442.265839,172.999405 442.588684,171.422394 442.641632,168.888580 
M435.006409,188.491547 
	C437.480774,191.305283 440.002747,194.050522 444.092346,194.916397 
	C441.629456,186.972641 434.280457,184.248291 428.284760,178.688049 
	C429.676117,183.123993 432.809509,185.062485 435.006409,188.491547 
M358.256165,189.783005 
	C357.178589,194.900864 355.992279,200.032776 360.211731,205.716766 
	C360.863556,201.495209 360.998749,198.437195 361.815552,195.426697 
	C362.354980,193.438507 362.212189,189.811600 358.256165,189.783005 
M277.324799,116.103310 
	C278.212677,116.693932 278.702759,118.070000 280.431763,117.491241 
	C280.524902,114.207489 281.347260,110.848877 279.815887,107.580780 
	C273.573578,109.224617 272.848267,111.378189 277.324799,116.103310 
M245.718842,209.272263 
	C244.432846,206.304611 244.465485,202.746628 241.459259,199.494537 
	C241.818115,205.199432 239.950882,210.500427 245.002838,214.131485 
	C246.961273,212.765518 246.690140,211.396332 245.718842,209.272263 
M254.418945,136.949234 
	C252.402466,134.435852 250.272614,135.059280 247.976257,136.589478 
	C248.219955,139.144623 249.015015,141.136383 251.472916,142.150330 
	C253.259369,141.096085 254.951248,140.081482 254.418945,136.949234 
M443.113342,107.493004 
	C442.141449,106.425026 441.169586,105.357040 439.630157,103.665398 
	C440.652832,108.325790 440.108673,112.499954 442.919952,116.105949 
	C445.934906,113.306091 445.304535,110.707619 443.113342,107.493004 
M469.127380,197.984756 
	C466.109863,197.652695 463.092346,197.320618 459.907928,196.970184 
	C461.973755,202.750641 464.556824,202.955338 469.127380,197.984756 
M416.938446,106.472946 
	C416.821991,106.380310 416.705505,106.287674 416.589020,106.195045 
	C416.517334,106.342819 416.380707,106.491745 416.383331,106.638206 
	C416.468872,111.475174 414.022552,116.330963 416.560089,121.967606 
	C418.129730,116.485580 417.763947,111.738647 416.938446,106.472946 
M243.997757,151.615173 
	C244.611008,153.454132 244.177246,155.187057 243.641434,156.978424 
	C243.210602,158.418716 243.751892,159.835022 245.378433,159.975143 
	C247.070389,160.120880 247.572479,158.684814 247.573074,157.258179 
	C247.574158,154.644653 246.660477,152.471298 243.997757,151.615173 
M358.020630,121.211876 
	C359.149139,125.276726 360.695770,125.677544 364.202026,122.586311 
	C362.561005,120.995041 360.798828,120.123543 358.020630,121.211876 
M266.710175,122.749527 
	C265.303467,124.461517 264.789490,126.054474 267.164612,127.475502 
	C268.887390,126.052444 269.419159,124.348289 269.113434,122.545235 
	C268.808594,120.747597 267.855103,121.724312 266.710175,122.749527 
z"/>
<path fill="#000000" opacity="1.000000" stroke="none" 
	d="
M145.702774,184.359772 
	C143.819199,184.600464 141.996307,184.211563 140.394272,183.325363 
	C127.668213,176.285751 113.989746,170.899017 102.579216,161.569214 
	C100.192886,159.618027 96.304497,160.842712 94.461205,164.385376 
	C93.522194,166.190094 92.612167,168.107864 90.543747,166.668961 
	C88.715591,165.397186 89.504219,163.440536 91.070900,162.012573 
	C93.464882,159.830536 93.310478,157.890244 90.226334,155.815170 
	C88.325653,161.823761 86.641853,167.489349 87.918373,173.842148 
	C82.918472,171.346161 84.815918,165.941681 82.071777,163.047363 
	C80.338737,165.649506 79.802605,171.835495 80.546906,177.029022 
	C83.031738,194.367386 82.513931,211.833466 82.137077,229.258026 
	C82.047546,233.397858 79.896698,237.295624 74.329689,238.166183 
	C68.790474,221.838821 71.177925,205.001816 70.534279,187.955109 
	C66.312065,205.554611 64.672485,222.796082 68.865356,240.623398 
	C66.299988,241.000000 63.599972,241.000000 60.596710,240.613770 
	C60.415745,233.408752 60.469589,226.587921 60.676205,219.771713 
	C60.993256,209.312286 59.900913,198.826981 61.586620,188.386551 
	C62.956280,179.903549 62.781494,171.328171 62.661171,162.390518 
	C54.962673,162.221924 48.540337,165.958481 41.488834,166.830231 
	C44.625278,167.944199 48.034443,166.702637 51.722828,169.439835 
	C34.581753,174.762527 17.670126,174.502899 1.000000,176.000000 
	C1.000000,173.958328 1.000000,171.916672 1.000000,169.437500 
	C14.748007,162.571152 29.922409,162.117371 44.367439,158.610535 
	C49.033550,157.477737 53.602909,155.940689 58.203228,154.544739 
	C61.008419,153.693512 62.324490,152.011185 62.753716,148.830978 
	C64.731476,134.177444 65.208931,119.461044 65.961655,104.718742 
	C66.523872,93.707474 65.787659,82.957664 65.080757,72.057999 
	C64.671844,65.752876 66.843987,59.330803 66.944771,52.835339 
	C66.974174,50.940491 68.783257,49.844620 70.881241,49.687920 
	C73.317612,49.505951 75.247467,50.319130 76.138313,52.599804 
	C81.608818,66.604874 83.792450,81.097031 81.941895,96.058067 
	C81.243347,101.705482 80.851547,107.301254 82.033356,112.880539 
	C83.003387,117.459969 81.639610,121.812462 80.844162,126.163162 
	C80.372833,128.741089 80.573006,130.889603 82.218643,132.648056 
	C85.948074,136.633148 89.040977,141.230362 93.646431,144.393631 
	C96.143822,146.108963 98.047966,146.935776 100.272217,143.771683 
	C101.689972,141.754868 103.487106,139.603638 105.859238,138.916626 
	C107.209290,139.633408 107.321686,140.504150 107.270134,141.302307 
	C106.974564,145.878387 109.616432,146.091614 113.053665,145.343872 
	C122.609322,143.265106 132.135788,141.069260 142.054184,141.617157 
	C145.492035,141.807068 147.159439,142.750458 145.992645,145.825348 
	C133.692322,149.986542 120.955902,146.873871 108.923775,150.362534 
	C107.778534,150.694595 106.488258,150.726196 106.121742,152.026169 
	C105.615067,153.823257 107.113449,154.898865 108.216209,155.673111 
	C113.639999,159.481186 119.210396,163.079742 124.705727,166.786804 
	C132.116043,171.785675 140.204712,175.891327 146.051147,183.439636 
	C145.925308,184.079437 145.814041,184.219604 145.702774,184.359772 
z"/>
<path fill="#000000" opacity="1.000000" stroke="none" 
	d="
M173.861099,198.369843 
	C179.063904,205.461487 185.783615,210.753540 190.812576,217.585754 
	C193.951187,221.849823 199.293167,222.560196 203.768829,224.630753 
	C206.401413,225.848633 209.473068,226.421707 210.762741,229.360306 
	C209.852051,231.697830 208.024643,231.371628 206.421631,231.341293 
	C199.608185,231.212418 193.033524,229.338974 187.783981,225.319504 
	C178.459549,218.179962 171.118973,209.182022 167.701385,197.633102 
	C167.075363,195.517593 165.573853,195.189651 164.148590,194.658066 
	C160.640625,193.349670 157.827972,192.447830 158.003357,187.260025 
	C158.115723,183.936401 154.822723,180.636734 154.230225,176.719971 
	C153.375534,171.069916 153.435654,165.466888 154.049683,159.862381 
	C154.642029,154.455826 155.312225,149.490997 151.426834,144.490631 
	C148.775986,141.079071 152.362839,137.009262 153.281143,133.025497 
	C156.328278,133.757767 157.005753,136.830750 159.250793,138.161942 
	C160.990051,139.193237 162.238297,139.467682 163.602356,137.947571 
	C166.035934,135.235580 169.030853,133.094559 171.045822,129.933029 
	C175.504684,122.937057 182.127045,119.727623 190.328522,119.672913 
	C197.082474,119.627853 197.715652,120.270111 198.617691,127.595955 
	C184.344391,127.317337 178.061066,130.147888 174.787628,138.350266 
	C176.313309,140.801682 179.306259,138.676559 181.492813,140.670731 
	C178.928772,141.308868 176.608719,141.727936 174.395126,142.466171 
	C167.038910,144.919403 162.446304,151.278900 162.351166,159.053986 
	C162.302505,163.030685 162.293579,166.969879 163.352814,170.908920 
	C166.367065,182.118195 173.123520,186.172714 184.464172,183.149185 
	C187.823517,182.253571 191.100967,181.126358 194.018082,179.032822 
	C195.544968,177.937057 197.251556,176.627991 199.777420,177.296936 
	C200.156113,180.622391 198.092590,182.260010 195.601364,183.743759 
	C189.680191,187.270279 182.955521,187.375412 176.436035,188.351166 
	C174.854126,188.587936 173.029434,188.013489 171.997284,189.903564 
	C171.781052,191.990631 174.402618,191.427185 174.556671,191.978439 
	C175.487366,194.847321 173.128998,196.135666 173.861099,198.369843 
z"/>
<path fill="#000000" opacity="1.000000" stroke="none" 
	d="
M212.545105,124.202461 
	C216.143036,131.910599 218.212769,139.139008 213.957306,147.279022 
	C210.733704,153.445282 215.694839,168.491882 220.346359,173.016190 
	C223.207184,175.798782 226.197495,172.299927 228.605042,174.400375 
	C226.878952,178.499344 223.525543,180.215912 219.657990,178.749207 
	C216.047287,177.379868 212.617844,175.497086 210.368927,172.277817 
	C208.722488,169.920990 206.866165,168.955017 204.054642,170.022079 
	C203.479523,166.683411 203.653748,163.801971 204.290268,160.813034 
	C205.645569,154.449081 203.089920,148.365372 202.452072,142.136826 
	C202.250931,140.172745 200.296112,140.349655 198.821167,140.403610 
	C194.807556,140.550461 190.984558,139.666641 187.114655,138.648727 
	C187.252838,135.641937 189.073776,134.803574 191.442871,134.712814 
	C193.937378,134.617264 196.436798,134.651047 198.934036,134.625122 
	C200.715118,134.606644 202.789291,134.237366 202.480469,132.112930 
	C201.287888,123.908875 206.849594,124.144066 212.545105,124.202461 
z"/>
<path fill="#000000" opacity="1.000000" stroke="none" 
	d="
M121.676895,118.655678 
	C118.712105,124.426483 114.049866,128.801682 112.316101,134.869568 
	C111.916214,136.269119 111.056305,137.274384 109.454102,137.098526 
	C107.563980,136.891068 107.752548,135.329269 107.705917,134.040726 
	C107.606522,131.294144 108.509331,128.853638 110.004494,126.559837 
	C122.514046,107.368370 134.038284,87.588699 145.160904,67.569786 
	C145.641617,66.704575 146.119125,65.778633 146.814545,65.104095 
	C148.211151,63.749393 149.690048,61.794567 151.898773,63.392269 
	C154.012604,64.921326 153.584579,67.136177 152.617889,69.230690 
	C144.458115,86.910637 132.363205,102.129059 121.676895,118.655678 
z"/>
<path fill="#000000" opacity="1.000000" stroke="none" 
	d="
M146.203156,183.728760 
	C147.347153,183.566010 148.331314,183.557526 149.300385,183.674423 
	C150.815506,183.857193 152.801315,183.284180 153.116318,185.678436 
	C153.246765,186.670090 153.090286,187.719559 151.897934,188.026123 
	C150.071579,188.495651 148.330261,188.585373 147.316238,186.482513 
	C147.037109,185.903641 146.571320,185.414780 145.946976,184.622192 
	C145.814041,184.219604 145.925308,184.079437 146.203156,183.728760 
z"/>
</svg>