<svg width="20" height="21" viewBox="0 0 20 21" fill="none" xmlns="http://www.w3.org/2000/svg">
<mask id="mask0_867_2958" style="mask-type:alpha" maskUnits="userSpaceOnUse" x="0" y="0" width="20" height="21">
<rect y="0.5" width="20" height="20" fill="#D9D9D9"/>
</mask>
<g mask="url(#mask0_867_2958)">
<path d="M9.99967 13.8335C11.0413 13.8335 11.9269 13.4691 12.6563 12.7402C13.3852 12.0107 13.7497 11.1252 13.7497 10.0835C13.7497 9.04183 13.3852 8.15627 12.6563 7.42683C11.9269 6.69794 11.0413 6.3335 9.99967 6.3335C8.95801 6.3335 8.07245 6.69794 7.34301 7.42683C6.61412 8.15627 6.24967 9.04183 6.24967 10.0835C6.24967 11.1252 6.61412 12.0107 7.34301 12.7402C8.07245 13.4691 8.95801 13.8335 9.99967 13.8335ZM9.99967 12.3335C9.37467 12.3335 8.84356 12.1146 8.40634 11.6768C7.96856 11.2396 7.74967 10.7085 7.74967 10.0835C7.74967 9.4585 7.96856 8.92711 8.40634 8.48933C8.84356 8.05211 9.37467 7.8335 9.99967 7.8335C10.6247 7.8335 11.1561 8.05211 11.5938 8.48933C12.0311 8.92711 12.2497 9.4585 12.2497 10.0835C12.2497 10.7085 12.0311 11.2396 11.5938 11.6768C11.1561 12.1146 10.6247 12.3335 9.99967 12.3335ZM9.99967 16.3335C7.9719 16.3335 6.12467 15.7674 4.45801 14.6352C2.79134 13.5035 1.58301 11.9863 0.833008 10.0835C1.58301 8.18072 2.79134 6.66322 4.45801 5.531C6.12467 4.39933 7.9719 3.8335 9.99967 3.8335C12.0275 3.8335 13.8747 4.39933 15.5413 5.531C17.208 6.66322 18.4163 8.18072 19.1663 10.0835C18.4163 11.9863 17.208 13.5035 15.5413 14.6352C13.8747 15.7674 12.0275 16.3335 9.99967 16.3335ZM9.99967 14.6668C11.5691 14.6668 13.0102 14.2535 14.323 13.4268C15.6352 12.6007 16.6386 11.4863 17.333 10.0835C16.6386 8.68072 15.6352 7.566 14.323 6.73933C13.0102 5.91322 11.5691 5.50016 9.99967 5.50016C8.43023 5.50016 6.98912 5.91322 5.67634 6.73933C4.36412 7.566 3.36079 8.68072 2.66634 10.0835C3.36079 11.4863 4.36412 12.6007 5.67634 13.4268C6.98912 14.2535 8.43023 14.6668 9.99967 14.6668Z" fill="#878787"/>
</g>
</svg>
