<svg width="217" height="56" viewBox="0 0 217 56" fill="none" xmlns="http://www.w3.org/2000/svg">
<path d="M6.32719 42.2362V46.6406C6.32719 48.623 7.2513 49.6142 9.09953 49.6142C10.9329 49.6142 11.8495 48.623 11.8495 46.6406V45.8357C11.8495 43.7192 9.8746 41.245 5.92476 38.413C1.97492 35.596 -4.66237e-06 32.1678 0 28.1285V19.8115C0 13.6706 3.02573 10.6002 9.07718 10.6002C15.1435 10.6002 18.1767 13.6706 18.1767 19.8115V22.5503C18.1767 23.3894 17.8434 24.194 17.2501 24.7873C16.6568 25.3806 15.8522 25.7139 15.0131 25.7139C14.1741 25.7139 13.3694 25.3806 12.7761 24.7873C12.1828 24.194 11.8495 23.3894 11.8495 22.5503V19.8115C11.8495 17.8441 10.9329 16.8529 9.09954 16.838H9.05482C7.2364 16.838 6.32719 17.8291 6.32719 19.8115V27.9944C6.32719 29.947 8.30212 32.3392 12.252 35.1712C16.2018 37.9883 18.1767 41.3643 18.1767 45.2992V46.6406C18.1767 52.7964 15.151 55.8743 9.09954 55.8743C3.03318 55.8594 6.00896e-06 52.7815 1.06713e-05 46.6406V42.2362L6.32719 42.2362Z" fill="#613393"/>
<path d="M20.6497 49.6142C18.8236 49.6142 17.9106 48.623 17.9106 46.6406V45.8357C17.9106 43.7192 19.8777 41.245 23.8119 38.413C27.7461 35.596 29.7132 32.1678 29.7132 28.1285V19.8115C29.7132 13.6706 26.6995 10.6002 20.672 10.6002C14.6296 10.6002 11.6084 13.6706 11.6084 19.8115V22.6462C11.6257 23.4649 11.9672 24.2433 12.5581 24.8102C13.149 25.3772 13.9408 25.6864 14.7595 25.6698C15.5782 25.6864 16.37 25.3772 16.9609 24.8102C17.5517 24.2433 17.8933 23.4649 17.9106 22.6462V19.8115C17.9106 17.8441 18.8236 16.8529 20.6497 16.838H20.6942C22.5054 16.838 23.4111 17.8291 23.4111 19.8115V27.9944C23.4111 29.947 21.444 32.3392 17.5097 35.1712C13.5755 37.9883 11.6084 41.3643 11.6084 45.2992V46.6406C11.6084 52.7964 14.6222 55.8743 20.6497 55.8743" fill="#51A3DA"/>
<path d="M22.0032 7.63139C24.1105 7.63139 25.8189 5.92305 25.8189 3.8157C25.8189 1.70835 24.1105 0 22.0032 0C19.8958 0 18.1875 1.70835 18.1875 3.8157C18.1875 5.92305 19.8958 7.63139 22.0032 7.63139Z" fill="#51A3DA"/>
<path d="M9.05495 7.63139C11.1623 7.63139 12.8707 5.92305 12.8707 3.8157C12.8707 1.70835 11.1623 0 9.05495 0C6.9476 0 5.23926 1.70835 5.23926 3.8157C5.23926 5.92305 6.9476 7.63139 9.05495 7.63139Z" fill="#613393"/>
<path d="M55.2995 30.6405C55.2264 29.9031 54.9125 29.3303 54.358 28.922C53.8034 28.5137 53.0508 28.3095 52.1001 28.3095C51.4542 28.3095 50.9087 28.4009 50.4639 28.5838C50.019 28.7605 49.6777 29.0073 49.4401 29.3242C49.2085 29.6411 49.0927 30.0006 49.0927 30.4028C49.0805 30.738 49.1506 31.0305 49.3029 31.2804C49.4614 31.5302 49.6777 31.7466 49.952 31.9294C50.2262 32.1061 50.5431 32.2615 50.9026 32.3956C51.2622 32.5236 51.6461 32.6333 52.0544 32.7247L53.7364 33.1269C54.553 33.3097 55.3026 33.5535 55.9851 33.8582C56.6676 34.1629 57.2588 34.5377 57.7585 34.9825C58.2582 35.4274 58.6452 35.9515 58.9194 36.5548C59.1997 37.1581 59.3429 37.8498 59.349 38.6299C59.3429 39.7755 59.0504 40.7689 58.4715 41.6099C57.8986 42.4448 57.0699 43.0938 55.9851 43.5569C54.9065 44.014 53.6054 44.2425 52.0818 44.2425C50.5705 44.2425 49.2542 44.0109 48.1329 43.5478C47.0177 43.0846 46.1462 42.399 45.5185 41.491C44.8969 40.5769 44.5709 39.4465 44.5404 38.0997H48.3705C48.4132 38.7274 48.593 39.2515 48.9099 39.6719C49.2329 40.0863 49.6625 40.4002 50.1988 40.6135C50.7411 40.8207 51.3536 40.9243 52.0361 40.9243C52.7065 40.9243 53.2885 40.8268 53.7821 40.6318C54.2818 40.4368 54.6688 40.1656 54.943 39.8182C55.2173 39.4708 55.3544 39.0717 55.3544 38.6207C55.3544 38.2002 55.2294 37.8468 54.9796 37.5603C54.7358 37.2739 54.3763 37.0302 53.9009 36.8291C53.4317 36.6279 52.8558 36.4451 52.1733 36.2806L50.1348 35.7687C48.5564 35.3848 47.3102 34.7845 46.3961 33.9679C45.4819 33.1513 45.0279 32.0513 45.034 30.6679C45.0279 29.5344 45.3296 28.5441 45.939 27.6971C46.5545 26.85 47.3985 26.1888 48.4711 25.7134C49.5437 25.2381 50.7625 25.0004 52.1275 25.0004C53.517 25.0004 54.7297 25.2381 55.7657 25.7134C56.8078 26.1888 57.6183 26.85 58.1973 27.6971C58.7762 28.5441 59.0748 29.5253 59.0931 30.6405H55.2995ZM62.0114 43.9774V25.2564H65.9695V33.5108H66.2163L72.9533 25.2564H77.6976L70.7503 33.6388L77.7798 43.9774H73.0447L67.9166 36.2806L65.9695 38.6573V43.9774H62.0114ZM83.717 25.2564V43.9774H79.7589V25.2564H83.717ZM86.9735 43.9774V25.2564H90.9317V40.714H98.9576V43.9774H86.9735ZM101.579 43.9774V25.2564H105.537V40.714H113.563V43.9774H101.579ZM116.074 43.9774V41.1254L122.738 34.9551C123.305 34.4067 123.78 33.913 124.164 33.4743C124.554 33.0355 124.85 32.6058 125.051 32.1854C125.252 31.7588 125.353 31.2987 125.353 30.805C125.353 30.2566 125.228 29.7843 124.978 29.3882C124.728 28.986 124.387 28.6782 123.954 28.4649C123.521 28.2455 123.031 28.1358 122.482 28.1358C121.909 28.1358 121.41 28.2516 120.983 28.4832C120.557 28.7148 120.227 29.0469 119.996 29.4796C119.764 29.9123 119.649 30.4272 119.649 31.0244H115.892C115.892 29.7995 116.169 28.7361 116.723 27.8342C117.278 26.9323 118.055 26.2345 119.054 25.7409C120.054 25.2472 121.206 25.0004 122.51 25.0004C123.85 25.0004 125.017 25.2381 126.011 25.7134C127.01 26.1827 127.787 26.8347 128.342 27.6696C128.896 28.5045 129.174 29.4613 129.174 30.54C129.174 31.2469 129.033 31.9446 128.753 32.6333C128.479 33.3219 127.988 34.0867 127.281 34.9277C126.574 35.7626 125.578 36.7651 124.292 37.9351L121.559 40.6135V40.7415H129.42V43.9774H116.074ZM132.398 43.9774V25.2564H139.784C141.198 25.2564 142.405 25.5093 143.404 26.0151C144.41 26.5148 145.174 27.2248 145.698 28.145C146.229 29.0591 146.494 30.1347 146.494 31.3718C146.494 32.615 146.226 33.6845 145.689 34.5803C145.153 35.4701 144.376 36.1526 143.358 36.6279C142.347 37.1033 141.122 37.341 139.684 37.341H134.738V34.1598H139.044C139.799 34.1598 140.427 34.0562 140.927 33.849C141.427 33.6418 141.798 33.331 142.042 32.9166C142.292 32.5022 142.417 31.9873 142.417 31.3718C142.417 30.7502 142.292 30.2261 142.042 29.7995C141.798 29.3729 141.423 29.0499 140.918 28.8306C140.418 28.6051 139.787 28.4923 139.025 28.4923H136.356V43.9774H132.398ZM142.508 35.4579L147.161 43.9774H142.792L138.239 35.4579H142.508ZM160.854 25.2564H164.813V37.4141C164.813 38.7792 164.487 39.9736 163.834 40.9974C163.188 42.0212 162.284 42.8195 161.12 43.3924C159.956 43.9591 158.6 44.2425 157.052 44.2425C155.498 44.2425 154.139 43.9591 152.975 43.3924C151.811 42.8195 150.906 42.0212 150.26 40.9974C149.614 39.9736 149.291 38.7792 149.291 37.4141V25.2564H153.249V37.0759C153.249 37.7889 153.404 38.4227 153.715 38.9772C154.032 39.5318 154.477 39.9675 155.05 40.2844C155.623 40.6013 156.29 40.7597 157.052 40.7597C157.82 40.7597 158.487 40.6013 159.054 40.2844C159.626 39.9675 160.068 39.5318 160.379 38.9772C160.696 38.4227 160.854 37.7889 160.854 37.0759V25.2564ZM168.069 43.9774V25.2564H175.455C176.869 25.2564 178.076 25.5093 179.075 26.0151C180.081 26.5148 180.845 27.2248 181.369 28.145C181.9 29.0591 182.165 30.1347 182.165 31.3718C182.165 32.615 181.897 33.6845 181.36 34.5803C180.824 35.4701 180.047 36.1526 179.029 36.6279C178.018 37.1033 176.793 37.341 175.355 37.341H170.409V34.1598H174.715C175.47 34.1598 176.098 34.0562 176.598 33.849C177.097 33.6418 177.469 33.331 177.713 32.9166C177.963 32.5022 178.088 31.9873 178.088 31.3718C178.088 30.7502 177.963 30.2261 177.713 29.7995C177.469 29.3729 177.094 29.0499 176.589 28.8306C176.089 28.6051 175.458 28.4923 174.696 28.4923H172.027V43.9774H168.069ZM178.179 35.4579L182.832 43.9774H178.463L173.91 35.4579H178.179ZM188.189 43.9774H183.947L190.41 25.2564H195.511L201.964 43.9774H197.723L193.034 29.5344H192.887L188.189 43.9774ZM187.924 36.6188H197.942V39.7085H187.924V36.6188ZM204.218 43.9774V25.2564H208.176V40.714H216.202V43.9774H204.218Z" fill="#60269E"/>
</svg>
