<svg width="223" height="56" viewBox="0 0 223 56" fill="none" xmlns="http://www.w3.org/2000/svg">
<path d="M6.32719 42.3311V46.7454C6.32719 48.7323 7.2513 49.7257 9.09953 49.7257C10.9329 49.7257 11.8495 48.7323 11.8495 46.7454V45.9387C11.8495 43.8175 9.8746 41.3377 5.92476 38.4993C1.97492 35.676 -4.66237e-06 32.2401 0 28.1917V19.856C0 13.7013 3.02573 10.624 9.07718 10.624C15.1435 10.624 18.1767 13.7013 18.1767 19.856V22.601C18.1767 23.4419 17.8434 24.2484 17.2501 24.843C16.6568 25.4376 15.8522 25.7717 15.0131 25.7717C14.1741 25.7717 13.3694 25.4376 12.7761 24.843C12.1828 24.2484 11.8495 23.4419 11.8495 22.601V19.856C11.8495 17.8841 10.9329 16.8907 9.09954 16.8758H9.05482C7.2364 16.8758 6.32719 17.8692 6.32719 19.856V28.0573C6.32719 30.0143 8.30212 32.4119 12.252 35.2502C16.2018 38.0736 18.1767 41.4572 18.1767 45.401V46.7454C18.1767 52.9151 15.151 55.9999 9.09954 55.9999C3.03318 55.9849 6.00896e-06 52.9001 1.06713e-05 46.7454V42.3311L6.32719 42.3311Z" fill="#613393"/>
<path d="M20.6497 49.7257C18.8236 49.7257 17.9106 48.7323 17.9106 46.7454V45.9387C17.9106 43.8175 19.8777 41.3377 23.8119 38.4993C27.7461 35.676 29.7132 32.2401 29.7132 28.1917V19.856C29.7132 13.7013 26.6995 10.624 20.672 10.624C14.6296 10.624 11.6084 13.7013 11.6084 19.856V22.6971C11.6257 23.5176 11.9672 24.2977 12.5581 24.866C13.149 25.4342 13.9408 25.7441 14.7595 25.7275C15.5782 25.7441 16.37 25.4342 16.9609 24.866C17.5517 24.2977 17.8933 23.5176 17.9106 22.6971V19.856C17.9106 17.8841 18.8236 16.8907 20.6497 16.8758H20.6942C22.5054 16.8758 23.4111 17.8692 23.4111 19.856V28.0573C23.4111 30.0143 21.444 32.4119 17.5097 35.2502C13.5755 38.0736 11.6084 41.4572 11.6084 45.401V46.7454C11.6084 52.9151 14.6222 55.9999 20.6497 55.9999" fill="#51A3DA"/>
<path d="M22.003 7.64854C24.1103 7.64854 25.8186 5.93636 25.8186 3.82427C25.8186 1.71218 24.1103 0 22.003 0C19.8956 0 18.1873 1.71218 18.1873 3.82427C18.1873 5.93636 19.8956 7.64854 22.003 7.64854Z" fill="#51A3DA"/>
<path d="M9.05495 7.64854C11.1623 7.64854 12.8707 5.93636 12.8707 3.82427C12.8707 1.71218 11.1623 0 9.05495 0C6.9476 0 5.23926 1.71218 5.23926 3.82427C5.23926 5.93636 6.9476 7.64854 9.05495 7.64854Z" fill="#613393"/>
<path d="M55.2993 30.6832C55.2261 29.9458 54.9123 29.373 54.3577 28.9647C53.8032 28.5564 53.0506 28.3522 52.0999 28.3522C51.4539 28.3522 50.9085 28.4437 50.4636 28.6265C50.0187 28.8032 49.6775 29.05 49.4398 29.3669C49.2082 29.6838 49.0924 30.0434 49.0924 30.4456C49.0803 30.7807 49.1503 31.0733 49.3027 31.3231C49.4611 31.573 49.6775 31.7893 49.9517 31.9721C50.2259 32.1489 50.5428 32.3043 50.9024 32.4383C51.2619 32.5663 51.6459 32.676 52.0542 32.7674L53.7361 33.1696C54.5528 33.3524 55.3023 33.5962 55.9849 33.9009C56.6674 34.2056 57.2585 34.5804 57.7582 35.0253C58.258 35.4701 58.6449 35.9942 58.9192 36.5975C59.1995 37.2009 59.3427 37.8925 59.3488 38.6726C59.3427 39.8183 59.0502 40.8116 58.4712 41.6526C57.8984 42.4875 57.0696 43.1365 55.9849 43.5996C54.9062 44.0567 53.6051 44.2852 52.0816 44.2852C50.5703 44.2852 49.2539 44.0537 48.1326 43.5905C47.0174 43.1274 46.146 42.4418 45.5183 41.5338C44.8967 40.6196 44.5706 39.4892 44.5402 38.1424H48.3703C48.413 38.7701 48.5927 39.2942 48.9096 39.7147C49.2326 40.1291 49.6622 40.4429 50.1985 40.6562C50.7409 40.8634 51.3534 40.967 52.0359 40.967C52.7062 40.967 53.2882 40.8695 53.7818 40.6745C54.2816 40.4795 54.6685 40.2083 54.9428 39.8609C55.217 39.5136 55.3541 39.1144 55.3541 38.6634C55.3541 38.2429 55.2292 37.8895 54.9793 37.6031C54.7356 37.3166 54.376 37.0729 53.9007 36.8718C53.4314 36.6707 52.8555 36.4878 52.173 36.3233L50.1345 35.8114C48.5562 35.4275 47.3099 34.8272 46.3958 34.0106C45.4817 33.194 45.0277 32.094 45.0338 30.7107C45.0277 29.5772 45.3293 28.5869 45.9388 27.7398C46.5543 26.8927 47.3983 26.2315 48.4709 25.7562C49.5434 25.2808 50.7622 25.0432 52.1273 25.0432C53.5168 25.0432 54.7295 25.2808 55.7655 25.7562C56.8076 26.2315 57.6181 26.8927 58.197 27.7398C58.776 28.5869 59.0746 29.568 59.0928 30.6832H55.2993ZM62.0112 44.0201V25.2991H65.9693V33.5535H66.2161L72.9531 25.2991H77.6973L70.7501 33.6815L77.7796 44.0201H73.0445L67.9163 36.3233L65.9693 38.7V44.0201H62.0112ZM83.7168 25.2991V44.0201H79.7587V25.2991H83.7168ZM86.9733 44.0201V25.2991H90.9314V40.7568H98.9573V44.0201H86.9733ZM101.579 44.0201V25.2991H105.537V40.7568H113.563V44.0201H101.579ZM116.074 44.0201V41.1681L122.738 34.9978C123.305 34.4494 123.78 33.9558 124.164 33.517C124.554 33.0782 124.85 32.6486 125.051 32.2281C125.252 31.8015 125.352 31.3414 125.352 30.8478C125.352 30.2993 125.227 29.827 124.978 29.4309C124.728 29.0287 124.386 28.7209 123.954 28.5076C123.521 28.2883 123.03 28.1786 122.482 28.1786C121.909 28.1786 121.409 28.2943 120.983 28.5259C120.556 28.7575 120.227 29.0896 119.996 29.5223C119.764 29.955 119.648 30.4699 119.648 31.0672H115.891C115.891 29.8422 116.169 28.7788 116.723 27.8769C117.278 26.975 118.055 26.2772 119.054 25.7836C120.054 25.29 121.205 25.0432 122.509 25.0432C123.85 25.0432 125.017 25.2808 126.011 25.7562C127.01 26.2254 127.787 26.8775 128.341 27.7124C128.896 28.5473 129.173 29.504 129.173 30.5827C129.173 31.2896 129.033 31.9874 128.753 32.676C128.479 33.3646 127.988 34.1294 127.281 34.9704C126.574 35.8053 125.578 36.8078 124.292 37.9779L121.559 40.6562V40.7842H129.42V44.0201H116.074ZM132.398 44.0201V25.2991H139.784C141.198 25.2991 142.404 25.552 143.404 26.0578C144.409 26.5575 145.174 27.2675 145.698 28.1877C146.228 29.1018 146.493 30.1774 146.493 31.4145C146.493 32.6577 146.225 33.7272 145.689 34.6231C145.153 35.5128 144.376 36.1953 143.358 36.6707C142.346 37.146 141.122 37.3837 139.683 37.3837H134.738V34.2026H139.043C139.799 34.2026 140.427 34.099 140.927 33.8918C141.426 33.6846 141.798 33.3738 142.042 32.9594C142.292 32.545 142.417 32.03 142.417 31.4145C142.417 30.7929 142.292 30.2688 142.042 29.8422C141.798 29.4157 141.423 29.0927 140.917 28.8733C140.418 28.6478 139.787 28.5351 139.025 28.5351H136.356V44.0201H132.398ZM142.508 35.5006L147.161 44.0201H142.791L138.239 35.5006H142.508ZM160.854 25.2991H164.812V37.4568C164.812 38.8219 164.486 40.0163 163.834 41.0401C163.188 42.0639 162.283 42.8623 161.119 43.4351C159.955 44.0019 158.599 44.2852 157.052 44.2852C155.498 44.2852 154.139 44.0019 152.975 43.4351C151.811 42.8623 150.906 42.0639 150.26 41.0401C149.614 40.0163 149.291 38.8219 149.291 37.4568V25.2991H153.249V37.1186C153.249 37.8316 153.404 38.4654 153.715 39.0199C154.032 39.5745 154.477 40.0102 155.05 40.3271C155.622 40.644 156.29 40.8025 157.052 40.8025C157.819 40.8025 158.487 40.644 159.053 40.3271C159.626 40.0102 160.068 39.5745 160.379 39.0199C160.696 38.4654 160.854 37.8316 160.854 37.1186V25.2991ZM168.069 44.0201V25.2991H175.455C176.869 25.2991 178.075 25.552 179.075 26.0578C180.08 26.5575 180.845 27.2675 181.369 28.1877C181.899 29.1018 182.164 30.1774 182.164 31.4145C182.164 32.6577 181.896 33.7272 181.36 34.6231C180.824 35.5128 180.047 36.1953 179.029 36.6707C178.017 37.146 176.793 37.3837 175.354 37.3837H170.409V34.2026H174.714C175.47 34.2026 176.098 34.099 176.598 33.8918C177.097 33.6846 177.469 33.3738 177.713 32.9594C177.963 32.545 178.088 32.03 178.088 31.4145C178.088 30.7929 177.963 30.2688 177.713 29.8422C177.469 29.4157 177.094 29.0927 176.588 28.8733C176.089 28.6478 175.458 28.5351 174.696 28.5351H172.027V44.0201H168.069ZM178.179 35.5006L182.832 44.0201H178.462L173.91 35.5006H178.179ZM188.188 44.0201H183.947L190.41 25.2991H195.511L201.964 44.0201H197.723L193.033 29.5772H192.887L188.188 44.0201ZM187.923 36.6615H197.942V39.7512H187.923V36.6615ZM204.217 44.0201V25.2991H208.176V40.7568H216.201V44.0201H204.217Z" fill="#60269E"/>
</svg>
