<svg width="223" height="56" viewBox="0 0 223 56" fill="none" xmlns="http://www.w3.org/2000/svg">
<path d="M6.32719 42.3311V46.7454C6.32719 48.7323 7.2513 49.7257 9.09953 49.7257C10.9329 49.7257 11.8495 48.7323 11.8495 46.7454V45.9387C11.8495 43.8175 9.8746 41.3377 5.92476 38.4993C1.97492 35.676 -4.66237e-06 32.2401 0 28.1917V19.856C0 13.7013 3.02573 10.624 9.07718 10.624C15.1435 10.624 18.1767 13.7013 18.1767 19.856V22.601C18.1767 23.4419 17.8434 24.2484 17.2501 24.843C16.6568 25.4376 15.8522 25.7717 15.0131 25.7717C14.1741 25.7717 13.3694 25.4376 12.7761 24.843C12.1828 24.2484 11.8495 23.4419 11.8495 22.601V19.856C11.8495 17.8841 10.9329 16.8907 9.09954 16.8758H9.05482C7.2364 16.8758 6.32719 17.8692 6.32719 19.856V28.0573C6.32719 30.0143 8.30212 32.4119 12.252 35.2502C16.2018 38.0736 18.1767 41.4572 18.1767 45.401V46.7454C18.1767 52.9151 15.151 55.9999 9.09954 55.9999C3.03318 55.9849 6.00896e-06 52.9001 1.06713e-05 46.7454V42.3311L6.32719 42.3311Z" fill="white"/>
<path d="M20.6497 49.7257C18.8237 49.7257 17.9106 48.7323 17.9106 46.7454V45.9387C17.9106 43.8175 19.8778 41.3377 23.812 38.4993C27.7462 35.676 29.7133 32.2401 29.7133 28.1917V19.856C29.7133 13.7013 26.6995 10.624 20.672 10.624C14.6296 10.624 11.6085 13.7013 11.6085 19.856V22.6971C11.6257 23.5176 11.9673 24.2977 12.5582 24.866C13.149 25.4342 13.9408 25.7441 14.7596 25.7275C15.5783 25.7441 16.3701 25.4342 16.9609 24.866C17.5518 24.2977 17.8934 23.5176 17.9106 22.6971V19.856C17.9106 17.8841 18.8237 16.8907 20.6497 16.8758H20.6943C22.5055 16.8758 23.4111 17.8692 23.4111 19.856V28.0573C23.4111 30.0143 21.444 32.4119 17.5098 35.2502C13.5756 38.0736 11.6085 41.4572 11.6085 45.401V46.7454C11.6085 52.9151 14.6222 55.9999 20.6497 55.9999" fill="#51A3DA"/>
<path d="M22.003 7.64854C24.1103 7.64854 25.8186 5.93636 25.8186 3.82427C25.8186 1.71218 24.1103 0 22.003 0C19.8956 0 18.1873 1.71218 18.1873 3.82427C18.1873 5.93636 19.8956 7.64854 22.003 7.64854Z" fill="#51A3DA"/>
<path d="M9.05495 7.64854C11.1623 7.64854 12.8707 5.93636 12.8707 3.82427C12.8707 1.71218 11.1623 0 9.05495 0C6.9476 0 5.23926 1.71218 5.23926 3.82427C5.23926 5.93636 6.9476 7.64854 9.05495 7.64854Z" fill="#613393"/>
<path d="M55.2994 30.6836C55.2263 29.9462 54.9124 29.3734 54.3579 28.9651C53.8033 28.5568 53.0507 28.3526 52.1 28.3526C51.454 28.3526 50.9086 28.444 50.4637 28.6268C50.0189 28.8036 49.6776 29.0504 49.4399 29.3673C49.2084 29.6842 49.0926 30.0437 49.0926 30.4459C49.0804 30.7811 49.1505 31.0736 49.3028 31.3235C49.4613 31.5733 49.6776 31.7897 49.9518 31.9725C50.2261 32.1492 50.543 32.3046 50.9025 32.4387C51.2621 32.5667 51.646 32.6764 52.0543 32.7678L53.7363 33.17C54.5529 33.3528 55.3024 33.5966 55.985 33.9013C56.6675 34.206 57.2586 34.5808 57.7584 35.0256C58.2581 35.4705 58.6451 35.9946 58.9193 36.5979C59.1996 37.2012 59.3428 37.8929 59.3489 38.6729C59.3428 39.8186 59.0503 40.812 58.4714 41.653C57.8985 42.4878 57.0697 43.1369 55.985 43.6C54.9063 44.0571 53.6052 44.2856 52.0817 44.2856C50.5704 44.2856 49.2541 44.054 48.1328 43.5909C47.0175 43.1277 46.1461 42.4421 45.5184 41.5341C44.8968 40.62 44.5708 39.4896 44.5403 38.1428H48.3704C48.4131 38.7705 48.5929 39.2945 48.9097 39.715C49.2327 40.1294 49.6624 40.4433 50.1986 40.6566C50.741 40.8638 51.3535 40.9674 52.036 40.9674C52.7064 40.9674 53.2883 40.8699 53.782 40.6749C54.2817 40.4798 54.6687 40.2087 54.9429 39.8613C55.2171 39.5139 55.3542 39.1148 55.3542 38.6638C55.3542 38.2433 55.2293 37.8899 54.9795 37.6034C54.7357 37.317 54.3761 37.0732 53.9008 36.8721C53.4316 36.671 52.8557 36.4882 52.1731 36.3237L50.1347 35.8118C48.5563 35.4278 47.31 34.8276 46.3959 34.011C45.4818 33.1944 45.0278 32.0944 45.0339 30.711C45.0278 29.5775 45.3295 28.5872 45.9389 27.7402C46.5544 26.8931 47.3984 26.2319 48.471 25.7565C49.5435 25.2812 50.7623 25.0435 52.1274 25.0435C53.5169 25.0435 54.7296 25.2812 55.7656 25.7565C56.8077 26.2319 57.6182 26.8931 58.1971 27.7402C58.7761 28.5872 59.0747 29.5684 59.093 30.6836H55.2994ZM62.0113 44.0205V25.2995H65.9694V33.5539H66.2162L72.9532 25.2995H77.6975L70.7502 33.6819L77.7797 44.0205H73.0446L67.9164 36.3237L65.9694 38.7004V44.0205H62.0113ZM83.7169 25.2995V44.0205H79.7588V25.2995H83.7169ZM86.9734 44.0205V25.2995H90.9315V40.7571H98.9574V44.0205H86.9734ZM101.579 44.0205V25.2995H105.537V40.7571H113.563V44.0205H101.579ZM116.074 44.0205V41.1685L122.738 34.9982C123.305 34.4497 123.78 33.9561 124.164 33.5173C124.554 33.0786 124.85 32.6489 125.051 32.2284C125.252 31.8019 125.352 31.3418 125.352 30.8481C125.352 30.2997 125.228 29.8274 124.978 29.4313C124.728 29.0291 124.387 28.7213 123.954 28.508C123.521 28.2886 123.031 28.1789 122.482 28.1789C121.909 28.1789 121.41 28.2947 120.983 28.5263C120.556 28.7579 120.227 29.09 119.996 29.5227C119.764 29.9554 119.648 30.4703 119.648 31.0675H115.891C115.891 29.8426 116.169 28.7792 116.723 27.8773C117.278 26.9753 118.055 26.2776 119.054 25.7839C120.054 25.2903 121.205 25.0435 122.51 25.0435C123.85 25.0435 125.017 25.2812 126.011 25.7565C127.01 26.2258 127.787 26.8778 128.342 27.7127C128.896 28.5476 129.173 29.5044 129.173 30.583C129.173 31.29 129.033 31.9877 128.753 32.6764C128.479 33.365 127.988 34.1298 127.281 34.9708C126.574 35.8057 125.578 36.8082 124.292 37.9782L121.559 40.6566V40.7845H129.42V44.0205H116.074ZM132.398 44.0205V25.2995H139.784C141.198 25.2995 142.404 25.5524 143.404 26.0582C144.409 26.5579 145.174 27.2679 145.698 28.1881C146.229 29.1022 146.494 30.1778 146.494 31.4149C146.494 32.6581 146.225 33.7276 145.689 34.6234C145.153 35.5132 144.376 36.1957 143.358 36.671C142.347 37.1464 141.122 37.384 139.683 37.384H134.738V34.2029H139.044C139.799 34.2029 140.427 34.0993 140.927 33.8921C141.426 33.6849 141.798 33.3741 142.042 32.9597C142.292 32.5453 142.417 32.0304 142.417 31.4149C142.417 30.7933 142.292 30.2692 142.042 29.8426C141.798 29.416 141.423 29.093 140.918 28.8737C140.418 28.6482 139.787 28.5354 139.025 28.5354H136.356V44.0205H132.398ZM142.508 35.501L147.161 44.0205H142.791L138.239 35.501H142.508ZM160.854 25.2995H164.812V37.4572C164.812 38.8223 164.486 40.0167 163.834 41.0405C163.188 42.0643 162.283 42.8626 161.119 43.4355C159.955 44.0022 158.6 44.2856 157.052 44.2856C155.498 44.2856 154.139 44.0022 152.975 43.4355C151.811 42.8626 150.906 42.0643 150.26 41.0405C149.614 40.0167 149.291 38.8223 149.291 37.4572V25.2995H153.249V37.119C153.249 37.832 153.404 38.4657 153.715 39.0203C154.032 39.5749 154.477 40.0106 155.05 40.3275C155.623 40.6444 156.29 40.8028 157.052 40.8028C157.819 40.8028 158.487 40.6444 159.054 40.3275C159.626 40.0106 160.068 39.5749 160.379 39.0203C160.696 38.4657 160.854 37.832 160.854 37.119V25.2995ZM168.069 44.0205V25.2995H175.455C176.869 25.2995 178.075 25.5524 179.075 26.0582C180.08 26.5579 180.845 27.2679 181.369 28.1881C181.9 29.1022 182.165 30.1778 182.165 31.4149C182.165 32.6581 181.896 33.7276 181.36 34.6234C180.824 35.5132 180.047 36.1957 179.029 36.671C178.018 37.1464 176.793 37.384 175.354 37.384H170.409V34.2029H174.715C175.47 34.2029 176.098 34.0993 176.598 33.8921C177.097 33.6849 177.469 33.3741 177.713 32.9597C177.963 32.5453 178.088 32.0304 178.088 31.4149C178.088 30.7933 177.963 30.2692 177.713 29.8426C177.469 29.416 177.094 29.093 176.589 28.8737C176.089 28.6482 175.458 28.5354 174.696 28.5354H172.027V44.0205H168.069ZM178.179 35.501L182.832 44.0205H178.462L173.91 35.501H178.179ZM188.189 44.0205H183.947L190.41 25.2995H195.511L201.964 44.0205H197.723L193.033 29.5775H192.887L188.189 44.0205ZM187.924 36.6619H197.942V39.7516H187.924V36.6619ZM204.218 44.0205V25.2995H208.176V40.7571H216.202V44.0205H204.218Z" fill="white"/>
</svg>
