<svg width="170" height="43" viewBox="0 0 170 43" fill="none" xmlns="http://www.w3.org/2000/svg">
<path d="M4.82342 32.2703V35.6355C4.82342 37.1501 5.5279 37.9074 6.93686 37.9074C8.33446 37.9074 9.03326 37.1501 9.03326 35.6355V35.0205C9.03326 33.4034 7.52772 31.513 4.51663 29.3492C1.50554 27.1969 -3.55427e-06 24.5776 0 21.4914V15.1369C0 10.4449 2.30661 8.099 6.91982 8.099C11.5444 8.099 13.8567 10.4449 13.8567 15.1369V17.2294C13.8567 17.8705 13.6026 18.4853 13.1503 18.9386C12.698 19.3919 12.0846 19.6466 11.445 19.6466C10.8054 19.6466 10.1919 19.3919 9.73964 18.9386C9.28736 18.4853 9.03327 17.8705 9.03327 17.2294V15.1369C9.03327 13.6336 8.33447 12.8763 6.93687 12.8649H6.90278C5.51654 12.8649 4.82342 13.6222 4.82342 15.1369V21.3889C4.82342 22.8808 6.32897 24.7086 9.34006 26.8723C12.3511 29.0247 13.8567 31.6041 13.8567 34.6106V35.6355C13.8567 40.3388 11.5501 42.6905 6.93687 42.6905C2.31229 42.6791 4.58082e-06 40.3274 8.1351e-06 35.6355V32.2703L4.82342 32.2703Z" fill="white"/>
<path d="M15.7419 37.9074C14.3499 37.9074 13.6538 37.1501 13.6538 35.6355V35.0205C13.6538 33.4034 15.1534 31.513 18.1526 29.3492C21.1518 27.1969 22.6514 24.5776 22.6514 21.4914V15.1369C22.6514 10.4449 20.3539 8.099 15.7589 8.099C11.1526 8.099 8.8495 10.4449 8.8495 15.1369V17.3027C8.86265 17.9282 9.12305 18.5229 9.57349 18.9561C10.0239 19.3893 10.6275 19.6255 11.2517 19.6129C11.8758 19.6255 12.4794 19.3893 12.9298 18.9561C13.3803 18.5229 13.6407 17.9282 13.6538 17.3027V15.1369C13.6538 13.6336 14.3499 12.8763 15.7419 12.8649H15.7759C17.1567 12.8649 17.847 13.6222 17.847 15.1369V21.3889C17.847 22.8808 16.3474 24.7086 13.3483 26.8723C10.3491 29.0247 8.84948 31.6041 8.84949 34.6106V35.6355C8.84949 40.3388 11.147 42.6905 15.7419 42.6905" fill="#51A3DA"/>
<path d="M16.7736 5.83073C18.3801 5.83073 19.6824 4.52548 19.6824 2.91536C19.6824 1.30525 18.3801 0 16.7736 0C15.1671 0 13.8647 1.30525 13.8647 2.91536C13.8647 4.52548 15.1671 5.83073 16.7736 5.83073Z" fill="#51A3DA"/>
<path d="M6.90285 5.83073C8.50935 5.83073 9.81167 4.52548 9.81167 2.91536C9.81167 1.30525 8.50935 0 6.90285 0C5.29634 0 3.99402 1.30525 3.99402 2.91536C3.99402 4.52548 5.29634 5.83073 6.90285 5.83073Z" fill="white"/>
<path d="M42.1565 23.3325C42.1007 22.7704 41.8615 22.3337 41.4387 22.0224C41.016 21.7111 40.4422 21.5555 39.7175 21.5555C39.225 21.5555 38.8092 21.6252 38.4701 21.7646C38.131 21.8993 37.8708 22.0874 37.6896 22.329C37.5131 22.5706 37.4248 22.8447 37.4248 23.1513C37.4155 23.4068 37.4689 23.6298 37.5851 23.8203C37.7059 24.0108 37.8708 24.1757 38.0799 24.3151C38.2889 24.4498 38.5305 24.5682 38.8046 24.6704C39.0787 24.768 39.3714 24.8516 39.6826 24.9213L40.9648 25.2279C41.5874 25.3673 42.1588 25.5531 42.6791 25.7854C43.1994 26.0177 43.6501 26.3034 44.031 26.6426C44.412 26.9817 44.707 27.3812 44.916 27.8412C45.1297 28.3011 45.2389 28.8284 45.2436 29.423C45.2389 30.2964 45.0159 31.0537 44.5746 31.6948C44.1379 32.3312 43.5061 32.826 42.6791 33.1791C41.8568 33.5275 40.865 33.7017 39.7035 33.7017C38.5514 33.7017 37.5479 33.5252 36.6931 33.1721C35.8429 32.819 35.1786 32.2964 34.7001 31.6042C34.2262 30.9073 33.9777 30.0455 33.9545 29.0188H36.8743C36.9068 29.4973 37.0439 29.8969 37.2854 30.2174C37.5317 30.5333 37.8592 30.7726 38.268 30.9352C38.6815 31.0932 39.1484 31.1721 39.6687 31.1721C40.1797 31.1721 40.6234 31.0978 40.9997 30.9491C41.3806 30.8005 41.6756 30.5937 41.8847 30.3289C42.0938 30.0641 42.1983 29.7598 42.1983 29.416C42.1983 29.0955 42.103 28.826 41.9126 28.6077C41.7267 28.3893 41.4526 28.2035 41.0903 28.0502C40.7326 27.8969 40.2935 27.7575 39.7732 27.6321L38.2192 27.2419C37.016 26.9492 36.0659 26.4916 35.3691 25.869C34.6722 25.2465 34.3261 24.408 34.3308 23.3534C34.3261 22.4893 34.5561 21.7344 35.0207 21.0886C35.4899 20.4428 36.1333 19.9388 36.9509 19.5764C37.7686 19.2141 38.6977 19.0329 39.7384 19.0329C40.7976 19.0329 41.7221 19.2141 42.5119 19.5764C43.3063 19.9388 43.9242 20.4428 44.3655 21.0886C44.8069 21.7344 45.0345 22.4823 45.0484 23.3325H42.1565ZM47.2732 33.4996V19.228H50.2905V25.5206H50.4787L55.6145 19.228H59.2312L53.9351 25.6182L59.2939 33.4996H55.6842L51.7749 27.6321L50.2905 29.4439V33.4996H47.2732ZM63.82 19.228V33.4996H60.8026V19.228H63.82ZM66.3026 33.4996V19.228H69.32V31.0119H75.4384V33.4996H66.3026ZM77.4366 33.4996V19.228H80.454V31.0119H86.5724V33.4996H77.4366ZM88.487 33.4996V31.3254L93.5671 26.6216C93.9992 26.2035 94.3616 25.8272 94.6542 25.4927C94.9516 25.1582 95.1769 24.8307 95.3302 24.5102C95.4835 24.185 95.5602 23.8342 95.5602 23.4579C95.5602 23.0398 95.4649 22.6798 95.2744 22.3778C95.084 22.0712 94.8238 21.8366 94.494 21.674C94.1641 21.5067 93.7901 21.4231 93.372 21.4231C92.9353 21.4231 92.5544 21.5114 92.2292 21.6879C91.904 21.8644 91.6531 22.1176 91.4766 22.4475C91.3 22.7773 91.2118 23.1699 91.2118 23.6252H88.3477C88.3477 22.6914 88.5591 21.8807 88.9818 21.1931C89.4046 20.5056 89.9969 19.9736 90.7588 19.5973C91.5207 19.221 92.3987 19.0329 93.3929 19.0329C94.415 19.0329 95.3046 19.2141 96.0619 19.5764C96.8238 19.9341 97.4161 20.4312 97.8389 21.0677C98.2616 21.7042 98.473 22.4335 98.473 23.2558C98.473 23.7947 98.3662 24.3267 98.1525 24.8516C97.9434 25.3766 97.5694 25.9596 97.0305 26.6007C96.4916 27.2372 95.732 28.0014 94.7518 28.8934L92.6682 30.9352V31.0328H98.6612V33.4996H88.487ZM100.931 33.4996V19.228H106.562C107.64 19.228 108.559 19.4208 109.321 19.8064C110.088 20.1873 110.671 20.7286 111.07 21.4301C111.475 22.1269 111.677 22.9469 111.677 23.89C111.677 24.8377 111.472 25.653 111.063 26.3359C110.655 27.0142 110.062 27.5345 109.287 27.8969C108.515 28.2593 107.582 28.4404 106.485 28.4404H102.715V26.0154H105.997C106.573 26.0154 107.052 25.9364 107.433 25.7785C107.814 25.6205 108.097 25.3836 108.283 25.0677C108.474 24.7517 108.569 24.3592 108.569 23.89C108.569 23.4161 108.474 23.0166 108.283 22.6914C108.097 22.3662 107.811 22.1199 107.426 21.9527C107.045 21.7808 106.564 21.6949 105.983 21.6949H103.949V33.4996H100.931ZM108.638 27.0049L112.185 33.4996H108.854L105.384 27.0049H108.638ZM122.624 19.228H125.642V28.4962C125.642 29.5368 125.393 30.4474 124.896 31.2279C124.404 32.0084 123.714 32.6169 122.826 33.0536C121.939 33.4857 120.905 33.7017 119.725 33.7017C118.541 33.7017 117.505 33.4857 116.617 33.0536C115.73 32.6169 115.04 32.0084 114.548 31.2279C114.055 30.4474 113.809 29.5368 113.809 28.4962V19.228H116.827V28.2384C116.827 28.7819 116.945 29.2651 117.182 29.6878C117.423 30.1106 117.763 30.4428 118.199 30.6843C118.636 30.9259 119.145 31.0467 119.725 31.0467C120.311 31.0467 120.819 30.9259 121.252 30.6843C121.688 30.4428 122.025 30.1106 122.262 29.6878C122.504 29.2651 122.624 28.7819 122.624 28.2384V19.228ZM128.124 33.4996V19.228H133.755C134.833 19.228 135.753 19.4208 136.514 19.8064C137.281 20.1873 137.864 20.7286 138.264 21.4301C138.668 22.1269 138.87 22.9469 138.87 23.89C138.87 24.8377 138.665 25.653 138.257 26.3359C137.848 27.0142 137.255 27.5345 136.48 27.8969C135.708 28.2593 134.775 28.4404 133.678 28.4404H129.908V26.0154H133.19C133.767 26.0154 134.245 25.9364 134.626 25.7785C135.007 25.6205 135.29 25.3836 135.476 25.0677C135.667 24.7517 135.762 24.3592 135.762 23.89C135.762 23.4161 135.667 23.0166 135.476 22.6914C135.29 22.3662 135.005 22.1199 134.619 21.9527C134.238 21.7808 133.757 21.6949 133.177 21.6949H131.142V33.4996H128.124ZM135.832 27.0049L139.379 33.4996H136.048L132.577 27.0049H135.832ZM143.462 33.4996H140.229L145.156 19.228H149.044L153.964 33.4996H150.73L147.155 22.4893H147.044L143.462 33.4996ZM143.26 27.8899H150.898V30.2453H143.26V27.8899ZM155.682 33.4996V19.228H158.699V31.0119H164.817V33.4996H155.682Z" fill="white"/>
</svg>
