<svg width="223" height="56" viewBox="0 0 223 56" fill="none" xmlns="http://www.w3.org/2000/svg">
<path d="M6.32719 42.3311V46.7454C6.32719 48.7323 7.2513 49.7257 9.09953 49.7257C10.9329 49.7257 11.8495 48.7323 11.8495 46.7454V45.9387C11.8495 43.8175 9.8746 41.3377 5.92476 38.4993C1.97492 35.676 -4.66237e-06 32.2401 0 28.1917V19.856C0 13.7013 3.02573 10.624 9.07718 10.624C15.1435 10.624 18.1767 13.7013 18.1767 19.856V22.601C18.1767 23.4419 17.8434 24.2484 17.2501 24.843C16.6568 25.4376 15.8522 25.7717 15.0131 25.7717C14.1741 25.7717 13.3694 25.4376 12.7761 24.843C12.1828 24.2484 11.8495 23.4419 11.8495 22.601V19.856C11.8495 17.8841 10.9329 16.8907 9.09954 16.8758H9.05482C7.2364 16.8758 6.32719 17.8692 6.32719 19.856V28.0573C6.32719 30.0143 8.30212 32.4119 12.252 35.2502C16.2018 38.0736 18.1767 41.4572 18.1767 45.401V46.7454C18.1767 52.9151 15.151 55.9999 9.09954 55.9999C3.03318 55.9849 6.00896e-06 52.9001 1.06713e-05 46.7454V42.3311L6.32719 42.3311Z" fill="white"/>
<path d="M20.6497 49.7257C18.8236 49.7257 17.9106 48.7323 17.9106 46.7454V45.9387C17.9106 43.8175 19.8777 41.3377 23.8119 38.4993C27.7461 35.676 29.7132 32.2401 29.7132 28.1917V19.856C29.7132 13.7013 26.6995 10.624 20.672 10.624C14.6296 10.624 11.6084 13.7013 11.6084 19.856V22.6971C11.6257 23.5176 11.9672 24.2977 12.5581 24.866C13.149 25.4342 13.9408 25.7441 14.7595 25.7275C15.5782 25.7441 16.37 25.4342 16.9609 24.866C17.5517 24.2977 17.8933 23.5176 17.9106 22.6971V19.856C17.9106 17.8841 18.8236 16.8907 20.6497 16.8758H20.6942C22.5054 16.8758 23.4111 17.8692 23.4111 19.856V28.0573C23.4111 30.0143 21.444 32.4119 17.5097 35.2502C13.5755 38.0736 11.6084 41.4572 11.6084 45.401V46.7454C11.6084 52.9151 14.6222 55.9999 20.6497 55.9999" fill="#51A3DA"/>
<path d="M22.003 7.64854C24.1103 7.64854 25.8186 5.93636 25.8186 3.82427C25.8186 1.71218 24.1103 0 22.003 0C19.8956 0 18.1873 1.71218 18.1873 3.82427C18.1873 5.93636 19.8956 7.64854 22.003 7.64854Z" fill="#51A3DA"/>
<path d="M9.05495 7.64854C11.1623 7.64854 12.8707 5.93636 12.8707 3.82427C12.8707 1.71218 11.1623 0 9.05495 0C6.9476 0 5.23926 1.71218 5.23926 3.82427C5.23926 5.93636 6.9476 7.64854 9.05495 7.64854Z" fill="#613393"/>
<path d="M55.2993 30.6831C55.2261 29.9457 54.9123 29.3729 54.3577 28.9646C53.8032 28.5563 53.0506 28.3521 52.0999 28.3521C51.4539 28.3521 50.9085 28.4435 50.4636 28.6264C50.0187 28.8031 49.6775 29.0499 49.4398 29.3668C49.2082 29.6837 49.0924 30.0432 49.0924 30.4454C49.0803 30.7806 49.1503 31.0731 49.3027 31.323C49.4611 31.5728 49.6775 31.7892 49.9517 31.972C50.2259 32.1487 50.5428 32.3041 50.9024 32.4382C51.2619 32.5662 51.6459 32.6759 52.0542 32.7673L53.7361 33.1695C54.5528 33.3523 55.3023 33.5961 55.9849 33.9008C56.6674 34.2055 57.2585 34.5803 57.7582 35.0251C58.258 35.47 58.6449 35.9941 58.9192 36.5974C59.1995 37.2007 59.3427 37.8924 59.3488 38.6725C59.3427 39.8181 59.0502 40.8115 58.4712 41.6525C57.8984 42.4874 57.0696 43.1364 55.9849 43.5995C54.9062 44.0566 53.6051 44.2851 52.0816 44.2851C50.5703 44.2851 49.2539 44.0535 48.1326 43.5904C47.0174 43.1272 46.146 42.4417 45.5183 41.5336C44.8967 40.6195 44.5706 39.4891 44.5402 38.1423H48.3703C48.413 38.77 48.5927 39.2941 48.9096 39.7145C49.2326 40.1289 49.6622 40.4428 50.1985 40.6561C50.7409 40.8633 51.3534 40.9669 52.0359 40.9669C52.7062 40.9669 53.2882 40.8694 53.7818 40.6744C54.2816 40.4794 54.6685 40.2082 54.9428 39.8608C55.217 39.5134 55.3541 39.1143 55.3541 38.6633C55.3541 38.2428 55.2292 37.8894 54.9793 37.6029C54.7356 37.3165 54.376 37.0728 53.9007 36.8717C53.4314 36.6705 52.8555 36.4877 52.173 36.3232L50.1345 35.8113C48.5562 35.4274 47.3099 34.8271 46.3958 34.0105C45.4817 33.1939 45.0277 32.0939 45.0338 30.7105C45.0277 29.577 45.3293 28.5867 45.9388 27.7397C46.5543 26.8926 47.3983 26.2314 48.4709 25.756C49.5434 25.2807 50.7622 25.043 52.1273 25.043C53.5168 25.043 54.7295 25.2807 55.7655 25.756C56.8076 26.2314 57.6181 26.8926 58.197 27.7397C58.776 28.5867 59.0746 29.5679 59.0928 30.6831H55.2993ZM62.0112 44.02V25.299H65.9693V33.5534H66.2161L72.9531 25.299H77.6973L70.7501 33.6814L77.7796 44.02H73.0445L67.9163 36.3232L65.9693 38.6999V44.02H62.0112ZM83.7168 25.299V44.02H79.7587V25.299H83.7168ZM86.9733 44.02V25.299H90.9314V40.7566H98.9573V44.02H86.9733ZM101.579 44.02V25.299H105.537V40.7566H113.563V44.02H101.579ZM116.074 44.02V41.168L122.738 34.9977C123.305 34.4493 123.78 33.9556 124.164 33.5169C124.554 33.0781 124.85 32.6485 125.051 32.228C125.252 31.8014 125.352 31.3413 125.352 30.8476C125.352 30.2992 125.227 29.8269 124.978 29.4308C124.728 29.0286 124.386 28.7208 123.954 28.5075C123.521 28.2881 123.03 28.1784 122.482 28.1784C121.909 28.1784 121.409 28.2942 120.983 28.5258C120.556 28.7574 120.227 29.0895 119.996 29.5222C119.764 29.9549 119.648 30.4698 119.648 31.067H115.891C115.891 29.8421 116.169 28.7787 116.723 27.8768C117.278 26.9749 118.055 26.2771 119.054 25.7835C120.054 25.2898 121.205 25.043 122.509 25.043C123.85 25.043 125.017 25.2807 126.011 25.756C127.01 26.2253 127.787 26.8774 128.341 27.7122C128.896 28.5471 129.173 29.5039 129.173 30.5826C129.173 31.2895 129.033 31.9872 128.753 32.6759C128.479 33.3645 127.988 34.1293 127.281 34.9703C126.574 35.8052 125.578 36.8077 124.292 37.9777L121.559 40.6561V40.7841H129.42V44.02H116.074ZM132.398 44.02V25.299H139.784C141.198 25.299 142.404 25.5519 143.404 26.0577C144.409 26.5574 145.174 27.2674 145.698 28.1876C146.228 29.1017 146.493 30.1773 146.493 31.4144C146.493 32.6576 146.225 33.7271 145.689 34.6229C145.153 35.5127 144.376 36.1952 143.358 36.6705C142.346 37.1459 141.122 37.3836 139.683 37.3836H134.738V34.2024H139.043C139.799 34.2024 140.427 34.0988 140.927 33.8916C141.426 33.6844 141.798 33.3736 142.042 32.9593C142.292 32.5449 142.417 32.0299 142.417 31.4144C142.417 30.7928 142.292 30.2687 142.042 29.8421C141.798 29.4155 141.423 29.0926 140.917 28.8732C140.418 28.6477 139.787 28.5349 139.025 28.5349H136.356V44.02H132.398ZM142.508 35.5005L147.161 44.02H142.791L138.239 35.5005H142.508ZM160.854 25.299H164.812V37.4567C164.812 38.8218 164.486 40.0162 163.834 41.04C163.188 42.0638 162.283 42.8621 161.119 43.435C159.955 44.0017 158.599 44.2851 157.052 44.2851C155.498 44.2851 154.139 44.0017 152.975 43.435C151.811 42.8621 150.906 42.0638 150.26 41.04C149.614 40.0162 149.291 38.8218 149.291 37.4567V25.299H153.249V37.1185C153.249 37.8315 153.404 38.4653 153.715 39.0198C154.032 39.5744 154.477 40.0101 155.05 40.327C155.622 40.6439 156.29 40.8023 157.052 40.8023C157.819 40.8023 158.487 40.6439 159.053 40.327C159.626 40.0101 160.068 39.5744 160.379 39.0198C160.696 38.4653 160.854 37.8315 160.854 37.1185V25.299ZM168.069 44.02V25.299H175.455C176.869 25.299 178.075 25.5519 179.075 26.0577C180.08 26.5574 180.845 27.2674 181.369 28.1876C181.899 29.1017 182.164 30.1773 182.164 31.4144C182.164 32.6576 181.896 33.7271 181.36 34.6229C180.824 35.5127 180.047 36.1952 179.029 36.6705C178.017 37.1459 176.793 37.3836 175.354 37.3836H170.409V34.2024H174.714C175.47 34.2024 176.098 34.0988 176.598 33.8916C177.097 33.6844 177.469 33.3736 177.713 32.9593C177.963 32.5449 178.088 32.0299 178.088 31.4144C178.088 30.7928 177.963 30.2687 177.713 29.8421C177.469 29.4155 177.094 29.0926 176.588 28.8732C176.089 28.6477 175.458 28.5349 174.696 28.5349H172.027V44.02H168.069ZM178.179 35.5005L182.832 44.02H178.462L173.91 35.5005H178.179ZM188.188 44.02H183.947L190.41 25.299H195.511L201.964 44.02H197.723L193.033 29.577H192.887L188.188 44.02ZM187.923 36.6614H197.942V39.7511H187.923V36.6614ZM204.217 44.02V25.299H208.176V40.7566H216.201V44.02H204.217Z" fill="white"/>
</svg>
