<svg width="32" height="32" viewBox="0 0 32 32" fill="none" xmlns="http://www.w3.org/2000/svg">
<path d="M31.5241 6.58244C30.4107 7.07578 29.2147 7.40911 27.9574 7.55978C29.2547 6.7835 30.2253 5.56173 30.6881 4.12244C29.4692 4.84643 28.1352 5.35604 26.7441 5.62911C25.8086 4.63026 24.5695 3.96821 23.2192 3.74574C21.8688 3.52327 20.4829 3.75283 19.2764 4.39878C18.0699 5.04473 17.1104 6.07093 16.5469 7.31805C15.9834 8.56517 15.8474 9.96344 16.1601 11.2958C13.6903 11.1718 11.2742 10.5298 9.06862 9.41165C6.86302 8.29346 4.91718 6.72399 3.35739 4.80511C2.82406 5.72511 2.51739 6.79178 2.51739 7.92778C2.51679 8.95044 2.76863 9.95743 3.25056 10.8594C3.73249 11.7614 4.4296 12.5305 5.28006 13.0984C4.29376 13.0671 3.32922 12.8006 2.46672 12.3211V12.4011C2.46662 13.8354 2.96277 15.2256 3.87097 16.3358C4.77917 17.4459 6.04349 18.2077 7.44939 18.4918C6.53443 18.7394 5.57517 18.7759 4.64406 18.5984C5.04072 19.8326 5.81338 20.9118 6.85388 21.685C7.89438 22.4582 9.15061 22.8867 10.4467 22.9104C8.2465 24.6377 5.52924 25.5746 2.73206 25.5704C2.23656 25.5706 1.74149 25.5416 1.24939 25.4838C4.08869 27.3093 7.39384 28.2782 10.7694 28.2744C22.1961 28.2744 28.4427 18.8104 28.4427 10.6024C28.4427 10.3358 28.4361 10.0664 28.4241 9.79978C29.6391 8.92108 30.6879 7.83297 31.5214 6.58644L31.5241 6.58244Z" fill="white"/>
</svg>
