<svg width="291" height="56" viewBox="0 0 291 56" fill="none" xmlns="http://www.w3.org/2000/svg">
<path d="M6.32719 42.3321V46.7464C6.32719 48.7332 7.2513 49.7267 9.09953 49.7267C10.9329 49.7267 11.8495 48.7332 11.8495 46.7464V45.9397C11.8495 43.8184 9.8746 41.3386 5.92476 38.5003C1.97492 35.6769 -4.66237e-06 32.2411 0 28.1927V19.857C0 13.7023 3.02573 10.625 9.07718 10.625C15.1435 10.625 18.1767 13.7023 18.1767 19.857V22.602C18.1767 23.4429 17.8434 24.2494 17.2501 24.844C16.6568 25.4386 15.8522 25.7727 15.0131 25.7727C14.1741 25.7727 13.3694 25.4386 12.7761 24.844C12.1828 24.2494 11.8495 23.4429 11.8495 22.602V19.857C11.8495 17.8851 10.9329 16.8917 9.09954 16.8768H9.05482C7.2364 16.8768 6.32719 17.8702 6.32719 19.857V28.0583C6.32719 30.0152 8.30212 32.4129 12.252 35.2512C16.2018 38.0746 18.1767 41.4582 18.1767 45.402V46.7464C18.1767 52.916 15.151 56.0009 9.09954 56.0009C3.03318 55.9859 6.00896e-06 52.9011 1.06713e-05 46.7464V42.3321L6.32719 42.3321Z" fill="#613393"/>
<path d="M20.6497 49.7267C18.8237 49.7267 17.9106 48.7332 17.9106 46.7464V45.9397C17.9106 43.8184 19.8778 41.3386 23.812 38.5003C27.7462 35.6769 29.7133 32.2411 29.7133 28.1927V19.857C29.7133 13.7023 26.6995 10.625 20.672 10.625C14.6296 10.625 11.6085 13.7023 11.6085 19.857V22.6981C11.6257 23.5186 11.9673 24.2987 12.5582 24.867C13.149 25.4352 13.9408 25.7451 14.7596 25.7285C15.5783 25.7451 16.3701 25.4352 16.9609 24.867C17.5518 24.2987 17.8934 23.5186 17.9106 22.6981V19.857C17.9106 17.8851 18.8237 16.8917 20.6497 16.8768H20.6943C22.5055 16.8768 23.4111 17.8702 23.4111 19.857V28.0583C23.4111 30.0152 21.444 32.4129 17.5098 35.2512C13.5756 38.0746 11.6085 41.4582 11.6085 45.402V46.7464C11.6085 52.916 14.6222 56.0009 20.6497 56.0009" fill="#51A3DA"/>
<path d="M22.003 7.64854C24.1103 7.64854 25.8186 5.93636 25.8186 3.82427C25.8186 1.71218 24.1103 0 22.003 0C19.8956 0 18.1873 1.71218 18.1873 3.82427C18.1873 5.93636 19.8956 7.64854 22.003 7.64854Z" fill="#51A3DA"/>
<path d="M9.05495 7.64854C11.1623 7.64854 12.8707 5.93636 12.8707 3.82427C12.8707 1.71218 11.1623 0 9.05495 0C6.9476 0 5.23926 1.71218 5.23926 3.82427C5.23926 5.93636 6.9476 7.64854 9.05495 7.64854Z" fill="#613393"/>
<path d="M48.4561 40.7546V43.2307C48.4561 44.3452 48.9756 44.9024 50.0147 44.9024C51.0453 44.9024 51.5607 44.3452 51.5607 43.2307V42.7782C51.5607 41.5884 50.4504 40.1974 48.2299 38.6053C46.0093 37.0216 44.8991 35.0944 44.8991 32.8235V28.1479C44.8991 24.6956 46.6001 22.9694 50.0021 22.9694C53.4125 22.9694 55.1177 24.6956 55.1177 28.1479V31.4661H51.5607V28.1479C51.5607 27.0418 51.0453 26.4845 50.0147 26.4762H49.9895C48.9673 26.4762 48.4561 27.0334 48.4561 28.1479V32.7481C48.4561 33.8458 49.5664 35.1907 51.7869 36.7828C54.0075 38.3665 55.1177 40.2644 55.1177 42.4766V43.2307C55.1177 46.6914 53.4167 48.4217 50.0147 48.4217C46.6043 48.4134 44.8991 46.683 44.8991 43.2307V40.7546H48.4561ZM64.5948 38.4293L69.2956 48.0195H65.4872L61.7039 39.7994V48.0195H58.1469V23.359H61.7039V37.0719L65.4872 23.359H69.1448L64.5948 38.4293ZM71.5078 23.359H75.0648V48.0195H71.5078V23.359ZM78.4082 48.0195V23.359H81.9652V44.5128H87.6339V48.0195H78.4082ZM89.7706 48.0195V23.359H93.3276V44.5128H98.9963V48.0195H89.7706ZM101.133 42.728C101.133 40.5074 102.239 38.6053 104.451 37.0216C106.672 35.4379 107.786 34.093 107.795 32.9869V28.1479C107.795 27.0334 107.283 26.4762 106.261 26.4762H106.236C105.205 26.4762 104.69 27.0334 104.69 28.1479V31.4535H101.133V28.1479C101.133 24.6872 102.834 22.9568 106.236 22.9568C109.646 22.9568 111.352 24.6872 111.352 28.1479V33.0749C111.352 35.3374 110.241 37.2646 108.021 38.8567C105.8 40.4404 104.69 41.8314 104.69 43.0296V44.5128H111.352V48.0195H101.133V42.728ZM114.632 23.359H119.811C122.97 23.3674 124.549 25.0978 124.549 28.5501V35.5385C124.549 37.7087 123.615 39.1374 121.746 39.8245L125.743 48.0195H121.847L118.642 40.453L118.189 40.5158V48.0195H114.632V23.359ZM118.189 26.8658V37.2101H119.006C119.501 37.2101 119.84 37.1766 120.024 37.1096C120.67 36.8498 120.992 36.3261 120.992 35.5385V28.5501C120.992 27.4272 120.477 26.8658 119.446 26.8658H118.189ZM137.847 43.2307C137.847 46.683 136.142 48.4134 132.732 48.4217C129.33 48.4217 127.629 46.6914 127.629 43.2307V23.359H131.186V43.2307C131.186 44.3452 131.701 44.9024 132.732 44.9024C133.771 44.9024 134.29 44.3452 134.29 43.2307V23.359H137.847V43.2307ZM141.002 23.359H146.181C149.34 23.3674 150.919 25.0978 150.919 28.5501V35.5385C150.919 37.7087 149.985 39.1374 148.116 39.8245L152.113 48.0195H148.217L145.012 40.453L144.559 40.5158V48.0195H141.002V23.359ZM144.559 26.8658V37.2101H145.376C145.87 37.2101 146.21 37.1766 146.394 37.1096C147.039 36.8498 147.362 36.3261 147.362 35.5385V28.5501C147.362 27.4272 146.847 26.8658 145.816 26.8658H144.559ZM159.089 29.0151L156.575 48.0195H152.993L156.663 23.359H161.54L165.198 48.0195H161.603L159.089 29.0151ZM167.347 48.0195V23.359H170.904V44.5128H176.573V48.0195H167.347ZM185.094 23.359H190.574C193.733 23.3674 195.313 25.0978 195.313 28.5501V35.551C195.313 37.1682 194.664 38.312 193.365 38.9824C194.664 39.6527 195.313 40.7965 195.313 42.4137V42.8411C195.313 46.285 193.658 48.0112 190.348 48.0195H185.094V23.359ZM188.651 26.8658V37.2227H189.77C190.264 37.2227 190.604 37.1892 190.788 37.1222C191.433 36.8624 191.756 36.3387 191.756 35.551V28.5501C191.756 27.4272 191.241 26.8658 190.21 26.8658H188.651ZM188.651 40.742V44.5128H190.21C191.241 44.5128 191.756 43.9555 191.756 42.8411V42.4137C191.756 41.6261 191.433 41.1066 190.788 40.8552C190.604 40.7798 190.264 40.742 189.77 40.742H188.651ZM208.184 43.2307C208.184 46.683 206.478 48.4134 203.068 48.4217C199.666 48.4217 197.965 46.6914 197.965 43.2307V28.1479C197.965 24.6956 199.666 22.9694 203.068 22.9694C206.478 22.9694 208.184 24.6956 208.184 28.1479V43.2307ZM204.627 28.1479C204.627 27.0418 204.111 26.4845 203.081 26.4762H203.056C202.033 26.4762 201.522 27.0334 201.522 28.1479V43.2307C201.522 44.3452 202.037 44.9024 203.068 44.9024C204.107 44.9024 204.627 44.3452 204.627 43.2307V28.1479ZM221.18 43.2307C221.18 46.683 219.475 48.4134 216.064 48.4217C212.662 48.4217 210.961 46.6914 210.961 43.2307V28.1479C210.961 24.6956 212.662 22.9694 216.064 22.9694C219.475 22.9694 221.18 24.6956 221.18 28.1479V43.2307ZM217.623 28.1479C217.623 27.0418 217.108 26.4845 216.077 26.4762H216.052C215.03 26.4762 214.518 27.0334 214.518 28.1479V43.2307C214.518 44.3452 215.034 44.9024 216.064 44.9024C217.104 44.9024 217.623 44.3452 217.623 43.2307V28.1479ZM233.422 23.359V26.8658H230.092V48.0195H226.535V26.8658H223.204V23.359H233.422ZM245.665 40.7923V43.2307C245.665 46.683 243.959 48.4134 240.549 48.4217C237.147 48.4217 235.446 46.6914 235.446 43.2307V28.1479C235.446 24.6956 237.147 22.9694 240.549 22.9694C243.959 22.9694 245.665 24.6956 245.665 28.1479V31.4661H242.108V28.1479C242.108 27.0418 241.592 26.4845 240.562 26.4762H240.536C239.514 26.4762 239.003 27.0334 239.003 28.1479V43.2307C239.003 44.3452 239.518 44.9024 240.549 44.9024C241.588 44.9024 242.108 44.3452 242.108 43.2307V40.7923H245.665ZM253.533 29.0151L251.019 48.0195H247.437L251.107 23.359H255.984L259.641 48.0195H256.047L253.533 29.0151ZM269.533 40.2519L273.668 23.359H277.226V48.0195H273.819V34.181L270.778 48.0195H268.364L265.235 34.181V48.0195H261.791V23.359H265.348L269.533 40.2519ZM280.493 23.359H285.672C288.831 23.3674 290.41 25.0978 290.41 28.5501V35.5008C290.41 38.0481 289.275 39.6904 287.004 40.4278C286.46 40.6038 285.668 40.6918 284.629 40.6918H284.051V48.0195H280.493V23.359ZM284.051 26.8658V37.1724H284.867C285.362 37.1724 285.701 37.1389 285.886 37.0719C286.531 36.8121 286.853 36.2884 286.853 35.5008V28.5501C286.853 27.4272 286.338 26.8658 285.307 26.8658H284.051Z" fill="#60269E"/>
</svg>
