<svg width="179" height="11" viewBox="0 0 179 11" fill="none" xmlns="http://www.w3.org/2000/svg">
<path d="M0.88 0.92H1.72V7.22H4.96V8H0.88V0.92ZM5.47 5.66C5.47 5.29333 5.53333 4.96 5.66 4.66C5.78667 4.36 5.96 4.10333 6.18 3.89C6.4 3.67 6.66333 3.5 6.97 3.38C7.27667 3.26 7.61 3.2 7.97 3.2C8.33 3.2 8.66333 3.26 8.97 3.38C9.27667 3.5 9.54 3.67 9.76 3.89C9.98 4.10333 10.1533 4.36 10.28 4.66C10.4067 4.96 10.47 5.29333 10.47 5.66C10.47 6.02667 10.4067 6.36 10.28 6.66C10.1533 6.96 9.98 7.22 9.76 7.44C9.54 7.65333 9.27667 7.82 8.97 7.94C8.66333 8.06 8.33 8.12 7.97 8.12C7.61 8.12 7.27667 8.06 6.97 7.94C6.66333 7.82 6.4 7.65333 6.18 7.44C5.96 7.22 5.78667 6.96 5.66 6.66C5.53333 6.36 5.47 6.02667 5.47 5.66ZM6.31 5.66C6.31 5.90667 6.34667 6.13667 6.42 6.35C6.5 6.55667 6.61333 6.74 6.76 6.9C6.90667 7.05333 7.08 7.17667 7.28 7.27C7.48667 7.35667 7.71667 7.4 7.97 7.4C8.22333 7.4 8.45 7.35667 8.65 7.27C8.85667 7.17667 9.03333 7.05333 9.18 6.9C9.32667 6.74 9.43667 6.55667 9.51 6.35C9.59 6.13667 9.63 5.90667 9.63 5.66C9.63 5.41333 9.59 5.18667 9.51 4.98C9.43667 4.76667 9.32667 4.58333 9.18 4.43C9.03333 4.27 8.85667 4.14667 8.65 4.06C8.45 3.96667 8.22333 3.92 7.97 3.92C7.71667 3.92 7.48667 3.96667 7.28 4.06C7.08 4.14667 6.90667 4.27 6.76 4.43C6.61333 4.58333 6.5 4.76667 6.42 4.98C6.34667 5.18667 6.31 5.41333 6.31 5.66ZM11.6775 4.43C11.6775 4.21667 11.6708 4.01667 11.6575 3.83C11.6442 3.64333 11.6375 3.47333 11.6375 3.32H12.3775C12.3775 3.44667 12.3808 3.57333 12.3875 3.7C12.3942 3.82667 12.3975 3.95667 12.3975 4.09H12.4175C12.4708 3.97667 12.5442 3.86667 12.6375 3.76C12.7375 3.65333 12.8542 3.56 12.9875 3.48C13.1208 3.39333 13.2708 3.32667 13.4375 3.28C13.6042 3.22667 13.7842 3.2 13.9775 3.2C14.0308 3.2 14.0842 3.20333 14.1375 3.21C14.1908 3.21667 14.2442 3.23 14.2975 3.25L14.2475 4.04C14.1142 4 13.9742 3.98 13.8275 3.98C13.3475 3.98 12.9975 4.13667 12.7775 4.45C12.5642 4.75667 12.4575 5.18 12.4575 5.72V8H11.6775V4.43ZM19.1973 7.15C18.9173 7.51 18.6107 7.76333 18.2773 7.91C17.944 8.05 17.5573 8.12 17.1173 8.12C16.7507 8.12 16.4207 8.05667 16.1273 7.93C15.834 7.79667 15.584 7.62 15.3773 7.4C15.1773 7.18 15.0207 6.92 14.9073 6.62C14.8007 6.32 14.7473 6 14.7473 5.66C14.7473 5.3 14.8073 4.97 14.9273 4.67C15.0473 4.36333 15.214 4.10333 15.4273 3.89C15.6407 3.67 15.894 3.5 16.1873 3.38C16.4807 3.26 16.8007 3.2 17.1473 3.2C17.474 3.2 17.774 3.25667 18.0473 3.37C18.3207 3.47667 18.554 3.63667 18.7473 3.85C18.9473 4.05667 19.1007 4.31333 19.2073 4.62C19.314 4.92 19.3673 5.26333 19.3673 5.65V5.9H15.5873C15.6007 6.1 15.6473 6.29333 15.7273 6.48C15.814 6.66 15.924 6.82 16.0573 6.96C16.1907 7.09333 16.3473 7.2 16.5273 7.28C16.7073 7.36 16.904 7.4 17.1173 7.4C17.4573 7.4 17.744 7.34 17.9773 7.22C18.2107 7.1 18.4207 6.92333 18.6073 6.69L19.1973 7.15ZM18.5273 5.24C18.514 4.84 18.384 4.52 18.1373 4.28C17.8907 4.04 17.5507 3.92 17.1173 3.92C16.684 3.92 16.334 4.04 16.0673 4.28C15.8007 4.52 15.6407 4.84 15.5873 5.24H18.5273ZM20.574 4.43C20.574 4.21667 20.5673 4.01667 20.554 3.83C20.5407 3.64333 20.534 3.47333 20.534 3.32H21.274C21.274 3.44667 21.2773 3.57333 21.284 3.7C21.2907 3.82667 21.294 3.95667 21.294 4.09H21.314C21.3673 3.97667 21.4407 3.86667 21.534 3.76C21.634 3.65333 21.7507 3.56 21.884 3.48C22.0173 3.39333 22.1673 3.32667 22.334 3.28C22.5007 3.22667 22.6807 3.2 22.874 3.2C23.1273 3.2 23.3373 3.23333 23.504 3.3C23.6773 3.36 23.8207 3.43667 23.934 3.53C24.0473 3.61667 24.134 3.71333 24.194 3.82C24.2607 3.92 24.314 4.01 24.354 4.09C24.5273 3.81 24.7273 3.59333 24.954 3.44C25.1807 3.28 25.474 3.2 25.834 3.2C26.1673 3.2 26.4473 3.24667 26.674 3.34C26.9007 3.42667 27.084 3.55667 27.224 3.73C27.364 3.89667 27.464 4.10333 27.524 4.35C27.584 4.59 27.614 4.86 27.614 5.16V8H26.834V5.2C26.834 5.04 26.8173 4.88333 26.784 4.73C26.7507 4.57667 26.6907 4.44 26.604 4.32C26.5173 4.2 26.4007 4.10333 26.254 4.03C26.1073 3.95667 25.9207 3.92 25.694 3.92C25.5273 3.92 25.3707 3.95333 25.224 4.02C25.0773 4.08667 24.9473 4.18 24.834 4.3C24.7273 4.42 24.6407 4.56667 24.574 4.74C24.514 4.90667 24.484 5.09333 24.484 5.3V8H23.704V5.35C23.704 4.83 23.634 4.46333 23.494 4.25C23.354 4.03 23.124 3.92 22.804 3.92C22.5507 3.92 22.3307 3.96333 22.144 4.05C21.964 4.13667 21.814 4.26 21.694 4.42C21.5807 4.58 21.494 4.77 21.434 4.99C21.3807 5.21 21.354 5.45333 21.354 5.72V8H20.574V4.43ZM31.9428 3.32H32.7228V8H31.9428V3.32ZM31.7628 1.49C31.7628 1.33667 31.8161 1.20333 31.9228 1.09C32.0361 0.976666 32.1728 0.92 32.3328 0.92C32.4928 0.92 32.6261 0.976666 32.7328 1.09C32.8461 1.20333 32.9028 1.33667 32.9028 1.49C32.9028 1.65667 32.8495 1.79333 32.7428 1.9C32.6361 2.00667 32.4995 2.06 32.3328 2.06C32.1661 2.06 32.0295 2.00667 31.9228 1.9C31.8161 1.79333 31.7628 1.65667 31.7628 1.49ZM34.2352 3.32H35.0152V4H35.0352C35.2485 3.74667 35.4952 3.55 35.7752 3.41C36.0618 3.27 36.3752 3.2 36.7152 3.2C37.0818 3.2 37.4152 3.26333 37.7152 3.39C38.0218 3.51 38.2818 3.68 38.4952 3.9C38.7085 4.12 38.8752 4.38 38.9952 4.68C39.1152 4.98 39.1752 5.30667 39.1752 5.66C39.1752 6.01333 39.1152 6.34 38.9952 6.64C38.8752 6.94 38.7085 7.2 38.4952 7.42C38.2885 7.64 38.0418 7.81333 37.7552 7.94C37.4685 8.06 37.1618 8.12 36.8352 8.12C36.4152 8.12 36.0452 8.03 35.7252 7.85C35.4118 7.66333 35.1818 7.43667 35.0352 7.17H35.0152V10.28H34.2352V3.32ZM35.0152 5.66C35.0152 5.90667 35.0518 6.13667 35.1252 6.35C35.2052 6.55667 35.3185 6.74 35.4652 6.9C35.6118 7.05333 35.7852 7.17667 35.9852 7.27C36.1918 7.35667 36.4218 7.4 36.6752 7.4C36.9285 7.4 37.1552 7.35667 37.3552 7.27C37.5618 7.17667 37.7385 7.05333 37.8852 6.9C38.0318 6.74 38.1418 6.55667 38.2152 6.35C38.2952 6.13667 38.3352 5.90667 38.3352 5.66C38.3352 5.41333 38.2952 5.18667 38.2152 4.98C38.1418 4.76667 38.0318 4.58333 37.8852 4.43C37.7385 4.27 37.5618 4.14667 37.3552 4.06C37.1552 3.96667 36.9285 3.92 36.6752 3.92C36.4218 3.92 36.1918 3.96667 35.9852 4.06C35.7852 4.14667 35.6118 4.27 35.4652 4.43C35.3185 4.58333 35.2052 4.76667 35.1252 4.98C35.0518 5.18667 35.0152 5.41333 35.0152 5.66ZM40.4884 6.77C40.6418 6.96333 40.8084 7.11667 40.9884 7.23C41.1751 7.34333 41.4084 7.4 41.6884 7.4C41.8084 7.4 41.9284 7.38667 42.0484 7.36C42.1751 7.33333 42.2884 7.29 42.3884 7.23C42.4884 7.17 42.5684 7.09667 42.6284 7.01C42.6884 6.91667 42.7184 6.80667 42.7184 6.68C42.7184 6.55333 42.6884 6.45 42.6284 6.37C42.5751 6.29 42.5018 6.22333 42.4084 6.17C42.3151 6.11 42.2084 6.06333 42.0884 6.03C41.9684 5.99667 41.8451 5.96667 41.7184 5.94C41.4984 5.89333 41.2884 5.84 41.0884 5.78C40.8884 5.72 40.7118 5.64333 40.5584 5.55C40.4118 5.45 40.2918 5.32333 40.1984 5.17C40.1118 5.01667 40.0684 4.82 40.0684 4.58C40.0684 4.35333 40.1184 4.15333 40.2184 3.98C40.3184 3.80667 40.4518 3.66333 40.6184 3.55C40.7851 3.43667 40.9718 3.35 41.1784 3.29C41.3851 3.23 41.5984 3.2 41.8184 3.2C42.1518 3.2 42.4584 3.26667 42.7384 3.4C43.0251 3.53333 43.2484 3.75 43.4084 4.05L42.7584 4.48C42.6584 4.31333 42.5251 4.18 42.3584 4.08C42.1984 3.97333 42.0018 3.92 41.7684 3.92C41.6618 3.92 41.5518 3.93333 41.4384 3.96C41.3318 3.98667 41.2351 4.02667 41.1484 4.08C41.0618 4.13333 40.9884 4.20333 40.9284 4.29C40.8751 4.37 40.8484 4.46333 40.8484 4.57C40.8484 4.67 40.8784 4.75667 40.9384 4.83C41.0051 4.89667 41.0918 4.95667 41.1984 5.01C41.3118 5.06333 41.4384 5.11 41.5784 5.15C41.7251 5.19 41.8751 5.22333 42.0284 5.25C42.2351 5.29 42.4318 5.34333 42.6184 5.41C42.8051 5.47 42.9684 5.55333 43.1084 5.66C43.2484 5.76667 43.3584 5.9 43.4384 6.06C43.5184 6.22 43.5584 6.41667 43.5584 6.65C43.5584 6.91667 43.5051 7.14333 43.3984 7.33C43.2918 7.51667 43.1484 7.67 42.9684 7.79C42.7951 7.90333 42.5951 7.98667 42.3684 8.04C42.1484 8.09333 41.9218 8.12 41.6884 8.12C41.2884 8.12 40.9418 8.06 40.6484 7.94C40.3618 7.81333 40.1018 7.58333 39.8684 7.25L40.4884 6.77ZM48.7263 6.89C48.7263 7.10333 48.7329 7.30333 48.7463 7.49C48.7596 7.67667 48.7663 7.84667 48.7663 8H48.0263C48.0263 7.87333 48.0229 7.74667 48.0163 7.62C48.0096 7.49333 48.0063 7.36333 48.0063 7.23H47.9863C47.9329 7.34333 47.8563 7.45333 47.7563 7.56C47.6629 7.66667 47.5496 7.76333 47.4163 7.85C47.2829 7.93 47.1329 7.99333 46.9663 8.04C46.7996 8.09333 46.6196 8.12 46.4263 8.12C46.1196 8.12 45.8529 8.07333 45.6263 7.98C45.4063 7.88667 45.2229 7.75667 45.0763 7.59C44.9296 7.42333 44.8196 7.22333 44.7463 6.99C44.6796 6.75 44.6463 6.49 44.6463 6.21V3.32H45.4263V6.13C45.4263 6.52333 45.5129 6.83333 45.6863 7.06C45.8596 7.28667 46.1296 7.4 46.4963 7.4C46.7496 7.4 46.9663 7.35667 47.1463 7.27C47.3329 7.18333 47.4829 7.06 47.5963 6.9C47.7163 6.74 47.8029 6.55 47.8563 6.33C47.9163 6.11 47.9463 5.86667 47.9463 5.6V3.32H48.7263V6.89ZM50.2029 4.43C50.2029 4.21667 50.1962 4.01667 50.1829 3.83C50.1696 3.64333 50.1629 3.47333 50.1629 3.32H50.9029C50.9029 3.44667 50.9062 3.57333 50.9129 3.7C50.9196 3.82667 50.9229 3.95667 50.9229 4.09H50.9429C50.9962 3.97667 51.0696 3.86667 51.1629 3.76C51.2629 3.65333 51.3796 3.56 51.5129 3.48C51.6462 3.39333 51.7962 3.32667 51.9629 3.28C52.1296 3.22667 52.3096 3.2 52.5029 3.2C52.7562 3.2 52.9662 3.23333 53.1329 3.3C53.3062 3.36 53.4496 3.43667 53.5629 3.53C53.6762 3.61667 53.7629 3.71333 53.8229 3.82C53.8896 3.92 53.9429 4.01 53.9829 4.09C54.1562 3.81 54.3562 3.59333 54.5829 3.44C54.8096 3.28 55.1029 3.2 55.4629 3.2C55.7962 3.2 56.0762 3.24667 56.3029 3.34C56.5296 3.42667 56.7129 3.55667 56.8529 3.73C56.9929 3.89667 57.0929 4.10333 57.1529 4.35C57.2129 4.59 57.2429 4.86 57.2429 5.16V8H56.4629V5.2C56.4629 5.04 56.4462 4.88333 56.4129 4.73C56.3796 4.57667 56.3196 4.44 56.2329 4.32C56.1462 4.2 56.0296 4.10333 55.8829 4.03C55.7362 3.95667 55.5496 3.92 55.3229 3.92C55.1562 3.92 54.9996 3.95333 54.8529 4.02C54.7062 4.08667 54.5762 4.18 54.4629 4.3C54.3562 4.42 54.2696 4.56667 54.2029 4.74C54.1429 4.90667 54.1129 5.09333 54.1129 5.3V8H53.3329V5.35C53.3329 4.83 53.2629 4.46333 53.1229 4.25C52.9829 4.03 52.7529 3.92 52.4329 3.92C52.1796 3.92 51.9596 3.96333 51.7729 4.05C51.5929 4.13667 51.4429 4.26 51.3229 4.42C51.2096 4.58 51.1229 4.77 51.0629 4.99C51.0096 5.21 50.9829 5.45333 50.9829 5.72V8H50.2029V4.43ZM65.3917 7.17H65.3717C65.2251 7.43667 64.9917 7.66333 64.6717 7.85C64.3584 8.03 63.9917 8.12 63.5717 8.12C63.2451 8.12 62.9384 8.06 62.6517 7.94C62.3651 7.81333 62.1151 7.64 61.9017 7.42C61.6951 7.2 61.5317 6.94 61.4117 6.64C61.2917 6.34 61.2317 6.01333 61.2317 5.66C61.2317 5.30667 61.2917 4.98 61.4117 4.68C61.5317 4.38 61.6984 4.12 61.9117 3.9C62.1251 3.68 62.3817 3.51 62.6817 3.39C62.9884 3.26333 63.3251 3.2 63.6917 3.2C64.0317 3.2 64.3417 3.27 64.6217 3.41C64.9084 3.55 65.1584 3.74667 65.3717 4H65.3917V0.44H66.1717V8H65.3917V7.17ZM65.3917 5.66C65.3917 5.41333 65.3517 5.18667 65.2717 4.98C65.1984 4.76667 65.0884 4.58333 64.9417 4.43C64.7951 4.27 64.6184 4.14667 64.4117 4.06C64.2117 3.96667 63.9851 3.92 63.7317 3.92C63.4784 3.92 63.2484 3.96667 63.0417 4.06C62.8417 4.14667 62.6684 4.27 62.5217 4.43C62.3751 4.58333 62.2617 4.76667 62.1817 4.98C62.1084 5.18667 62.0717 5.41333 62.0717 5.66C62.0717 5.90667 62.1084 6.13667 62.1817 6.35C62.2617 6.55667 62.3751 6.74 62.5217 6.9C62.6684 7.05333 62.8417 7.17667 63.0417 7.27C63.2484 7.35667 63.4784 7.4 63.7317 7.4C63.9851 7.4 64.2117 7.35667 64.4117 7.27C64.6184 7.17667 64.7951 7.05333 64.9417 6.9C65.0884 6.74 65.1984 6.55667 65.2717 6.35C65.3517 6.13667 65.3917 5.90667 65.3917 5.66ZM67.345 5.66C67.345 5.29333 67.4083 4.96 67.535 4.66C67.6617 4.36 67.835 4.10333 68.055 3.89C68.275 3.67 68.5383 3.5 68.845 3.38C69.1517 3.26 69.485 3.2 69.845 3.2C70.205 3.2 70.5383 3.26 70.845 3.38C71.1517 3.5 71.415 3.67 71.635 3.89C71.855 4.10333 72.0283 4.36 72.155 4.66C72.2817 4.96 72.345 5.29333 72.345 5.66C72.345 6.02667 72.2817 6.36 72.155 6.66C72.0283 6.96 71.855 7.22 71.635 7.44C71.415 7.65333 71.1517 7.82 70.845 7.94C70.5383 8.06 70.205 8.12 69.845 8.12C69.485 8.12 69.1517 8.06 68.845 7.94C68.5383 7.82 68.275 7.65333 68.055 7.44C67.835 7.22 67.6617 6.96 67.535 6.66C67.4083 6.36 67.345 6.02667 67.345 5.66ZM68.185 5.66C68.185 5.90667 68.2217 6.13667 68.295 6.35C68.375 6.55667 68.4883 6.74 68.635 6.9C68.7817 7.05333 68.955 7.17667 69.155 7.27C69.3617 7.35667 69.5917 7.4 69.845 7.4C70.0983 7.4 70.325 7.35667 70.525 7.27C70.7317 7.17667 70.9083 7.05333 71.055 6.9C71.2017 6.74 71.3117 6.55667 71.385 6.35C71.465 6.13667 71.505 5.90667 71.505 5.66C71.505 5.41333 71.465 5.18667 71.385 4.98C71.3117 4.76667 71.2017 4.58333 71.055 4.43C70.9083 4.27 70.7317 4.14667 70.525 4.06C70.325 3.96667 70.0983 3.92 69.845 3.92C69.5917 3.92 69.3617 3.96667 69.155 4.06C68.955 4.14667 68.7817 4.27 68.635 4.43C68.4883 4.58333 68.375 4.76667 68.295 4.98C68.2217 5.18667 68.185 5.41333 68.185 5.66ZM73.6225 0.44H74.4025V8H73.6225V0.44ZM75.6848 5.66C75.6848 5.29333 75.7482 4.96 75.8748 4.66C76.0015 4.36 76.1748 4.10333 76.3948 3.89C76.6148 3.67 76.8782 3.5 77.1848 3.38C77.4915 3.26 77.8248 3.2 78.1848 3.2C78.5448 3.2 78.8782 3.26 79.1848 3.38C79.4915 3.5 79.7548 3.67 79.9748 3.89C80.1948 4.10333 80.3682 4.36 80.4948 4.66C80.6215 4.96 80.6848 5.29333 80.6848 5.66C80.6848 6.02667 80.6215 6.36 80.4948 6.66C80.3682 6.96 80.1948 7.22 79.9748 7.44C79.7548 7.65333 79.4915 7.82 79.1848 7.94C78.8782 8.06 78.5448 8.12 78.1848 8.12C77.8248 8.12 77.4915 8.06 77.1848 7.94C76.8782 7.82 76.6148 7.65333 76.3948 7.44C76.1748 7.22 76.0015 6.96 75.8748 6.66C75.7482 6.36 75.6848 6.02667 75.6848 5.66ZM76.5248 5.66C76.5248 5.90667 76.5615 6.13667 76.6348 6.35C76.7148 6.55667 76.8282 6.74 76.9748 6.9C77.1215 7.05333 77.2948 7.17667 77.4948 7.27C77.7015 7.35667 77.9315 7.4 78.1848 7.4C78.4382 7.4 78.6648 7.35667 78.8648 7.27C79.0715 7.17667 79.2482 7.05333 79.3948 6.9C79.5415 6.74 79.6515 6.55667 79.7248 6.35C79.8048 6.13667 79.8448 5.90667 79.8448 5.66C79.8448 5.41333 79.8048 5.18667 79.7248 4.98C79.6515 4.76667 79.5415 4.58333 79.3948 4.43C79.2482 4.27 79.0715 4.14667 78.8648 4.06C78.6648 3.96667 78.4382 3.92 78.1848 3.92C77.9315 3.92 77.7015 3.96667 77.4948 4.06C77.2948 4.14667 77.1215 4.27 76.9748 4.43C76.8282 4.58333 76.7148 4.76667 76.6348 4.98C76.5615 5.18667 76.5248 5.41333 76.5248 5.66ZM81.8923 4.43C81.8923 4.21667 81.8857 4.01667 81.8723 3.83C81.859 3.64333 81.8523 3.47333 81.8523 3.32H82.5923C82.5923 3.44667 82.5957 3.57333 82.6023 3.7C82.609 3.82667 82.6123 3.95667 82.6123 4.09H82.6323C82.6857 3.97667 82.759 3.86667 82.8523 3.76C82.9523 3.65333 83.069 3.56 83.2023 3.48C83.3357 3.39333 83.4857 3.32667 83.6523 3.28C83.819 3.22667 83.999 3.2 84.1923 3.2C84.2457 3.2 84.299 3.20333 84.3523 3.21C84.4057 3.21667 84.459 3.23 84.5123 3.25L84.4623 4.04C84.329 4 84.189 3.98 84.0423 3.98C83.5623 3.98 83.2123 4.13667 82.9923 4.45C82.779 4.75667 82.6723 5.18 82.6723 5.72V8H81.8923V4.43ZM88.2912 6.77C88.4445 6.96333 88.6112 7.11667 88.7912 7.23C88.9778 7.34333 89.2112 7.4 89.4912 7.4C89.6112 7.4 89.7312 7.38667 89.8512 7.36C89.9778 7.33333 90.0912 7.29 90.1912 7.23C90.2912 7.17 90.3712 7.09667 90.4312 7.01C90.4912 6.91667 90.5212 6.80667 90.5212 6.68C90.5212 6.55333 90.4912 6.45 90.4312 6.37C90.3778 6.29 90.3045 6.22333 90.2112 6.17C90.1178 6.11 90.0112 6.06333 89.8912 6.03C89.7712 5.99667 89.6478 5.96667 89.5212 5.94C89.3012 5.89333 89.0912 5.84 88.8912 5.78C88.6912 5.72 88.5145 5.64333 88.3612 5.55C88.2145 5.45 88.0945 5.32333 88.0012 5.17C87.9145 5.01667 87.8712 4.82 87.8712 4.58C87.8712 4.35333 87.9212 4.15333 88.0212 3.98C88.1212 3.80667 88.2545 3.66333 88.4212 3.55C88.5878 3.43667 88.7745 3.35 88.9812 3.29C89.1878 3.23 89.4012 3.2 89.6212 3.2C89.9545 3.2 90.2612 3.26667 90.5412 3.4C90.8278 3.53333 91.0512 3.75 91.2112 4.05L90.5612 4.48C90.4612 4.31333 90.3278 4.18 90.1612 4.08C90.0012 3.97333 89.8045 3.92 89.5712 3.92C89.4645 3.92 89.3545 3.93333 89.2412 3.96C89.1345 3.98667 89.0378 4.02667 88.9512 4.08C88.8645 4.13333 88.7912 4.20333 88.7312 4.29C88.6778 4.37 88.6512 4.46333 88.6512 4.57C88.6512 4.67 88.6812 4.75667 88.7412 4.83C88.8078 4.89667 88.8945 4.95667 89.0012 5.01C89.1145 5.06333 89.2412 5.11 89.3812 5.15C89.5278 5.19 89.6778 5.22333 89.8312 5.25C90.0378 5.29 90.2345 5.34333 90.4212 5.41C90.6078 5.47 90.7712 5.55333 90.9112 5.66C91.0512 5.76667 91.1612 5.9 91.2412 6.06C91.3212 6.22 91.3612 6.41667 91.3612 6.65C91.3612 6.91667 91.3078 7.14333 91.2012 7.33C91.0945 7.51667 90.9512 7.67 90.7712 7.79C90.5978 7.90333 90.3978 7.98667 90.1712 8.04C89.9512 8.09333 89.7245 8.12 89.4912 8.12C89.0912 8.12 88.7445 8.06 88.4512 7.94C88.1645 7.81333 87.9045 7.58333 87.6712 7.25L88.2912 6.77ZM92.519 3.32H93.299V8H92.519V3.32ZM92.339 1.49C92.339 1.33667 92.3923 1.20333 92.499 1.09C92.6123 0.976666 92.749 0.92 92.909 0.92C93.069 0.92 93.2023 0.976666 93.309 1.09C93.4223 1.20333 93.479 1.33667 93.479 1.49C93.479 1.65667 93.4257 1.79333 93.319 1.9C93.2123 2.00667 93.0757 2.06 92.909 2.06C92.7423 2.06 92.6057 2.00667 92.499 1.9C92.3923 1.79333 92.339 1.65667 92.339 1.49ZM97.4113 3.98H96.0313V6.32C96.0313 6.47333 96.0347 6.61667 96.0413 6.75C96.048 6.87667 96.0747 6.99 96.1213 7.09C96.168 7.18333 96.238 7.26 96.3313 7.32C96.4247 7.37333 96.558 7.4 96.7313 7.4C96.8447 7.4 96.9613 7.38667 97.0813 7.36C97.2013 7.33333 97.3147 7.29333 97.4213 7.24L97.4513 7.95C97.318 8.01 97.168 8.05333 97.0013 8.08C96.8413 8.10667 96.688 8.12 96.5413 8.12C96.2613 8.12 96.038 8.08333 95.8713 8.01C95.7047 7.93667 95.5747 7.83333 95.4813 7.7C95.388 7.56667 95.3247 7.40333 95.2913 7.21C95.2647 7.01 95.2513 6.79 95.2513 6.55V3.98H94.2313V3.32H95.2513V1.99H96.0313V3.32H97.4113V3.98ZM101.09 3.92C101.33 3.67333 101.613 3.49333 101.94 3.38C102.273 3.26 102.61 3.2 102.95 3.2C103.643 3.2 104.143 3.36333 104.45 3.69C104.757 4.01667 104.91 4.51333 104.91 5.18V7.19C104.91 7.32333 104.917 7.46333 104.93 7.61C104.943 7.75 104.96 7.88 104.98 8H104.23C104.203 7.89333 104.187 7.77667 104.18 7.65C104.18 7.51667 104.18 7.4 104.18 7.3H104.16C104.007 7.54 103.8 7.73667 103.54 7.89C103.287 8.04333 102.98 8.12 102.62 8.12C102.38 8.12 102.153 8.09 101.94 8.03C101.733 7.97 101.55 7.88333 101.39 7.77C101.237 7.65 101.113 7.50333 101.02 7.33C100.927 7.15667 100.88 6.95667 100.88 6.73C100.88 6.34333 100.98 6.04 101.18 5.82C101.38 5.6 101.627 5.43667 101.92 5.33C102.22 5.22333 102.54 5.15667 102.88 5.13C103.227 5.10333 103.543 5.09 103.83 5.09H104.13V4.95C104.13 4.61 104.027 4.35333 103.82 4.18C103.62 4.00667 103.337 3.92 102.97 3.92C102.717 3.92 102.467 3.96333 102.22 4.05C101.98 4.13 101.767 4.25667 101.58 4.43L101.09 3.92ZM103.35 5.75C102.85 5.75 102.453 5.82 102.16 5.96C101.867 6.1 101.72 6.33 101.72 6.65C101.72 6.94333 101.817 7.15333 102.01 7.28C102.21 7.4 102.457 7.46 102.75 7.46C102.977 7.46 103.173 7.42333 103.34 7.35C103.513 7.27 103.657 7.16667 103.77 7.04C103.883 6.91333 103.97 6.76667 104.03 6.6C104.09 6.42667 104.123 6.24333 104.13 6.05V5.75H103.35ZM106.336 4.43C106.336 4.21667 106.329 4.01667 106.316 3.83C106.302 3.64333 106.296 3.47333 106.296 3.32H107.036C107.036 3.44667 107.039 3.57333 107.046 3.7C107.052 3.82667 107.056 3.95667 107.056 4.09H107.076C107.129 3.97667 107.202 3.86667 107.296 3.76C107.396 3.65333 107.512 3.56 107.646 3.48C107.779 3.39333 107.929 3.32667 108.096 3.28C108.262 3.22667 108.442 3.2 108.636 3.2C108.889 3.2 109.099 3.23333 109.266 3.3C109.439 3.36 109.582 3.43667 109.696 3.53C109.809 3.61667 109.896 3.71333 109.956 3.82C110.022 3.92 110.076 4.01 110.116 4.09C110.289 3.81 110.489 3.59333 110.716 3.44C110.942 3.28 111.236 3.2 111.596 3.2C111.929 3.2 112.209 3.24667 112.436 3.34C112.662 3.42667 112.846 3.55667 112.986 3.73C113.126 3.89667 113.226 4.10333 113.286 4.35C113.346 4.59 113.376 4.86 113.376 5.16V8H112.596V5.2C112.596 5.04 112.579 4.88333 112.546 4.73C112.512 4.57667 112.452 4.44 112.366 4.32C112.279 4.2 112.162 4.10333 112.016 4.03C111.869 3.95667 111.682 3.92 111.456 3.92C111.289 3.92 111.132 3.95333 110.986 4.02C110.839 4.08667 110.709 4.18 110.596 4.3C110.489 4.42 110.402 4.56667 110.336 4.74C110.276 4.90667 110.246 5.09333 110.246 5.3V8H109.466V5.35C109.466 4.83 109.396 4.46333 109.256 4.25C109.116 4.03 108.886 3.92 108.566 3.92C108.312 3.92 108.092 3.96333 107.906 4.05C107.726 4.13667 107.576 4.26 107.456 4.42C107.342 4.58 107.256 4.77 107.196 4.99C107.142 5.21 107.116 5.45333 107.116 5.72V8H106.336V4.43ZM119.031 7.15C118.751 7.51 118.445 7.76333 118.111 7.91C117.778 8.05 117.391 8.12 116.951 8.12C116.585 8.12 116.255 8.05667 115.961 7.93C115.668 7.79667 115.418 7.62 115.211 7.4C115.011 7.18 114.855 6.92 114.741 6.62C114.635 6.32 114.581 6 114.581 5.66C114.581 5.3 114.641 4.97 114.761 4.67C114.881 4.36333 115.048 4.10333 115.261 3.89C115.475 3.67 115.728 3.5 116.021 3.38C116.315 3.26 116.635 3.2 116.981 3.2C117.308 3.2 117.608 3.25667 117.881 3.37C118.155 3.47667 118.388 3.63667 118.581 3.85C118.781 4.05667 118.935 4.31333 119.041 4.62C119.148 4.92 119.201 5.26333 119.201 5.65V5.9H115.421C115.435 6.1 115.481 6.29333 115.561 6.48C115.648 6.66 115.758 6.82 115.891 6.96C116.025 7.09333 116.181 7.2 116.361 7.28C116.541 7.36 116.738 7.4 116.951 7.4C117.291 7.4 117.578 7.34 117.811 7.22C118.045 7.1 118.255 6.92333 118.441 6.69L119.031 7.15ZM118.361 5.24C118.348 4.84 118.218 4.52 117.971 4.28C117.725 4.04 117.385 3.92 116.951 3.92C116.518 3.92 116.168 4.04 115.901 4.28C115.635 4.52 115.475 4.84 115.421 5.24H118.361ZM122.968 3.98H121.588V6.32C121.588 6.47333 121.591 6.61667 121.598 6.75C121.605 6.87667 121.631 6.99 121.678 7.09C121.725 7.18333 121.795 7.26 121.888 7.32C121.981 7.37333 122.115 7.4 122.288 7.4C122.401 7.4 122.518 7.38667 122.638 7.36C122.758 7.33333 122.871 7.29333 122.978 7.24L123.008 7.95C122.875 8.01 122.725 8.05333 122.558 8.08C122.398 8.10667 122.245 8.12 122.098 8.12C121.818 8.12 121.595 8.08333 121.428 8.01C121.261 7.93667 121.131 7.83333 121.038 7.7C120.945 7.56667 120.881 7.40333 120.848 7.21C120.821 7.01 120.808 6.79 120.808 6.55V3.98H119.788V3.32H120.808V1.99H121.588V3.32H122.968V3.98ZM130.037 4.49C129.87 4.29 129.69 4.14667 129.497 4.06C129.303 3.96667 129.09 3.92 128.857 3.92C128.597 3.92 128.367 3.96667 128.167 4.06C127.967 4.14667 127.8 4.27 127.667 4.43C127.54 4.59 127.443 4.77667 127.377 4.99C127.31 5.19667 127.277 5.42 127.277 5.66C127.277 5.9 127.313 6.12667 127.387 6.34C127.467 6.54667 127.573 6.73 127.707 6.89C127.847 7.05 128.013 7.17667 128.207 7.27C128.4 7.35667 128.617 7.4 128.857 7.4C129.37 7.4 129.767 7.20667 130.047 6.82L130.627 7.37C130.4 7.63 130.133 7.82 129.827 7.94C129.52 8.06 129.197 8.12 128.857 8.12C128.497 8.12 128.167 8.06 127.867 7.94C127.567 7.82 127.31 7.65 127.097 7.43C126.89 7.21 126.727 6.95 126.607 6.65C126.493 6.35 126.437 6.02 126.437 5.66C126.437 5.30667 126.493 4.98 126.607 4.68C126.727 4.38 126.893 4.12 127.107 3.9C127.32 3.68 127.573 3.51 127.867 3.39C128.167 3.26333 128.497 3.2 128.857 3.2C129.203 3.2 129.53 3.26 129.837 3.38C130.15 3.5 130.423 3.68667 130.657 3.94L130.037 4.49ZM131.261 5.66C131.261 5.29333 131.324 4.96 131.451 4.66C131.578 4.36 131.751 4.10333 131.971 3.89C132.191 3.67 132.454 3.5 132.761 3.38C133.068 3.26 133.401 3.2 133.761 3.2C134.121 3.2 134.454 3.26 134.761 3.38C135.068 3.5 135.331 3.67 135.551 3.89C135.771 4.10333 135.944 4.36 136.071 4.66C136.198 4.96 136.261 5.29333 136.261 5.66C136.261 6.02667 136.198 6.36 136.071 6.66C135.944 6.96 135.771 7.22 135.551 7.44C135.331 7.65333 135.068 7.82 134.761 7.94C134.454 8.06 134.121 8.12 133.761 8.12C133.401 8.12 133.068 8.06 132.761 7.94C132.454 7.82 132.191 7.65333 131.971 7.44C131.751 7.22 131.578 6.96 131.451 6.66C131.324 6.36 131.261 6.02667 131.261 5.66ZM132.101 5.66C132.101 5.90667 132.138 6.13667 132.211 6.35C132.291 6.55667 132.404 6.74 132.551 6.9C132.698 7.05333 132.871 7.17667 133.071 7.27C133.278 7.35667 133.508 7.4 133.761 7.4C134.014 7.4 134.241 7.35667 134.441 7.27C134.648 7.17667 134.824 7.05333 134.971 6.9C135.118 6.74 135.228 6.55667 135.301 6.35C135.381 6.13667 135.421 5.90667 135.421 5.66C135.421 5.41333 135.381 5.18667 135.301 4.98C135.228 4.76667 135.118 4.58333 134.971 4.43C134.824 4.27 134.648 4.14667 134.441 4.06C134.241 3.96667 134.014 3.92 133.761 3.92C133.508 3.92 133.278 3.96667 133.071 4.06C132.871 4.14667 132.698 4.27 132.551 4.43C132.404 4.58333 132.291 4.76667 132.211 4.98C132.138 5.18667 132.101 5.41333 132.101 5.66ZM137.469 4.43C137.469 4.21667 137.462 4.01667 137.449 3.83C137.435 3.64333 137.429 3.47333 137.429 3.32H138.169C138.169 3.44667 138.172 3.57333 138.179 3.7C138.185 3.82667 138.189 3.95667 138.189 4.09H138.209C138.262 3.97667 138.335 3.86667 138.429 3.76C138.529 3.65333 138.645 3.56 138.779 3.48C138.912 3.39333 139.062 3.32667 139.229 3.28C139.395 3.22667 139.575 3.2 139.769 3.2C140.075 3.2 140.339 3.24667 140.559 3.34C140.785 3.43333 140.972 3.56333 141.119 3.73C141.265 3.89667 141.372 4.1 141.439 4.34C141.512 4.57333 141.549 4.83 141.549 5.11V8H140.769V5.19C140.769 4.79667 140.682 4.48667 140.509 4.26C140.335 4.03333 140.065 3.92 139.699 3.92C139.445 3.92 139.225 3.96333 139.039 4.05C138.859 4.13667 138.709 4.26 138.589 4.42C138.475 4.58 138.389 4.77 138.329 4.99C138.275 5.21 138.249 5.45333 138.249 5.72V8H137.469V4.43ZM143.125 6.77C143.278 6.96333 143.445 7.11667 143.625 7.23C143.812 7.34333 144.045 7.4 144.325 7.4C144.445 7.4 144.565 7.38667 144.685 7.36C144.812 7.33333 144.925 7.29 145.025 7.23C145.125 7.17 145.205 7.09667 145.265 7.01C145.325 6.91667 145.355 6.80667 145.355 6.68C145.355 6.55333 145.325 6.45 145.265 6.37C145.212 6.29 145.138 6.22333 145.045 6.17C144.952 6.11 144.845 6.06333 144.725 6.03C144.605 5.99667 144.482 5.96667 144.355 5.94C144.135 5.89333 143.925 5.84 143.725 5.78C143.525 5.72 143.348 5.64333 143.195 5.55C143.048 5.45 142.928 5.32333 142.835 5.17C142.748 5.01667 142.705 4.82 142.705 4.58C142.705 4.35333 142.755 4.15333 142.855 3.98C142.955 3.80667 143.088 3.66333 143.255 3.55C143.422 3.43667 143.608 3.35 143.815 3.29C144.022 3.23 144.235 3.2 144.455 3.2C144.788 3.2 145.095 3.26667 145.375 3.4C145.662 3.53333 145.885 3.75 146.045 4.05L145.395 4.48C145.295 4.31333 145.162 4.18 144.995 4.08C144.835 3.97333 144.638 3.92 144.405 3.92C144.298 3.92 144.188 3.93333 144.075 3.96C143.968 3.98667 143.872 4.02667 143.785 4.08C143.698 4.13333 143.625 4.20333 143.565 4.29C143.512 4.37 143.485 4.46333 143.485 4.57C143.485 4.67 143.515 4.75667 143.575 4.83C143.642 4.89667 143.728 4.95667 143.835 5.01C143.948 5.06333 144.075 5.11 144.215 5.15C144.362 5.19 144.512 5.22333 144.665 5.25C144.872 5.29 145.068 5.34333 145.255 5.41C145.442 5.47 145.605 5.55333 145.745 5.66C145.885 5.76667 145.995 5.9 146.075 6.06C146.155 6.22 146.195 6.41667 146.195 6.65C146.195 6.91667 146.142 7.14333 146.035 7.33C145.928 7.51667 145.785 7.67 145.605 7.79C145.432 7.90333 145.232 7.98667 145.005 8.04C144.785 8.09333 144.558 8.12 144.325 8.12C143.925 8.12 143.578 8.06 143.285 7.94C142.998 7.81333 142.738 7.58333 142.505 7.25L143.125 6.77ZM151.463 7.15C151.183 7.51 150.876 7.76333 150.543 7.91C150.21 8.05 149.823 8.12 149.383 8.12C149.016 8.12 148.686 8.05667 148.393 7.93C148.1 7.79667 147.85 7.62 147.643 7.4C147.443 7.18 147.286 6.92 147.173 6.62C147.066 6.32 147.013 6 147.013 5.66C147.013 5.3 147.073 4.97 147.193 4.67C147.313 4.36333 147.48 4.10333 147.693 3.89C147.906 3.67 148.16 3.5 148.453 3.38C148.746 3.26 149.066 3.2 149.413 3.2C149.74 3.2 150.04 3.25667 150.313 3.37C150.586 3.47667 150.82 3.63667 151.013 3.85C151.213 4.05667 151.366 4.31333 151.473 4.62C151.58 4.92 151.633 5.26333 151.633 5.65V5.9H147.853C147.866 6.1 147.913 6.29333 147.993 6.48C148.08 6.66 148.19 6.82 148.323 6.96C148.456 7.09333 148.613 7.2 148.793 7.28C148.973 7.36 149.17 7.4 149.383 7.4C149.723 7.4 150.01 7.34 150.243 7.22C150.476 7.1 150.686 6.92333 150.873 6.69L151.463 7.15ZM150.793 5.24C150.78 4.84 150.65 4.52 150.403 4.28C150.156 4.04 149.816 3.92 149.383 3.92C148.95 3.92 148.6 4.04 148.333 4.28C148.066 4.52 147.906 4.84 147.853 5.24H150.793ZM156.17 4.49C156.003 4.29 155.823 4.14667 155.63 4.06C155.436 3.96667 155.223 3.92 154.99 3.92C154.73 3.92 154.5 3.96667 154.3 4.06C154.1 4.14667 153.933 4.27 153.8 4.43C153.673 4.59 153.576 4.77667 153.51 4.99C153.443 5.19667 153.41 5.42 153.41 5.66C153.41 5.9 153.446 6.12667 153.52 6.34C153.6 6.54667 153.706 6.73 153.84 6.89C153.98 7.05 154.146 7.17667 154.34 7.27C154.533 7.35667 154.75 7.4 154.99 7.4C155.503 7.4 155.9 7.20667 156.18 6.82L156.76 7.37C156.533 7.63 156.266 7.82 155.96 7.94C155.653 8.06 155.33 8.12 154.99 8.12C154.63 8.12 154.3 8.06 154 7.94C153.7 7.82 153.443 7.65 153.23 7.43C153.023 7.21 152.86 6.95 152.74 6.65C152.626 6.35 152.57 6.02 152.57 5.66C152.57 5.30667 152.626 4.98 152.74 4.68C152.86 4.38 153.026 4.12 153.24 3.9C153.453 3.68 153.706 3.51 154 3.39C154.3 3.26333 154.63 3.2 154.99 3.2C155.336 3.2 155.663 3.26 155.97 3.38C156.283 3.5 156.556 3.68667 156.79 3.94L156.17 4.49ZM160.224 3.98H158.844V6.32C158.844 6.47333 158.847 6.61667 158.854 6.75C158.86 6.87667 158.887 6.99 158.934 7.09C158.98 7.18333 159.05 7.26 159.144 7.32C159.237 7.37333 159.37 7.4 159.544 7.4C159.657 7.4 159.774 7.38667 159.894 7.36C160.014 7.33333 160.127 7.29333 160.234 7.24L160.264 7.95C160.13 8.01 159.98 8.05333 159.814 8.08C159.654 8.10667 159.5 8.12 159.354 8.12C159.074 8.12 158.85 8.08333 158.684 8.01C158.517 7.93667 158.387 7.83333 158.294 7.7C158.2 7.56667 158.137 7.40333 158.104 7.21C158.077 7.01 158.064 6.79 158.064 6.55V3.98H157.044V3.32H158.064V1.99H158.844V3.32H160.224V3.98ZM165.359 7.15C165.079 7.51 164.773 7.76333 164.439 7.91C164.106 8.05 163.719 8.12 163.279 8.12C162.913 8.12 162.583 8.05667 162.289 7.93C161.996 7.79667 161.746 7.62 161.539 7.4C161.339 7.18 161.183 6.92 161.069 6.62C160.963 6.32 160.909 6 160.909 5.66C160.909 5.3 160.969 4.97 161.089 4.67C161.209 4.36333 161.376 4.10333 161.589 3.89C161.803 3.67 162.056 3.5 162.349 3.38C162.643 3.26 162.963 3.2 163.309 3.2C163.636 3.2 163.936 3.25667 164.209 3.37C164.483 3.47667 164.716 3.63667 164.909 3.85C165.109 4.05667 165.263 4.31333 165.369 4.62C165.476 4.92 165.529 5.26333 165.529 5.65V5.9H161.749C161.763 6.1 161.809 6.29333 161.889 6.48C161.976 6.66 162.086 6.82 162.219 6.96C162.353 7.09333 162.509 7.2 162.689 7.28C162.869 7.36 163.066 7.4 163.279 7.4C163.619 7.4 163.906 7.34 164.139 7.22C164.373 7.1 164.583 6.92333 164.769 6.69L165.359 7.15ZM164.689 5.24C164.676 4.84 164.546 4.52 164.299 4.28C164.053 4.04 163.713 3.92 163.279 3.92C162.846 3.92 162.496 4.04 162.229 4.28C161.963 4.52 161.803 4.84 161.749 5.24H164.689ZM169.296 3.98H167.916V6.32C167.916 6.47333 167.919 6.61667 167.926 6.75C167.933 6.87667 167.959 6.99 168.006 7.09C168.053 7.18333 168.123 7.26 168.216 7.32C168.309 7.37333 168.443 7.4 168.616 7.4C168.729 7.4 168.846 7.38667 168.966 7.36C169.086 7.33333 169.199 7.29333 169.306 7.24L169.336 7.95C169.203 8.01 169.053 8.05333 168.886 8.08C168.726 8.10667 168.573 8.12 168.426 8.12C168.146 8.12 167.923 8.08333 167.756 8.01C167.589 7.93667 167.459 7.83333 167.366 7.7C167.273 7.56667 167.209 7.40333 167.176 7.21C167.149 7.01 167.136 6.79 167.136 6.55V3.98H166.116V3.32H167.136V1.99H167.916V3.32H169.296V3.98ZM174.332 6.89C174.332 7.10333 174.338 7.30333 174.352 7.49C174.365 7.67667 174.372 7.84667 174.372 8H173.632C173.632 7.87333 173.628 7.74667 173.622 7.62C173.615 7.49333 173.612 7.36333 173.612 7.23H173.592C173.538 7.34333 173.462 7.45333 173.362 7.56C173.268 7.66667 173.155 7.76333 173.022 7.85C172.888 7.93 172.738 7.99333 172.572 8.04C172.405 8.09333 172.225 8.12 172.032 8.12C171.725 8.12 171.458 8.07333 171.232 7.98C171.012 7.88667 170.828 7.75667 170.682 7.59C170.535 7.42333 170.425 7.22333 170.352 6.99C170.285 6.75 170.252 6.49 170.252 6.21V3.32H171.032V6.13C171.032 6.52333 171.118 6.83333 171.292 7.06C171.465 7.28667 171.735 7.4 172.102 7.4C172.355 7.4 172.572 7.35667 172.752 7.27C172.938 7.18333 173.088 7.06 173.202 6.9C173.322 6.74 173.408 6.55 173.462 6.33C173.522 6.11 173.552 5.86667 173.552 5.6V3.32H174.332V6.89ZM175.808 4.43C175.808 4.21667 175.802 4.01667 175.788 3.83C175.775 3.64333 175.768 3.47333 175.768 3.32H176.508C176.508 3.44667 176.512 3.57333 176.518 3.7C176.525 3.82667 176.528 3.95667 176.528 4.09H176.548C176.602 3.97667 176.675 3.86667 176.768 3.76C176.868 3.65333 176.985 3.56 177.118 3.48C177.252 3.39333 177.402 3.32667 177.568 3.28C177.735 3.22667 177.915 3.2 178.108 3.2C178.162 3.2 178.215 3.20333 178.268 3.21C178.322 3.21667 178.375 3.23 178.428 3.25L178.378 4.04C178.245 4 178.105 3.98 177.958 3.98C177.478 3.98 177.128 4.13667 176.908 4.45C176.695 4.75667 176.588 5.18 176.588 5.72V8H175.808V4.43Z" fill="black"/>
</svg>
